<?xml version="1.0" encoding="UTF-8" standalone="no"?><svg xmlns="http://www.w3.org/2000/svg" xmlns:xlink="http://www.w3.org/1999/xlink" contentStyleType="text/css" height="927px" preserveAspectRatio="none" style="width:1474px;height:927px;background:#FFFFFF;" version="1.1" viewBox="0 0 1474 927" width="1474px" zoomAndPan="magnify"><defs/><g><rect fill="#FFFFFF" height="326.5938" style="stroke:#181818;stroke-width:1.0;" width="10" x="353" y="91.2969"/><rect fill="#FFFFFF" height="261.1953" style="stroke:#181818;stroke-width:1.0;" width="10" x="571" y="230.0938"/><rect fill="#FFFFFF" height="44.2656" style="stroke:#181818;stroke-width:1.0;" width="10" x="792" y="491.2891"/><rect fill="#FFFFFF" height="29.1328" style="stroke:#181818;stroke-width:1.0;" width="10" x="792" y="624.0859"/><rect fill="#FFFFFF" height="58.2656" style="stroke:#181818;stroke-width:1.0;" width="10" x="792" y="770.8828"/><rect fill="#FFFFFF" height="175.9297" style="stroke:#181818;stroke-width:1.0;" width="10" x="1238" y="594.9531"/><rect fill="#FFFFFF" height="9" style="stroke:#181818;stroke-width:1.0;" width="10" x="1440.5" y="829.1484"/><line style="stroke:#181818;stroke-width:0.5;stroke-dasharray:5.0,5.0;" x1="43" x2="43" y1="81.2969" y2="847.1484"/><line style="stroke:#181818;stroke-width:0.5;stroke-dasharray:5.0,5.0;" x1="158" x2="158" y1="81.2969" y2="847.1484"/><line style="stroke:#181818;stroke-width:0.5;stroke-dasharray:5.0,5.0;" x1="268" x2="268" y1="81.2969" y2="847.1484"/><line style="stroke:#181818;stroke-width:0.5;stroke-dasharray:5.0,5.0;" x1="358" x2="358" y1="81.2969" y2="847.1484"/><line style="stroke:#181818;stroke-width:0.5;stroke-dasharray:5.0,5.0;" x1="576" x2="576" y1="81.2969" y2="847.1484"/><line style="stroke:#181818;stroke-width:0.5;stroke-dasharray:5.0,5.0;" x1="796.5" x2="796.5" y1="81.2969" y2="847.1484"/><line style="stroke:#181818;stroke-width:0.5;stroke-dasharray:5.0,5.0;" x1="1017.5" x2="1017.5" y1="81.2969" y2="847.1484"/><line style="stroke:#181818;stroke-width:0.5;stroke-dasharray:5.0,5.0;" x1="1243" x2="1243" y1="81.2969" y2="847.1484"/><line style="stroke:#181818;stroke-width:0.5;stroke-dasharray:5.0,5.0;" x1="1369" x2="1369" y1="81.2969" y2="847.1484"/><line style="stroke:#181818;stroke-width:0.5;stroke-dasharray:5.0,5.0;" x1="1445" x2="1445" y1="81.2969" y2="847.1484"/><text fill="#000000" font-family="sans-serif" font-size="14" lengthAdjust="spacing" textLength="71" x="5" y="77.9951">Developer</text><ellipse cx="43.5" cy="13.5" fill="#E2E2F0" rx="8" ry="8" style="stroke:#181818;stroke-width:0.5;"/><path d="M43.5,21.5 L43.5,48.5 M30.5,29.5 L56.5,29.5 M43.5,48.5 L30.5,63.5 M43.5,48.5 L56.5,63.5 " fill="none" style="stroke:#181818;stroke-width:0.5;"/><text fill="#000000" font-family="sans-serif" font-size="14" lengthAdjust="spacing" textLength="71" x="5" y="859.1436">Developer</text><ellipse cx="43.5" cy="870.9453" fill="#E2E2F0" rx="8" ry="8" style="stroke:#181818;stroke-width:0.5;"/><path d="M43.5,878.9453 L43.5,905.9453 M30.5,886.9453 L56.5,886.9453 M43.5,905.9453 L30.5,920.9453 M43.5,905.9453 L56.5,920.9453 " fill="none" style="stroke:#181818;stroke-width:0.5;"/><text fill="#000000" font-family="sans-serif" font-size="14" lengthAdjust="spacing" textLength="126" x="92" y="77.9951">AnotherDeveloper</text><ellipse cx="158" cy="13.5" fill="#E2E2F0" rx="8" ry="8" style="stroke:#181818;stroke-width:0.5;"/><path d="M158,21.5 L158,48.5 M145,29.5 L171,29.5 M158,48.5 L145,63.5 M158,48.5 L171,63.5 " fill="none" style="stroke:#181818;stroke-width:0.5;"/><text fill="#000000" font-family="sans-serif" font-size="14" lengthAdjust="spacing" textLength="126" x="92" y="859.1436">AnotherDeveloper</text><ellipse cx="158" cy="870.9453" fill="#E2E2F0" rx="8" ry="8" style="stroke:#181818;stroke-width:0.5;"/><path d="M158,878.9453 L158,905.9453 M145,886.9453 L171,886.9453 M158,905.9453 L145,920.9453 M158,905.9453 L171,920.9453 " fill="none" style="stroke:#181818;stroke-width:0.5;"/><text fill="#000000" font-family="sans-serif" font-size="14" lengthAdjust="spacing" textLength="63" x="234" y="77.9951">Reviewer</text><ellipse cx="268.5" cy="13.5" fill="#E2E2F0" rx="8" ry="8" style="stroke:#181818;stroke-width:0.5;"/><path d="M268.5,21.5 L268.5,48.5 M255.5,29.5 L281.5,29.5 M268.5,48.5 L255.5,63.5 M268.5,48.5 L281.5,63.5 " fill="none" style="stroke:#181818;stroke-width:0.5;"/><text fill="#000000" font-family="sans-serif" font-size="14" lengthAdjust="spacing" textLength="63" x="234" y="859.1436">Reviewer</text><ellipse cx="268.5" cy="870.9453" fill="#E2E2F0" rx="8" ry="8" style="stroke:#181818;stroke-width:0.5;"/><path d="M268.5,878.9453 L268.5,905.9453 M255.5,886.9453 L281.5,886.9453 M268.5,905.9453 L255.5,920.9453 M268.5,905.9453 L281.5,920.9453 " fill="none" style="stroke:#181818;stroke-width:0.5;"/><text fill="#000000" font-family="sans-serif" font-size="14" lengthAdjust="spacing" textLength="84" x="313" y="77.9951">LocalBranch</text><ellipse cx="358" cy="49" fill="#E2E2F0" rx="12" ry="12" style="stroke:#181818;stroke-width:0.5;"/><line style="stroke:#181818;stroke-width:0.5;" x1="346" x2="370" y1="63" y2="63"/><text fill="#000000" font-family="sans-serif" font-size="14" lengthAdjust="spacing" textLength="84" x="313" y="859.1436">LocalBranch</text><ellipse cx="358" cy="878.4453" fill="#E2E2F0" rx="12" ry="12" style="stroke:#181818;stroke-width:0.5;"/><line style="stroke:#181818;stroke-width:0.5;" x1="346" x2="370" y1="892.4453" y2="892.4453"/><text fill="#000000" font-family="sans-serif" font-size="14" lengthAdjust="spacing" textLength="74" x="536" y="77.9951">RemotePR</text><ellipse cx="576" cy="49" fill="#E2E2F0" rx="12" ry="12" style="stroke:#181818;stroke-width:0.5;"/><line style="stroke:#181818;stroke-width:0.5;" x1="564" x2="588" y1="63" y2="63"/><text fill="#000000" font-family="sans-serif" font-size="14" lengthAdjust="spacing" textLength="74" x="536" y="859.1436">RemotePR</text><ellipse cx="576" cy="878.4453" fill="#E2E2F0" rx="12" ry="12" style="stroke:#181818;stroke-width:0.5;"/><line style="stroke:#181818;stroke-width:0.5;" x1="564" x2="588" y1="892.4453" y2="892.4453"/><text fill="#000000" font-family="sans-serif" font-size="14" lengthAdjust="spacing" textLength="33" x="777.5" y="77.9951">main</text><ellipse cx="797" cy="49" fill="#E2E2F0" rx="12" ry="12" style="stroke:#181818;stroke-width:0.5;"/><line style="stroke:#181818;stroke-width:0.5;" x1="785" x2="809" y1="63" y2="63"/><text fill="#000000" font-family="sans-serif" font-size="14" lengthAdjust="spacing" textLength="33" x="777.5" y="859.1436">main</text><ellipse cx="797" cy="878.4453" fill="#E2E2F0" rx="12" ry="12" style="stroke:#181818;stroke-width:0.5;"/><line style="stroke:#181818;stroke-width:0.5;" x1="785" x2="809" y1="892.4453" y2="892.4453"/><rect fill="#E2E2F0" height="30.2969" rx="2.5" ry="2.5" style="stroke:#181818;stroke-width:0.5;" width="159" x="938.5" y="50"/><text fill="#000000" font-family="sans-serif" font-size="14" lengthAdjust="spacing" textLength="145" x="945.5" y="69.9951">ReleaseGithubAction</text><rect fill="#E2E2F0" height="30.2969" rx="2.5" ry="2.5" style="stroke:#181818;stroke-width:0.5;" width="159" x="938.5" y="846.1484"/><text fill="#000000" font-family="sans-serif" font-size="14" lengthAdjust="spacing" textLength="145" x="945.5" y="866.1436">ReleaseGithubAction</text><text fill="#000000" font-family="sans-serif" font-size="14" lengthAdjust="spacing" textLength="138" x="1171" y="77.9951">VersionPackagesPR</text><ellipse cx="1243" cy="49" fill="#E2E2F0" rx="12" ry="12" style="stroke:#181818;stroke-width:0.5;"/><line style="stroke:#181818;stroke-width:0.5;" x1="1231" x2="1255" y1="63" y2="63"/><text fill="#000000" font-family="sans-serif" font-size="14" lengthAdjust="spacing" textLength="138" x="1171" y="859.1436">VersionPackagesPR</text><ellipse cx="1243" cy="878.4453" fill="#E2E2F0" rx="12" ry="12" style="stroke:#181818;stroke-width:0.5;"/><line style="stroke:#181818;stroke-width:0.5;" x1="1231" x2="1255" y1="892.4453" y2="892.4453"/><rect fill="#E2E2F0" height="30.2969" rx="2.5" ry="2.5" style="stroke:#181818;stroke-width:0.5;" width="88" x="1325" y="50"/><text fill="#000000" font-family="sans-serif" font-size="14" lengthAdjust="spacing" textLength="74" x="1332" y="69.9951">blockchain</text><rect fill="#E2E2F0" height="30.2969" rx="2.5" ry="2.5" style="stroke:#181818;stroke-width:0.5;" width="88" x="1325" y="846.1484"/><text fill="#000000" font-family="sans-serif" font-size="14" lengthAdjust="spacing" textLength="74" x="1332" y="866.1436">blockchain</text><rect fill="#E2E2F0" height="30.2969" rx="2.5" ry="2.5" style="stroke:#181818;stroke-width:0.5;" width="45" x="1423" y="50"/><text fill="#000000" font-family="sans-serif" font-size="14" lengthAdjust="spacing" textLength="31" x="1430" y="69.9951">npm</text><rect fill="#E2E2F0" height="30.2969" rx="2.5" ry="2.5" style="stroke:#181818;stroke-width:0.5;" width="45" x="1423" y="846.1484"/><text fill="#000000" font-family="sans-serif" font-size="14" lengthAdjust="spacing" textLength="31" x="1430" y="866.1436">npm</text><rect fill="#FFFFFF" height="326.5938" style="stroke:#181818;stroke-width:1.0;" width="10" x="353" y="91.2969"/><rect fill="#FFFFFF" height="261.1953" style="stroke:#181818;stroke-width:1.0;" width="10" x="571" y="230.0938"/><rect fill="#FFFFFF" height="44.2656" style="stroke:#181818;stroke-width:1.0;" width="10" x="792" y="491.2891"/><rect fill="#FFFFFF" height="29.1328" style="stroke:#181818;stroke-width:1.0;" width="10" x="792" y="624.0859"/><rect fill="#FFFFFF" height="58.2656" style="stroke:#181818;stroke-width:1.0;" width="10" x="792" y="770.8828"/><rect fill="#FFFFFF" height="175.9297" style="stroke:#181818;stroke-width:1.0;" width="10" x="1238" y="594.9531"/><rect fill="#FFFFFF" height="9" style="stroke:#181818;stroke-width:1.0;" width="10" x="1440.5" y="829.1484"/><polygon fill="#181818" points="341,123.5625,351,127.5625,341,131.5625,345,127.5625" style="stroke:#181818;stroke-width:1.0;"/><line style="stroke:#181818;stroke-width:1.0;" x1="43.5" x2="347" y1="127.5625" y2="127.5625"/><text fill="#000000" font-family="sans-serif" font-size="13" lengthAdjust="spacing" textLength="155" x="50.5" y="107.3638">Change smart contracts</text><text fill="#000000" font-family="sans-serif" font-size="13" lengthAdjust="spacing" textLength="77" x="50.5" y="122.4966">and commit</text><polygon fill="#181818" points="341,167.8281,351,171.8281,341,175.8281,345,171.8281" style="stroke:#181818;stroke-width:1.0;"/><line style="stroke:#181818;stroke-width:1.0;" x1="43.5" x2="347" y1="171.8281" y2="171.8281"/><text fill="#000000" font-family="sans-serif" font-size="13" lengthAdjust="spacing" textLength="231" x="50.5" y="151.6294">yarn changeset - create a changeset</text><text fill="#000000" font-family="sans-serif" font-size="13" lengthAdjust="spacing" textLength="64" x="50.5" y="166.7622">&amp; commit</text><polygon fill="#181818" points="341,196.9609,351,200.9609,341,204.9609,345,200.9609" style="stroke:#181818;stroke-width:1.0;"/><line style="stroke:#181818;stroke-width:1.0;" x1="43.5" x2="347" y1="200.9609" y2="200.9609"/><text fill="#000000" font-family="sans-serif" font-size="13" lengthAdjust="spacing" textLength="124" x="50.5" y="195.895">Git push &amp; open PR</text><polygon fill="#181818" points="559,226.0938,569,230.0938,559,234.0938,563,230.0938" style="stroke:#181818;stroke-width:1.0;"/><line style="stroke:#181818;stroke-width:1.0;stroke-dasharray:2.0,2.0;" x1="363" x2="565" y1="230.0938" y2="230.0938"/><text fill="#000000" font-family="sans-serif" font-size="13" lengthAdjust="spacing" textLength="140" x="370" y="225.0278">Deltas and changeset</text><polygon fill="#181818" points="559,255.2266,569,259.2266,559,263.2266,563,259.2266" style="stroke:#181818;stroke-width:1.0;"/><line style="stroke:#181818;stroke-width:1.0;" x1="268.5" x2="565" y1="259.2266" y2="259.2266"/><text fill="#000000" font-family="sans-serif" font-size="13" lengthAdjust="spacing" textLength="73" x="275.5" y="254.1606">Approve PR</text><polygon fill="#181818" points="341,284.3594,351,288.3594,341,292.3594,345,288.3594" style="stroke:#181818;stroke-width:1.0;"/><line style="stroke:#181818;stroke-width:1.0;" x1="43.5" x2="347" y1="288.3594" y2="288.3594"/><text fill="#000000" font-family="sans-serif" font-size="13" lengthAdjust="spacing" textLength="124" x="50.5" y="283.2935">Deploy to all chains</text><polygon fill="#181818" points="1357,313.4922,1367,317.4922,1357,321.4922,1361,317.4922" style="stroke:#181818;stroke-width:1.0;"/><line style="stroke:#181818;stroke-width:1.0;stroke-dasharray:2.0,2.0;" x1="363" x2="1363" y1="317.4922" y2="317.4922"/><text fill="#000000" font-family="sans-serif" font-size="13" lengthAdjust="spacing" textLength="207" x="370" y="312.4263">Updated or new smart contracts</text><line style="stroke:#181818;stroke-width:1.0;stroke-dasharray:2.0,2.0;" x1="363" x2="405" y1="346.625" y2="346.625"/><line style="stroke:#181818;stroke-width:1.0;stroke-dasharray:2.0,2.0;" x1="405" x2="405" y1="346.625" y2="359.625"/><line style="stroke:#181818;stroke-width:1.0;stroke-dasharray:2.0,2.0;" x1="364" x2="405" y1="359.625" y2="359.625"/><polygon fill="#181818" points="374,355.625,364,359.625,374,363.625,370,359.625" style="stroke:#181818;stroke-width:1.0;"/><text fill="#000000" font-family="sans-serif" font-size="13" lengthAdjust="spacing" textLength="176" x="370" y="341.5591">Update addresses json files</text><polygon fill="#181818" points="341,384.7578,351,388.7578,341,392.7578,345,388.7578" style="stroke:#181818;stroke-width:1.0;"/><line style="stroke:#181818;stroke-width:1.0;" x1="43.5" x2="347" y1="388.7578" y2="388.7578"/><text fill="#000000" font-family="sans-serif" font-size="13" lengthAdjust="spacing" textLength="217" x="50.5" y="383.6919">push updated addresses json files</text><polygon fill="#181818" points="559,413.8906,569,417.8906,559,421.8906,563,417.8906" style="stroke:#181818;stroke-width:1.0;"/><line style="stroke:#181818;stroke-width:1.0;stroke-dasharray:2.0,2.0;" x1="358" x2="565" y1="417.8906" y2="417.8906"/><text fill="#000000" font-family="sans-serif" font-size="13" lengthAdjust="spacing" textLength="184" x="365" y="412.8247">Updated addresses json files</text><polygon fill="#181818" points="559,443.0234,569,447.0234,559,451.0234,563,447.0234" style="stroke:#181818;stroke-width:1.0;"/><line style="stroke:#181818;stroke-width:1.0;" x1="43.5" x2="565" y1="447.0234" y2="447.0234"/><text fill="#000000" font-family="sans-serif" font-size="13" lengthAdjust="spacing" textLength="93" x="50.5" y="441.9575">Merge to main</text><polygon fill="#181818" points="780,487.2891,790,491.2891,780,495.2891,784,491.2891" style="stroke:#181818;stroke-width:1.0;"/><line style="stroke:#181818;stroke-width:1.0;stroke-dasharray:2.0,2.0;" x1="576" x2="786" y1="491.2891" y2="491.2891"/><text fill="#000000" font-family="sans-serif" font-size="13" lengthAdjust="spacing" textLength="188" x="583" y="471.0903">Code Deltas + Changesets +</text><text fill="#000000" font-family="sans-serif" font-size="13" lengthAdjust="spacing" textLength="125" x="583" y="486.2231">Updated addresses</text><polygon fill="#181818" points="1006,531.5547,1016,535.5547,1006,539.5547,1010,535.5547" style="stroke:#181818;stroke-width:1.0;"/><line style="stroke:#181818;stroke-width:1.0;stroke-dasharray:2.0,2.0;" x1="797" x2="1012" y1="535.5547" y2="535.5547"/><text fill="#000000" font-family="sans-serif" font-size="13" lengthAdjust="spacing" textLength="109" x="804" y="515.356">Changes to main</text><text fill="#000000" font-family="sans-serif" font-size="13" lengthAdjust="spacing" textLength="127" x="804" y="530.4888">including changeset</text><polygon fill="#181818" points="1226,590.9531,1236,594.9531,1226,598.9531,1230,594.9531" style="stroke:#181818;stroke-width:1.0;"/><line style="stroke:#181818;stroke-width:1.0;" x1="1018" x2="1232" y1="594.9531" y2="594.9531"/><text fill="#000000" font-family="sans-serif" font-size="13" lengthAdjust="spacing" textLength="190" x="1025" y="559.6216">Create a PR with new versions</text><text fill="#000000" font-family="sans-serif" font-size="13" lengthAdjust="spacing" textLength="192" x="1025" y="574.7544">applied to package.jsons from</text><text fill="#000000" font-family="sans-serif" font-size="13" lengthAdjust="spacing" textLength="196" x="1025" y="589.8872">instrucitons in new changesets</text><polygon fill="#181818" points="780,620.0859,790,624.0859,780,628.0859,784,624.0859" style="stroke:#181818;stroke-width:1.0;"/><line style="stroke:#181818;stroke-width:1.0;" x1="158" x2="786" y1="624.0859" y2="624.0859"/><text fill="#000000" font-family="sans-serif" font-size="13" lengthAdjust="spacing" textLength="143" x="165" y="619.02">Push a new changeset</text><polygon fill="#181818" points="1006,649.2188,1016,653.2188,1006,657.2188,1010,653.2188" style="stroke:#181818;stroke-width:1.0;"/><line style="stroke:#181818;stroke-width:1.0;stroke-dasharray:2.0,2.0;" x1="797" x2="1012" y1="653.2188" y2="653.2188"/><text fill="#000000" font-family="sans-serif" font-size="13" lengthAdjust="spacing" textLength="96" x="804" y="648.1528">new changeset</text><polygon fill="#181818" points="1226,708.6172,1236,712.6172,1226,716.6172,1230,712.6172" style="stroke:#181818;stroke-width:1.0;"/><line style="stroke:#181818;stroke-width:1.0;" x1="1018" x2="1232" y1="712.6172" y2="712.6172"/><text fill="#000000" font-family="sans-serif" font-size="13" lengthAdjust="spacing" textLength="182" x="1025" y="677.2856">Update PR with new versions</text><text fill="#000000" font-family="sans-serif" font-size="13" lengthAdjust="spacing" textLength="192" x="1025" y="692.4185">applied to package.jsons from</text><text fill="#000000" font-family="sans-serif" font-size="13" lengthAdjust="spacing" textLength="188" x="1025" y="707.5513">instrucitons in new changests</text><polygon fill="#181818" points="1226,737.75,1236,741.75,1226,745.75,1230,741.75" style="stroke:#181818;stroke-width:1.0;"/><line style="stroke:#181818;stroke-width:1.0;" x1="43.5" x2="1232" y1="741.75" y2="741.75"/><text fill="#000000" font-family="sans-serif" font-size="13" lengthAdjust="spacing" textLength="95" x="50.5" y="736.6841">merge to main</text><polygon fill="#181818" points="813,766.8828,803,770.8828,813,774.8828,809,770.8828" style="stroke:#181818;stroke-width:1.0;"/><line style="stroke:#181818;stroke-width:1.0;stroke-dasharray:2.0,2.0;" x1="807" x2="1242" y1="770.8828" y2="770.8828"/><text fill="#000000" font-family="sans-serif" font-size="13" lengthAdjust="spacing" textLength="196" x="819" y="765.8169">Updated versions in packages.</text><polygon fill="#181818" points="1006,796.0156,1016,800.0156,1006,804.0156,1010,800.0156" style="stroke:#181818;stroke-width:1.0;"/><line style="stroke:#181818;stroke-width:1.0;" x1="802" x2="1012" y1="800.0156" y2="800.0156"/><text fill="#000000" font-family="sans-serif" font-size="13" lengthAdjust="spacing" textLength="192" x="809" y="794.9497">new versions in package.jsons</text><polygon fill="#181818" points="1428.5,825.1484,1438.5,829.1484,1428.5,833.1484,1432.5,829.1484" style="stroke:#181818;stroke-width:1.0;"/><line style="stroke:#181818;stroke-width:1.0;" x1="1018" x2="1434.5" y1="829.1484" y2="829.1484"/><text fill="#000000" font-family="sans-serif" font-size="13" lengthAdjust="spacing" textLength="173" x="1025" y="824.0825">Build and publish packages</text><!--SRC=[hLJ1Rjim3BtdAtZgPKW_88S1QGliiW51WEwKYoApiLQP4YJPMVz-b6mvTfHusD2B0Seat-FZauGCni4BTgYDHRSIATwI2JMww-CzTWhF72855JxWkv52Fpb1iiv7UsnCmDq-nurGjBB21IML5HI0CpGAZzzKgDlZLWPbA2V_HESvt0dvBaxekSkqygYDV9VrTKEopMeL-tGYu8pII1_MNwS_Dl1S2peX-8RxW3GK70_euK22AewRHeM5QhA_GQOE7WEiGJgCq69oUA27eGyiD68DmBQ-XWVW_mGyyEG_h3a_wxdX7UaWF2I66IVkfPzxr3tl26R5MskTwJ0YtAVpWbQR3mW6XDQGbFO5eSiMDl1gAyQkWAr1UBwMioYTWVMr8AhAeVVeuPSt16zAer-WcDHg1zYRjVS5V5qggr3yrKANLZ_GiNrOg6JlV9xmcgJCiwamR-pBO3VULmmEL12Pee-B74yIHlmCynJN9_lPPqQCeKZgjb9qcfXbWZBmBbh5COjRoFspmtd8CwUdTNTzNhesrch54p6-xSiUexOUtfnf4XiVN2jLY6VCBvQFlFnbrF81k7w9O9Hu5wqWvgt-IRHvvV-BCpZvywK9LpVX1dOpCsAHC75aDjr8ZR46GlvnEdsvWrkYBcXw0w4V-Pwc_89luAbLkaglcssFMl5kCxjYDMCKd_u_]--></g></svg>