<?xml version="1.0" encoding="UTF-8" standalone="no"?><svg xmlns="http://www.w3.org/2000/svg" xmlns:xlink="http://www.w3.org/1999/xlink" contentStyleType="text/css" height="979px" preserveAspectRatio="none" style="width:1091px;height:979px;background:#FFFFFF;" version="1.1" viewBox="0 0 1091 979" width="1091px" zoomAndPan="magnify"><defs/><g><rect fill="#FFFFFF" height="398.5938" style="stroke:#181818;stroke-width:1.0;" width="10" x="632.5" y="481.8906"/><line style="stroke:#181818;stroke-width:0.5;stroke-dasharray:5.0,5.0;" x1="33" x2="33" y1="81.2969" y2="898.4844"/><line style="stroke:#181818;stroke-width:0.5;stroke-dasharray:5.0,5.0;" x1="101" x2="101" y1="81.2969" y2="898.4844"/><line style="stroke:#181818;stroke-width:0.5;stroke-dasharray:5.0,5.0;" x1="235.5" x2="235.5" y1="81.2969" y2="898.4844"/><line style="stroke:#181818;stroke-width:0.5;stroke-dasharray:5.0,5.0;" x1="438" x2="438" y1="81.2969" y2="898.4844"/><line style="stroke:#181818;stroke-width:0.5;stroke-dasharray:5.0,5.0;" x1="535" x2="535" y1="81.2969" y2="898.4844"/><line style="stroke:#181818;stroke-width:0.5;stroke-dasharray:5.0,5.0;" x1="637" x2="637" y1="81.2969" y2="898.4844"/><line style="stroke:#181818;stroke-width:0.5;stroke-dasharray:5.0,5.0;" x1="812" x2="812" y1="81.2969" y2="898.4844"/><line style="stroke:#181818;stroke-width:0.5;stroke-dasharray:5.0,5.0;" x1="948" x2="948" y1="81.2969" y2="898.4844"/><line style="stroke:#181818;stroke-width:0.5;stroke-dasharray:5.0,5.0;" x1="1048" x2="1048" y1="81.2969" y2="898.4844"/><text fill="#000000" font-family="sans-serif" font-size="14" lengthAdjust="spacing" textLength="51" x="5" y="77.9951">Creator</text><ellipse cx="33.5" cy="13.5" fill="#E2E2F0" rx="8" ry="8" style="stroke:#181818;stroke-width:0.5;"/><path d="M33.5,21.5 L33.5,48.5 M20.5,29.5 L46.5,29.5 M33.5,48.5 L20.5,63.5 M33.5,48.5 L46.5,63.5 " fill="none" style="stroke:#181818;stroke-width:0.5;"/><text fill="#000000" font-family="sans-serif" font-size="14" lengthAdjust="spacing" textLength="51" x="5" y="910.4795">Creator</text><ellipse cx="33.5" cy="922.2813" fill="#E2E2F0" rx="8" ry="8" style="stroke:#181818;stroke-width:0.5;"/><path d="M33.5,930.2813 L33.5,957.2813 M20.5,938.2813 L46.5,938.2813 M33.5,957.2813 L20.5,972.2813 M33.5,957.2813 L46.5,972.2813 " fill="none" style="stroke:#181818;stroke-width:0.5;"/><text fill="#000000" font-family="sans-serif" font-size="14" lengthAdjust="spacing" textLength="52" x="72" y="77.9951">Anyone</text><ellipse cx="101" cy="13.5" fill="#E2E2F0" rx="8" ry="8" style="stroke:#181818;stroke-width:0.5;"/><path d="M101,21.5 L101,48.5 M88,29.5 L114,29.5 M101,48.5 L88,63.5 M101,48.5 L114,63.5 " fill="none" style="stroke:#181818;stroke-width:0.5;"/><text fill="#000000" font-family="sans-serif" font-size="14" lengthAdjust="spacing" textLength="52" x="72" y="910.4795">Anyone</text><ellipse cx="101" cy="922.2813" fill="#E2E2F0" rx="8" ry="8" style="stroke:#181818;stroke-width:0.5;"/><path d="M101,930.2813 L101,957.2813 M88,938.2813 L114,938.2813 M101,957.2813 L88,972.2813 M101,957.2813 L114,972.2813 " fill="none" style="stroke:#181818;stroke-width:0.5;"/><rect fill="#E2E2F0" height="30.2969" rx="2.5" ry="2.5" style="stroke:#181818;stroke-width:0.5;" width="50" x="210.5" y="50"/><text fill="#000000" font-family="sans-serif" font-size="14" lengthAdjust="spacing" textLength="36" x="217.5" y="69.9951">1155</text><rect fill="#E2E2F0" height="30.2969" rx="2.5" ry="2.5" style="stroke:#181818;stroke-width:0.5;" width="50" x="210.5" y="897.4844"/><text fill="#000000" font-family="sans-serif" font-size="14" lengthAdjust="spacing" textLength="36" x="217.5" y="917.4795">1155</text><rect fill="#E2E2F0" height="30.2969" rx="2.5" ry="2.5" style="stroke:#181818;stroke-width:0.5;" width="57" x="410" y="50"/><text fill="#000000" font-family="sans-serif" font-size="14" lengthAdjust="spacing" textLength="43" x="417" y="69.9951">Minter</text><rect fill="#E2E2F0" height="30.2969" rx="2.5" ry="2.5" style="stroke:#181818;stroke-width:0.5;" width="57" x="410" y="897.4844"/><text fill="#000000" font-family="sans-serif" font-size="14" lengthAdjust="spacing" textLength="43" x="417" y="917.4795">Minter</text><rect fill="#E2E2F0" height="30.2969" rx="2.5" ry="2.5" style="stroke:#181818;stroke-width:0.5;" width="117" x="477" y="50"/><text fill="#000000" font-family="sans-serif" font-size="14" lengthAdjust="spacing" textLength="103" x="484" y="69.9951">CointagFactory</text><rect fill="#E2E2F0" height="30.2969" rx="2.5" ry="2.5" style="stroke:#181818;stroke-width:0.5;" width="117" x="477" y="897.4844"/><text fill="#000000" font-family="sans-serif" font-size="14" lengthAdjust="spacing" textLength="103" x="484" y="917.4795">CointagFactory</text><rect fill="#E2E2F0" height="30.2969" rx="2.5" ry="2.5" style="stroke:#181818;stroke-width:0.5;" width="67" x="604" y="50"/><text fill="#000000" font-family="sans-serif" font-size="14" lengthAdjust="spacing" textLength="53" x="611" y="69.9951">Cointag</text><rect fill="#E2E2F0" height="30.2969" rx="2.5" ry="2.5" style="stroke:#181818;stroke-width:0.5;" width="67" x="604" y="897.4844"/><text fill="#000000" font-family="sans-serif" font-size="14" lengthAdjust="spacing" textLength="53" x="611" y="917.4795">Cointag</text><rect fill="#E2E2F0" height="30.2969" rx="2.5" ry="2.5" style="stroke:#181818;stroke-width:0.5;" width="131" x="747" y="50"/><text fill="#000000" font-family="sans-serif" font-size="14" lengthAdjust="spacing" textLength="117" x="754" y="69.9951">ProtocolRewards</text><rect fill="#E2E2F0" height="30.2969" rx="2.5" ry="2.5" style="stroke:#181818;stroke-width:0.5;" width="131" x="747" y="897.4844"/><text fill="#000000" font-family="sans-serif" font-size="14" lengthAdjust="spacing" textLength="117" x="754" y="917.4795">ProtocolRewards</text><rect fill="#E2E2F0" height="30.2969" rx="2.5" ry="2.5" style="stroke:#181818;stroke-width:0.5;" width="120" x="888" y="50"/><text fill="#000000" font-family="sans-serif" font-size="14" lengthAdjust="spacing" textLength="106" x="895" y="69.9951">UniswapV3Pool</text><rect fill="#E2E2F0" height="30.2969" rx="2.5" ry="2.5" style="stroke:#181818;stroke-width:0.5;" width="120" x="888" y="897.4844"/><text fill="#000000" font-family="sans-serif" font-size="14" lengthAdjust="spacing" textLength="106" x="895" y="917.4795">UniswapV3Pool</text><rect fill="#E2E2F0" height="30.2969" rx="2.5" ry="2.5" style="stroke:#181818;stroke-width:0.5;" width="61" x="1018" y="50"/><text fill="#000000" font-family="sans-serif" font-size="14" lengthAdjust="spacing" textLength="47" x="1025" y="69.9951">ERC20</text><rect fill="#E2E2F0" height="30.2969" rx="2.5" ry="2.5" style="stroke:#181818;stroke-width:0.5;" width="61" x="1018" y="897.4844"/><text fill="#000000" font-family="sans-serif" font-size="14" lengthAdjust="spacing" textLength="47" x="1025" y="917.4795">ERC20</text><rect fill="#FFFFFF" height="398.5938" style="stroke:#181818;stroke-width:1.0;" width="10" x="632.5" y="481.8906"/><rect fill="#EEEEEE" height="3" style="stroke:#EEEEEE;stroke-width:1.0;" width="1084" x="0" y="111.8633"/><line style="stroke:#000000;stroke-width:1.0;" x1="0" x2="1084" y1="111.8633" y2="111.8633"/><line style="stroke:#000000;stroke-width:1.0;" x1="0" x2="1084" y1="114.8633" y2="114.8633"/><rect fill="#EEEEEE" height="23.1328" style="stroke:#000000;stroke-width:2.0;" width="101" x="491.5" y="101.2969"/><text fill="#000000" font-family="sans-serif" font-size="13" font-weight="bold" lengthAdjust="spacing" textLength="82" x="497.5" y="117.3638">Setup Flow</text><polygon fill="#181818" points="523.5,162.1289,533.5,166.1289,523.5,170.1289,527.5,166.1289" style="stroke:#181818;stroke-width:1.0;"/><line style="stroke:#181818;stroke-width:1.0;" x1="33.5" x2="529.5" y1="166.1289" y2="166.1289"/><text fill="#000000" font-family="sans-serif" font-size="13" lengthAdjust="spacing" textLength="96" x="40.5" y="161.063">Create Cointag</text><path d="M540,139.4297 L540,179.4297 L861,179.4297 L861,149.4297 L851,139.4297 L540,139.4297 " fill="#FEFFDD" style="stroke:#181818;stroke-width:0.5;"/><path d="M851,139.4297 L851,149.4297 L861,149.4297 L851,139.4297 " fill="#FEFFDD" style="stroke:#181818;stroke-width:0.5;"/><text fill="#000000" font-family="sans-serif" font-size="13" lengthAdjust="spacing" textLength="300" x="546" y="156.4966">deterministic address based on combination of</text><text fill="#000000" font-family="sans-serif" font-size="13" lengthAdjust="spacing" textLength="219" x="546" y="171.6294">creator, percentage, Uniswap pool</text><polygon fill="#181818" points="625.5,201.8281,635.5,205.8281,625.5,209.8281,629.5,205.8281" style="stroke:#181818;stroke-width:1.0;"/><line style="stroke:#181818;stroke-width:1.0;" x1="535.5" x2="631.5" y1="205.8281" y2="205.8281"/><text fill="#000000" font-family="sans-serif" font-size="13" lengthAdjust="spacing" textLength="43" x="542.5" y="200.7622">Create</text><polygon fill="#181818" points="223.5,233.9609,233.5,237.9609,223.5,241.9609,227.5,237.9609" style="stroke:#181818;stroke-width:1.0;"/><line style="stroke:#181818;stroke-width:1.0;" x1="33.5" x2="229.5" y1="237.9609" y2="237.9609"/><text fill="#000000" font-family="sans-serif" font-size="13" lengthAdjust="spacing" textLength="178" x="40.5" y="232.895">Set creator reward recipient</text><path d="M240,218.8281 L240,243.8281 L408,243.8281 L408,228.8281 L398,218.8281 L240,218.8281 " fill="#FEFFDD" style="stroke:#181818;stroke-width:0.5;"/><path d="M398,218.8281 L398,228.8281 L408,228.8281 L398,218.8281 " fill="#FEFFDD" style="stroke:#181818;stroke-width:0.5;"/><text fill="#000000" font-family="sans-serif" font-size="13" lengthAdjust="spacing" textLength="147" x="246" y="235.895">Set to Cointag address</text><rect fill="#EEEEEE" height="3" style="stroke:#EEEEEE;stroke-width:1.0;" width="1084" x="0" y="269.5273"/><line style="stroke:#000000;stroke-width:1.0;" x1="0" x2="1084" y1="269.5273" y2="269.5273"/><line style="stroke:#000000;stroke-width:1.0;" x1="0" x2="1084" y1="272.5273" y2="272.5273"/><rect fill="#EEEEEE" height="23.1328" style="stroke:#000000;stroke-width:2.0;" width="113" x="485.5" y="258.9609"/><text fill="#000000" font-family="sans-serif" font-size="13" font-weight="bold" lengthAdjust="spacing" textLength="94" x="491.5" y="275.0278">Minting Flow</text><polygon fill="#181818" points="426.5,309.2266,436.5,313.2266,426.5,317.2266,430.5,313.2266" style="stroke:#181818;stroke-width:1.0;"/><line style="stroke:#181818;stroke-width:1.0;" x1="101" x2="432.5" y1="313.2266" y2="313.2266"/><text fill="#000000" font-family="sans-serif" font-size="13" lengthAdjust="spacing" textLength="59" x="108" y="308.1606">Mint Post</text><polygon fill="#181818" points="246.5,338.3594,236.5,342.3594,246.5,346.3594,242.5,342.3594" style="stroke:#181818;stroke-width:1.0;"/><line style="stroke:#181818;stroke-width:1.0;" x1="240.5" x2="437.5" y1="342.3594" y2="342.3594"/><text fill="#000000" font-family="sans-serif" font-size="13" lengthAdjust="spacing" textLength="179" x="252.5" y="337.2935">Get creator reward recipient</text><polygon fill="#181818" points="426.5,367.4922,436.5,371.4922,426.5,375.4922,430.5,371.4922" style="stroke:#181818;stroke-width:1.0;"/><line style="stroke:#181818;stroke-width:1.0;stroke-dasharray:2.0,2.0;" x1="235.5" x2="432.5" y1="371.4922" y2="371.4922"/><text fill="#000000" font-family="sans-serif" font-size="13" lengthAdjust="spacing" textLength="150" x="242.5" y="366.4263">Return Cointag address</text><polygon fill="#181818" points="800.5,399.625,810.5,403.625,800.5,407.625,804.5,403.625" style="stroke:#181818;stroke-width:1.0;"/><line style="stroke:#181818;stroke-width:1.0;" x1="438.5" x2="806.5" y1="403.625" y2="403.625"/><text fill="#000000" font-family="sans-serif" font-size="13" lengthAdjust="spacing" textLength="103" x="445.5" y="398.5591">Deposit rewards</text><path d="M817,384.4922 L817,409.4922 L965,409.4922 L965,394.4922 L955,384.4922 L817,384.4922 " fill="#FEFFDD" style="stroke:#181818;stroke-width:0.5;"/><path d="M955,384.4922 L955,394.4922 L965,394.4922 L955,384.4922 " fill="#FEFFDD" style="stroke:#181818;stroke-width:0.5;"/><text fill="#000000" font-family="sans-serif" font-size="13" lengthAdjust="spacing" textLength="127" x="823" y="401.5591">Cointag as recipient</text><rect fill="#EEEEEE" height="3" style="stroke:#EEEEEE;stroke-width:1.0;" width="1084" x="0" y="435.1914"/><line style="stroke:#000000;stroke-width:1.0;" x1="0" x2="1084" y1="435.1914" y2="435.1914"/><line style="stroke:#000000;stroke-width:1.0;" x1="0" x2="1084" y1="438.1914" y2="438.1914"/><rect fill="#EEEEEE" height="23.1328" style="stroke:#000000;stroke-width:2.0;" width="85" x="499.5" y="424.625"/><text fill="#000000" font-family="sans-serif" font-size="13" font-weight="bold" lengthAdjust="spacing" textLength="66" x="505.5" y="440.6919">Pull Flow</text><polygon fill="#181818" points="620.5,477.8906,630.5,481.8906,620.5,485.8906,624.5,481.8906" style="stroke:#181818;stroke-width:1.0;"/><line style="stroke:#181818;stroke-width:1.0;" x1="101" x2="626.5" y1="481.8906" y2="481.8906"/><text fill="#000000" font-family="sans-serif" font-size="13" lengthAdjust="spacing" textLength="32" x="108" y="476.8247">pull()</text><path d="M647,462.7578 L647,487.7578 L918,487.7578 L918,472.7578 L908,462.7578 L647,462.7578 " fill="#FEFFDD" style="stroke:#181818;stroke-width:0.5;"/><path d="M908,462.7578 L908,472.7578 L918,472.7578 L908,462.7578 " fill="#FEFFDD" style="stroke:#181818;stroke-width:0.5;"/><text fill="#000000" font-family="sans-serif" font-size="13" lengthAdjust="spacing" textLength="250" x="653" y="479.8247">Anyone can trigger rewards distribution</text><polygon fill="#181818" points="800.5,510.0234,810.5,514.0234,800.5,518.0234,804.5,514.0234" style="stroke:#181818;stroke-width:1.0;"/><line style="stroke:#181818;stroke-width:1.0;" x1="642.5" x2="806.5" y1="514.0234" y2="514.0234"/><text fill="#000000" font-family="sans-serif" font-size="13" lengthAdjust="spacing" textLength="65" x="649.5" y="508.9575">withdraw()</text><polygon fill="#181818" points="653.5,539.1563,643.5,543.1563,653.5,547.1563,649.5,543.1563" style="stroke:#181818;stroke-width:1.0;"/><line style="stroke:#181818;stroke-width:1.0;stroke-dasharray:2.0,2.0;" x1="647.5" x2="811.5" y1="543.1563" y2="543.1563"/><text fill="#000000" font-family="sans-serif" font-size="13" lengthAdjust="spacing" textLength="135" x="659.5" y="538.0903">Transfer ETH rewards</text><line style="stroke:#181818;stroke-width:1.0;" x1="642.5" x2="684.5" y1="572.2891" y2="572.2891"/><line style="stroke:#181818;stroke-width:1.0;" x1="684.5" x2="684.5" y1="572.2891" y2="585.2891"/><line style="stroke:#181818;stroke-width:1.0;" x1="643.5" x2="684.5" y1="585.2891" y2="585.2891"/><polygon fill="#181818" points="653.5,581.2891,643.5,585.2891,653.5,589.2891,649.5,585.2891" style="stroke:#181818;stroke-width:1.0;"/><text fill="#000000" font-family="sans-serif" font-size="13" lengthAdjust="spacing" textLength="89" x="649.5" y="567.2231">Calculate split</text><path d="M750,559.6563 L750,584.6563 L952,584.6563 L952,569.6563 L942,559.6563 L750,559.6563 " fill="#FEFFDD" style="stroke:#181818;stroke-width:0.5;"/><path d="M942,559.6563 L942,569.6563 L952,569.6563 L942,559.6563 " fill="#FEFFDD" style="stroke:#181818;stroke-width:0.5;"/><text fill="#000000" font-family="sans-serif" font-size="13" lengthAdjust="spacing" textLength="181" x="756" y="576.7231">creator vs buyburn amounts</text><line style="stroke:#181818;stroke-width:1.0;" x1="642.5" x2="684.5" y1="614.4219" y2="614.4219"/><line style="stroke:#181818;stroke-width:1.0;" x1="684.5" x2="684.5" y1="614.4219" y2="627.4219"/><line style="stroke:#181818;stroke-width:1.0;" x1="643.5" x2="684.5" y1="627.4219" y2="627.4219"/><polygon fill="#181818" points="653.5,623.4219,643.5,627.4219,653.5,631.4219,649.5,627.4219" style="stroke:#181818;stroke-width:1.0;"/><text fill="#000000" font-family="sans-serif" font-size="13" lengthAdjust="spacing" textLength="118" x="649.5" y="609.356">wrap ETH as WETH</text><polygon fill="#181818" points="936,652.5547,946,656.5547,936,660.5547,940,656.5547" style="stroke:#181818;stroke-width:1.0;"/><line style="stroke:#181818;stroke-width:1.0;" x1="642.5" x2="942" y1="656.5547" y2="656.5547"/><text fill="#000000" font-family="sans-serif" font-size="13" lengthAdjust="spacing" textLength="140" x="649.5" y="651.4888">Swap WETH for ERC20</text><polygon fill="#181818" points="1036.5,681.6875,1046.5,685.6875,1036.5,689.6875,1040.5,685.6875" style="stroke:#181818;stroke-width:1.0;"/><line style="stroke:#181818;stroke-width:1.0;" x1="948" x2="1042.5" y1="685.6875" y2="685.6875"/><text fill="#000000" font-family="sans-serif" font-size="13" lengthAdjust="spacing" textLength="52" x="955" y="680.6216">Transfer</text><polygon fill="#181818" points="653.5,710.8203,643.5,714.8203,653.5,718.8203,649.5,714.8203" style="stroke:#181818;stroke-width:1.0;"/><line style="stroke:#181818;stroke-width:1.0;stroke-dasharray:2.0,2.0;" x1="647.5" x2="1047.5" y1="714.8203" y2="714.8203"/><text fill="#000000" font-family="sans-serif" font-size="13" lengthAdjust="spacing" textLength="172" x="659.5" y="709.7544">amount of ERC20 for WETH</text><polygon fill="#181818" points="1036.5,739.9531,1046.5,743.9531,1036.5,747.9531,1040.5,743.9531" style="stroke:#181818;stroke-width:1.0;"/><line style="stroke:#181818;stroke-width:1.0;" x1="642.5" x2="1042.5" y1="743.9531" y2="743.9531"/><text fill="#000000" font-family="sans-serif" font-size="13" lengthAdjust="spacing" textLength="134" x="649.5" y="738.8872">Burn current balance</text><polygon fill="#181818" points="800.5,772.0859,810.5,776.0859,800.5,780.0859,804.5,776.0859" style="stroke:#181818;stroke-width:1.0;"/><line style="stroke:#181818;stroke-width:1.0;" x1="642.5" x2="806.5" y1="776.0859" y2="776.0859"/><text fill="#000000" font-family="sans-serif" font-size="13" lengthAdjust="spacing" textLength="146" x="649.5" y="771.02">Deposit remaining ETH</text><path d="M817,756.9531 L817,781.9531 L978,781.9531 L978,766.9531 L968,756.9531 L817,756.9531 " fill="#FEFFDD" style="stroke:#181818;stroke-width:0.5;"/><path d="M968,756.9531 L968,766.9531 L978,766.9531 L968,756.9531 " fill="#FEFFDD" style="stroke:#181818;stroke-width:0.5;"/><text fill="#000000" font-family="sans-serif" font-size="13" lengthAdjust="spacing" textLength="140" x="823" y="774.02">as rewards for creator</text><rect fill="#EEEEEE" height="3" style="stroke:#EEEEEE;stroke-width:1.0;" width="1084" x="0" y="807.6523"/><line style="stroke:#000000;stroke-width:1.0;" x1="0" x2="1084" y1="807.6523" y2="807.6523"/><line style="stroke:#000000;stroke-width:1.0;" x1="0" x2="1084" y1="810.6523" y2="810.6523"/><rect fill="#EEEEEE" height="23.1328" style="stroke:#000000;stroke-width:2.0;" width="251" x="416.5" y="797.0859"/><text fill="#000000" font-family="sans-serif" font-size="13" font-weight="bold" lengthAdjust="spacing" textLength="232" x="422.5" y="813.1528">Creator Withdrawal of Rewards</text><polygon fill="#181818" points="800.5,847.3516,810.5,851.3516,800.5,855.3516,804.5,851.3516" style="stroke:#181818;stroke-width:1.0;"/><line style="stroke:#181818;stroke-width:1.0;" x1="33.5" x2="806.5" y1="851.3516" y2="851.3516"/><text fill="#000000" font-family="sans-serif" font-size="13" lengthAdjust="spacing" textLength="65" x="40.5" y="846.2856">withdraw()</text><polygon fill="#181818" points="44.5,876.4844,34.5,880.4844,44.5,884.4844,40.5,880.4844" style="stroke:#181818;stroke-width:1.0;"/><line style="stroke:#181818;stroke-width:1.0;stroke-dasharray:2.0,2.0;" x1="38.5" x2="811.5" y1="880.4844" y2="880.4844"/><text fill="#000000" font-family="sans-serif" font-size="13" lengthAdjust="spacing" textLength="135" x="50.5" y="875.4185">Transfer ETH rewards</text><!--SRC=[bLHDRzim3BthLn0vRK0Bh1jwCP01MzPkbm51rgsNNHXRIGKeaY79DVBlH-eZjjAqm4xw8FtU8_baR8Dri78IQHKOJuilvcYDN01wMA7MqeaUNL2jwj44MDpStDx686-WZlrK9aWNesbRXrUMBd5_7ucECItlB-Ob2MbV9woT3RQrUYD7T9sFYMTtzGU_ZV8Zzdy-hQtLCJtVr6btczN73p4STq8ib_1BXg67Usr7M2v5xXLSVoxIczG_UL9gB1sSsZ-51Zf9JJWeuY8ImAvpqdlOefSTM0EjFMoLmQ1eRtT_JPlGhw2NhfMC9g-AKkX9kiYap9_v2h-OQ-FPD2mTCYIus1PQg5P5q9LCJWos81QTiNoUepBxgG7H4ioH9jp45TRM1v5k9lxlR_57-rpFS3RKQ6TUY9X0poRSm3VPMwz2nlPLIISOF-FaWjQ3rXUgENMpf_YxznLMUX7Gee50LtjPol7GqMITsWuyGdv0wdbk1L5KN58_gl3KEHo9x2mMst8IzE3G-1rntZtyE9KwHvwCWBeTD0lmlLRrYCiSdib-mt7BdSQ37Knu1MjqP3bcf0O-qZfFoeuatx0lEGexWavlfjYLykB5L828vxguf87Cdv8ZpZbTXldAcjl1EPeaFI6DffLlTtZonm7f3PAB6NdUbUYEr7DcpasAFYclwJ6F2JMhB1EgVmN_FTlqwMkpxUGB9_q3]--></g></svg>