<?xml version="1.0" encoding="UTF-8"?>
<svg id="Symbol" xmlns="http://www.w3.org/2000/svg" version="1.1" viewBox="0 0 250.5 250.5">
  <!-- Generator: Adobe Illustrator 29.1.0, SVG Export Plug-In . SVG Version: 2.1.0 Build 142)  -->
  <path d="M125.2,57c37.7,0,68.2,30.6,68.2,68.2s-30.6,68.2-68.2,68.2-68.2-30.6-68.2-68.2,30.6-68.2,68.2-68.2ZM117.1,140c2.9-2.3,5-5.8,6.2-10.5.7-2.9,1.3-5.8,1.8-8.9.2-1.1.3-2,.3-2.7,0-2.4-.6-4.4-1.8-6.1-1.2-1.7-2.8-3-4.9-3.9-2.1-.9-4.4-1.3-7.1-1.3-9.7,0-15.7,4.7-18,14.1-.8,3.4-1.5,6.4-1.9,8.9-.2,1.1-.3,2-.3,2.8,0,3.6,1.3,6.4,3.8,8.3,2.6,1.9,5.9,2.9,10,2.9s8.8-1.1,11.8-3.4ZM101.2,131.3c0-.8,0-1.5.2-2.2.6-3.3,1.2-6.1,1.8-8.4.6-2.3,1.5-4,2.9-5.2,1.4-1.1,3-1.7,4.9-1.7,3.2,0,4.9,1.6,4.9,4.7s0,1.5-.2,2.2c-.4,2.4-1,5.2-1.8,8.4-.6,2.3-1.6,4-2.9,5.2-1.3,1.1-3,1.7-4.9,1.7-3.3,0-4.9-1.6-4.9-4.7ZM134.8,142.9c.3,0,.7-.1,1-.4s.5-.5.6-.9l2.4-11.2h6.9c4.5,0,8-.9,10.6-2.8,2.6-1.9,4.3-4.8,5.2-8.7.2-.9.3-1.8.3-2.7,0-3-1.2-5.2-3.5-6.8-2.3-1.6-5.3-2.4-9.1-2.4h-13.6c-.3,0-.7.1-1,.4-.3.2-.5.5-.6.9l-7.1,33.3c0,.3,0,.6.2.9.2.2.5.4.9.4h7ZM140,123.3l1.9-9.2h6.1c1.4,0,2.4.3,3,.8.6.5.9,1.3.9,2.3s0,1-.2,1.5c-.3,1.5-1.1,2.6-2.2,3.4-1.1.8-2.3,1.2-3.7,1.2h-5.9Z"/>
</svg>