<?xml version="1.0" encoding="UTF-8" standalone="no"?><svg xmlns="http://www.w3.org/2000/svg" xmlns:xlink="http://www.w3.org/1999/xlink" contentStyleType="text/css" height="440px" preserveAspectRatio="none" style="width:1081px;height:440px;background:#FFFFFF;" version="1.1" viewBox="0 0 1081 440" width="1081px" zoomAndPan="magnify"><defs/><g><!--class MINTs--><g id="elem_MINTs"><rect codeLine="2" fill="#F1F1F1" height="129.4844" id="MINTs" rx="2.5" ry="2.5" style="stroke:#181818;stroke-width:0.5;" width="605" x="263.36" y="7"/><ellipse cx="540.61" cy="23" fill="#ADD1B2" rx="11" ry="11" style="stroke:#181818;stroke-width:1.0;"/><path d="M543.5788,28.6406 Q543.0006,28.9375 542.36,29.0781 Q541.7194,29.2344 541.0163,29.2344 Q538.5163,29.2344 537.1881,27.5938 Q535.8756,25.9375 535.8756,22.8125 Q535.8756,19.6875 537.1881,18.0313 Q538.5163,16.375 541.0163,16.375 Q541.7194,16.375 542.36,16.5313 Q543.0163,16.6875 543.5788,16.9844 L543.5788,19.7031 Q542.9538,19.125 542.36,18.8594 Q541.7663,18.5781 541.1413,18.5781 Q539.7975,18.5781 539.11,19.6563 Q538.4225,20.7188 538.4225,22.8125 Q538.4225,24.9063 539.11,25.9844 Q539.7975,27.0469 541.1413,27.0469 Q541.7663,27.0469 542.36,26.7813 Q542.9538,26.5 543.5788,25.9219 L543.5788,28.6406 Z " fill="#000000"/><text fill="#000000" font-family="sans-serif" font-size="14" lengthAdjust="spacing" textLength="42" x="561.11" y="27.8467">MINTs</text><line style="stroke:#181818;stroke-width:0.5;" x1="264.36" x2="867.36" y1="39" y2="39"/><line style="stroke:#181818;stroke-width:0.5;" x1="264.36" x2="867.36" y1="47" y2="47"/><ellipse cx="274.36" cy="60.6484" fill="#84BE84" rx="3" ry="3" style="stroke:#038048;stroke-width:1.0;"/><text fill="#000000" font-family="sans-serif" font-size="14" lengthAdjust="spacing" textLength="497" x="283.36" y="63.9951">collect(mintTokenIds, quantities, 1155Contract, 1155TokenId, mintArgs)</text><ellipse cx="274.36" cy="76.9453" fill="#84BE84" rx="3" ry="3" style="stroke:#038048;stroke-width:1.0;"/><text fill="#000000" font-family="sans-serif" font-size="14" lengthAdjust="spacing" textLength="579" x="283.36" y="80.292">collectPremint(mintTokenIds, quantities, premintConfig, premintSignature, mintArgs)</text><ellipse cx="274.36" cy="93.2422" fill="#84BE84" rx="3" ry="3" style="stroke:#038048;stroke-width:1.0;"/><text fill="#000000" font-family="sans-serif" font-size="14" lengthAdjust="spacing" textLength="274" x="283.36" y="96.5889">redeemBatch(mintTokenIds, quantities)</text><rect fill="#F24D5C" height="6" style="stroke:#C82930;stroke-width:1.0;" width="6" x="271.36" y="106.5391"/><text fill="#000000" font-family="sans-serif" font-size="14" lengthAdjust="spacing" textLength="128" x="283.36" y="112.8857">validateSignature()</text><rect fill="#F24D5C" height="6" style="stroke:#C82930;stroke-width:1.0;" width="6" x="271.36" y="122.8359"/><text fill="#000000" font-family="sans-serif" font-size="14" lengthAdjust="spacing" textLength="91" x="283.36" y="129.1826">setApproval()</text></g><!--class 1155CreatorContract--><g id="elem_1155CreatorContract"><rect codeLine="10" fill="#F1F1F1" height="64.2969" id="1155CreatorContract" rx="2.5" ry="2.5" style="stroke:#181818;stroke-width:0.5;" width="437" x="347.36" y="369"/><ellipse cx="488.61" cy="385" fill="#ADD1B2" rx="11" ry="11" style="stroke:#181818;stroke-width:1.0;"/><path d="M491.5787,390.6406 Q491.0006,390.9375 490.36,391.0781 Q489.7194,391.2344 489.0162,391.2344 Q486.5162,391.2344 485.1881,389.5938 Q483.8756,387.9375 483.8756,384.8125 Q483.8756,381.6875 485.1881,380.0313 Q486.5162,378.375 489.0162,378.375 Q489.7194,378.375 490.36,378.5313 Q491.0162,378.6875 491.5787,378.9844 L491.5787,381.7031 Q490.9537,381.125 490.36,380.8594 Q489.7662,380.5781 489.1412,380.5781 Q487.7975,380.5781 487.11,381.6563 Q486.4225,382.7188 486.4225,384.8125 Q486.4225,386.9063 487.11,387.9844 Q487.7975,389.0469 489.1412,389.0469 Q489.7662,389.0469 490.36,388.7813 Q490.9537,388.5 491.5787,387.9219 L491.5787,390.6406 Z " fill="#000000"/><text fill="#000000" font-family="sans-serif" font-size="14" lengthAdjust="spacing" textLength="146" x="509.11" y="389.8467">1155CreatorContract</text><line style="stroke:#181818;stroke-width:0.5;" x1="348.36" x2="783.36" y1="401" y2="401"/><line style="stroke:#181818;stroke-width:0.5;" x1="348.36" x2="783.36" y1="409" y2="409"/><ellipse cx="358.36" cy="422.6484" fill="#84BE84" rx="3" ry="3" style="stroke:#038048;stroke-width:1.0;"/><text fill="#000000" font-family="sans-serif" font-size="14" lengthAdjust="spacing" textLength="411" x="367.36" y="425.9951">mintWithMINTs(mintTokenIds, quantities, tokenId, mintArgs)</text></g><!--class PremintExecutor--><g id="elem_PremintExecutor"><rect codeLine="14" fill="#F1F1F1" height="64.2969" id="PremintExecutor" rx="2.5" ry="2.5" style="stroke:#181818;stroke-width:0.5;" width="669" x="231.36" y="220"/><ellipse cx="504.61" cy="236" fill="#ADD1B2" rx="11" ry="11" style="stroke:#181818;stroke-width:1.0;"/><path d="M507.5788,241.6406 Q507.0006,241.9375 506.36,242.0781 Q505.7194,242.2344 505.0163,242.2344 Q502.5163,242.2344 501.1881,240.5938 Q499.8756,238.9375 499.8756,235.8125 Q499.8756,232.6875 501.1881,231.0313 Q502.5163,229.375 505.0163,229.375 Q505.7194,229.375 506.36,229.5313 Q507.0163,229.6875 507.5788,229.9844 L507.5788,232.7031 Q506.9538,232.125 506.36,231.8594 Q505.7663,231.5781 505.1413,231.5781 Q503.7975,231.5781 503.11,232.6563 Q502.4225,233.7188 502.4225,235.8125 Q502.4225,237.9063 503.11,238.9844 Q503.7975,240.0469 505.1413,240.0469 Q505.7663,240.0469 506.36,239.7813 Q506.9538,239.5 507.5788,238.9219 L507.5788,241.6406 Z " fill="#000000"/><text fill="#000000" font-family="sans-serif" font-size="14" lengthAdjust="spacing" textLength="114" x="525.11" y="240.8467">PremintExecutor</text><line style="stroke:#181818;stroke-width:0.5;" x1="232.36" x2="899.36" y1="252" y2="252"/><line style="stroke:#181818;stroke-width:0.5;" x1="232.36" x2="899.36" y1="260" y2="260"/><ellipse cx="242.36" cy="273.6484" fill="#84BE84" rx="3" ry="3" style="stroke:#038048;stroke-width:1.0;"/><text fill="#000000" font-family="sans-serif" font-size="14" lengthAdjust="spacing" textLength="643" x="251.36" y="276.9951">premintWithMINTs(premintConfig, premintSignature, mintTokenIds, quantities, mintArgs): void</text></g><!--link 1155CreatorContract to MINTs--><g id="link_1155CreatorContract_MINTs"><path codeLine="18" d="M745.47,364.93 C823.69,345.66 902.82,319.3 925.86,288 C978.77,216.13 961.6,95.81 875.11,91.14 " fill="none" id="1155CreatorContract-to-MINTs" style="stroke:#181818;stroke-width:1.0;"/><polygon fill="#181818" points="869.86,91,878.7421,95.2554,874.858,91.1428,878.9706,87.2587,869.86,91" style="stroke:#181818;stroke-width:1.0;"/><text fill="#000000" font-family="sans-serif" font-size="13" lengthAdjust="spacing" textLength="119" x="954.86" y="256.5669">calls redeemBatch</text></g><!--link MINTs to 1155CreatorContract--><g id="link_MINTs_1155CreatorContract"><path codeLine="19" d="M254.97,113.01 C119.45,144.22 6,197.77 77.86,288 C111.11,329.75 224.75,357.22 334.01,374.5 " fill="none" id="MINTs-to-1155CreatorContract" style="stroke:#181818;stroke-width:1.0;"/><polygon fill="#181818" points="339.21,375.31,330.9345,369.97,334.2698,374.539,329.7008,377.8743,339.21,375.31" style="stroke:#181818;stroke-width:1.0;"/><text fill="#000000" font-family="sans-serif" font-size="13" lengthAdjust="spacing" textLength="126" x="78.86" y="256.5669">calls mintWithMINTs</text></g><!--link MINTs to PremintExecutor--><g id="link_MINTs_PremintExecutor"><path codeLine="20" d="M565.86,139.16 C565.86,163.21 565.86,189.57 565.86,210.65 " fill="none" id="MINTs-to-PremintExecutor" style="stroke:#181818;stroke-width:1.0;"/><polygon fill="#181818" points="565.86,215.89,569.86,206.89,565.86,210.89,561.86,206.89,565.86,215.89" style="stroke:#181818;stroke-width:1.0;"/><text fill="#000000" font-family="sans-serif" font-size="13" lengthAdjust="spacing" textLength="146" x="566.86" y="182.0669">calls premintWithTicket</text></g><!--link PremintExecutor to 1155CreatorContract--><g id="link_PremintExecutor_1155CreatorContract"><path codeLine="21" d="M565.86,288.21 C565.86,309.68 565.86,337.19 565.86,359.55 " fill="none" id="PremintExecutor-to-1155CreatorContract" style="stroke:#181818;stroke-width:1.0;"/><polygon fill="#181818" points="565.86,364.82,569.86,355.82,565.86,359.82,561.86,355.82,565.86,364.82" style="stroke:#181818;stroke-width:1.0;"/><text fill="#000000" font-family="sans-serif" font-size="13" lengthAdjust="spacing" textLength="125" x="566.86" y="331.0669">calls mintWithTicket</text></g><!--SRC=[ZP8nJyCm48Nt_8eRYsY63bqy81N4qA48YKZCbdEaLbqxs9SA2V7ViUF492IaP8fzTz-xzsIXk7Dms3yL3ZupyDyj2ACK2bgTfQR2d53lIxU6zuPhaYJH_syss-s3qMIve7Zg-jOGXdQsSZTZsBF5K5bWrh73OzzabOulijAS6ejJiiKIyNpFIHp_nCRU72vSoP8J9joghpYaNLrRuplytLUMYJQHrg55JiRsHbC-GUnLqh5DRS4HJJD9_2wFnmyKZTT8xCxs3_vViSph9ra65oFB83vZYx5Ui93YX0HvVXSV16CnOWQ2A-M6WMVnnOJMHUGXBDTYUyZ8tG3pAn361acC2PD2Tdts-gRpMtRJtm00]--></g></svg>