<?xml version="1.0" encoding="UTF-8" standalone="no"?><svg xmlns="http://www.w3.org/2000/svg" xmlns:xlink="http://www.w3.org/1999/xlink" contentStyleType="text/css" height="596px" preserveAspectRatio="none" style="width:700px;height:596px;background:#FFFFFF;" version="1.1" viewBox="0 0 700 596" width="700px" zoomAndPan="magnify"><defs/><g><rect fill="#FFFFFF" height="29.1328" style="stroke:#181818;stroke-width:1.0;" width="10" x="128.5" y="196.8281"/><rect fill="#FFFFFF" height="361.5938" style="stroke:#181818;stroke-width:1.0;" width="10" x="205.5" y="136.5625"/><rect fill="#FFFFFF" height="118.5313" style="stroke:#181818;stroke-width:1.0;" width="10" x="524.5" y="301.3594"/><rect fill="none" height="46.2656" style="stroke:#000000;stroke-width:1.5;" width="241" x="10" y="98.2969"/><rect fill="none" height="75.3984" style="stroke:#000000;stroke-width:1.5;" width="241" x="10" y="158.5625"/><rect fill="none" height="90.5313" style="stroke:#000000;stroke-width:1.5;" width="391" x="170" y="247.9609"/><rect fill="none" height="75.3984" style="stroke:#000000;stroke-width:1.5;" width="524" x="170" y="352.4922"/><line style="stroke:#181818;stroke-width:0.5;stroke-dasharray:5.0,5.0;" x1="53" x2="53" y1="81.2969" y2="516.1563"/><line style="stroke:#181818;stroke-width:0.5;stroke-dasharray:5.0,5.0;" x1="133" x2="133" y1="81.2969" y2="516.1563"/><line style="stroke:#181818;stroke-width:0.5;stroke-dasharray:5.0,5.0;" x1="210" x2="210" y1="81.2969" y2="516.1563"/><line style="stroke:#181818;stroke-width:0.5;stroke-dasharray:5.0,5.0;" x1="529" x2="529" y1="81.2969" y2="516.1563"/><line style="stroke:#181818;stroke-width:0.5;stroke-dasharray:5.0,5.0;" x1="622" x2="622" y1="81.2969" y2="516.1563"/><text fill="#000000" font-family="sans-serif" font-size="14" lengthAdjust="spacing" textLength="61" x="20" y="77.9951">Collector</text><ellipse cx="53.5" cy="13.5" fill="#E2E2F0" rx="8" ry="8" style="stroke:#181818;stroke-width:0.5;"/><path d="M53.5,21.5 L53.5,48.5 M40.5,29.5 L66.5,29.5 M53.5,48.5 L40.5,63.5 M53.5,48.5 L66.5,63.5 " fill="none" style="stroke:#181818;stroke-width:0.5;"/><text fill="#000000" font-family="sans-serif" font-size="14" lengthAdjust="spacing" textLength="61" x="20" y="528.1514">Collector</text><ellipse cx="53.5" cy="539.9531" fill="#E2E2F0" rx="8" ry="8" style="stroke:#181818;stroke-width:0.5;"/><path d="M53.5,547.9531 L53.5,574.9531 M40.5,555.9531 L66.5,555.9531 M53.5,574.9531 L40.5,589.9531 M53.5,574.9531 L66.5,589.9531 " fill="none" style="stroke:#181818;stroke-width:0.5;"/><text fill="#000000" font-family="sans-serif" font-size="14" lengthAdjust="spacing" textLength="67" x="97" y="77.9951">Preminter</text><ellipse cx="133.5" cy="49" fill="#E2E2F0" rx="12" ry="12" style="stroke:#181818;stroke-width:0.5;"/><line style="stroke:#181818;stroke-width:0.5;" x1="121.5" x2="145.5" y1="63" y2="63"/><text fill="#000000" font-family="sans-serif" font-size="14" lengthAdjust="spacing" textLength="67" x="97" y="528.1514">Preminter</text><ellipse cx="133.5" cy="547.4531" fill="#E2E2F0" rx="12" ry="12" style="stroke:#181818;stroke-width:0.5;"/><line style="stroke:#181818;stroke-width:0.5;" x1="121.5" x2="145.5" y1="561.4531" y2="561.4531"/><text fill="#000000" font-family="sans-serif" font-size="14" lengthAdjust="spacing" textLength="55" x="180" y="77.9951">1155Nft</text><ellipse cx="210.5" cy="49" fill="#E2E2F0" rx="12" ry="12" style="stroke:#181818;stroke-width:0.5;"/><line style="stroke:#181818;stroke-width:0.5;" x1="198.5" x2="222.5" y1="63" y2="63"/><text fill="#000000" font-family="sans-serif" font-size="14" lengthAdjust="spacing" textLength="55" x="180" y="528.1514">1155Nft</text><ellipse cx="210.5" cy="547.4531" fill="#E2E2F0" rx="12" ry="12" style="stroke:#181818;stroke-width:0.5;"/><line style="stroke:#181818;stroke-width:0.5;" x1="198.5" x2="222.5" y1="561.4531" y2="561.4531"/><text fill="#000000" font-family="sans-serif" font-size="14" lengthAdjust="spacing" textLength="37" x="508" y="77.9951">Mints</text><ellipse cx="529.5" cy="49" fill="#E2E2F0" rx="12" ry="12" style="stroke:#181818;stroke-width:0.5;"/><line style="stroke:#181818;stroke-width:0.5;" x1="517.5" x2="541.5" y1="63" y2="63"/><text fill="#000000" font-family="sans-serif" font-size="14" lengthAdjust="spacing" textLength="37" x="508" y="528.1514">Mints</text><ellipse cx="529.5" cy="547.4531" fill="#E2E2F0" rx="12" ry="12" style="stroke:#181818;stroke-width:0.5;"/><line style="stroke:#181818;stroke-width:0.5;" x1="517.5" x2="541.5" y1="561.4531" y2="561.4531"/><text fill="#000000" font-family="sans-serif" font-size="14" lengthAdjust="spacing" textLength="117" x="561" y="77.9951">ProtocolRewards</text><ellipse cx="622.5" cy="49" fill="#E2E2F0" rx="12" ry="12" style="stroke:#181818;stroke-width:0.5;"/><line style="stroke:#181818;stroke-width:0.5;" x1="610.5" x2="634.5" y1="63" y2="63"/><text fill="#000000" font-family="sans-serif" font-size="14" lengthAdjust="spacing" textLength="117" x="561" y="528.1514">ProtocolRewards</text><ellipse cx="622.5" cy="547.4531" fill="#E2E2F0" rx="12" ry="12" style="stroke:#181818;stroke-width:0.5;"/><line style="stroke:#181818;stroke-width:0.5;" x1="610.5" x2="634.5" y1="561.4531" y2="561.4531"/><rect fill="#FFFFFF" height="29.1328" style="stroke:#181818;stroke-width:1.0;" width="10" x="128.5" y="196.8281"/><rect fill="#FFFFFF" height="361.5938" style="stroke:#181818;stroke-width:1.0;" width="10" x="205.5" y="136.5625"/><rect fill="#FFFFFF" height="118.5313" style="stroke:#181818;stroke-width:1.0;" width="10" x="524.5" y="301.3594"/><path d="M10,98.2969 L145,98.2969 L145,105.4297 L135,115.4297 L10,115.4297 L10,98.2969 " fill="#EEEEEE" style="stroke:#000000;stroke-width:1.5;"/><rect fill="none" height="46.2656" style="stroke:#000000;stroke-width:1.5;" width="241" x="10" y="98.2969"/><text fill="#000000" font-family="sans-serif" font-size="13" font-weight="bold" lengthAdjust="spacing" textLength="90" x="25" y="111.3638">non-premint</text><polygon fill="#181818" points="193.5,132.5625,203.5,136.5625,193.5,140.5625,197.5,136.5625" style="stroke:#181818;stroke-width:1.0;"/><line style="stroke:#181818;stroke-width:1.0;" x1="53.5" x2="199.5" y1="136.5625" y2="136.5625"/><text fill="#000000" font-family="sans-serif" font-size="13" lengthAdjust="spacing" textLength="29" x="60.5" y="131.4966">mint</text><path d="M10,158.5625 L113,158.5625 L113,165.6953 L103,175.6953 L10,175.6953 L10,158.5625 " fill="#EEEEEE" style="stroke:#000000;stroke-width:1.5;"/><rect fill="none" height="75.3984" style="stroke:#000000;stroke-width:1.5;" width="241" x="10" y="158.5625"/><text fill="#000000" font-family="sans-serif" font-size="13" font-weight="bold" lengthAdjust="spacing" textLength="58" x="25" y="171.6294">premint</text><polygon fill="#181818" points="116.5,192.8281,126.5,196.8281,116.5,200.8281,120.5,196.8281" style="stroke:#181818;stroke-width:1.0;"/><line style="stroke:#181818;stroke-width:1.0;" x1="53.5" x2="122.5" y1="196.8281" y2="196.8281"/><text fill="#000000" font-family="sans-serif" font-size="13" lengthAdjust="spacing" textLength="50" x="60.5" y="191.7622">premint</text><polygon fill="#181818" points="193.5,221.9609,203.5,225.9609,193.5,229.9609,197.5,225.9609" style="stroke:#181818;stroke-width:1.0;"/><line style="stroke:#181818;stroke-width:1.0;" x1="133.5" x2="199.5" y1="225.9609" y2="225.9609"/><text fill="#000000" font-family="sans-serif" font-size="13" lengthAdjust="spacing" textLength="29" x="140.5" y="220.895">mint</text><path d="M170,247.9609 L411,247.9609 L411,255.0938 L401,265.0938 L170,265.0938 L170,247.9609 " fill="#EEEEEE" style="stroke:#000000;stroke-width:1.5;"/><rect fill="none" height="90.5313" style="stroke:#000000;stroke-width:1.5;" width="391" x="170" y="247.9609"/><text fill="#000000" font-family="sans-serif" font-size="13" font-weight="bold" lengthAdjust="spacing" textLength="196" x="185" y="261.0278">mint mintToken(s) to 1155</text><polygon fill="#181818" points="512.5,297.3594,522.5,301.3594,512.5,305.3594,516.5,301.3594" style="stroke:#181818;stroke-width:1.0;"/><line style="stroke:#181818;stroke-width:1.0;" x1="215.5" x2="518.5" y1="301.3594" y2="301.3594"/><text fill="#000000" font-family="sans-serif" font-size="13" lengthAdjust="spacing" textLength="82" x="222.5" y="281.1606">mintWithEth(</text><text fill="#000000" font-family="sans-serif" font-size="13" lengthAdjust="spacing" textLength="175" x="222.5" y="296.2935">quantity, recipient:1155Nft)</text><polygon fill="#181818" points="226.5,326.4922,216.5,330.4922,226.5,334.4922,222.5,330.4922" style="stroke:#181818;stroke-width:1.0;"/><line style="stroke:#181818;stroke-width:1.0;stroke-dasharray:2.0,2.0;" x1="220.5" x2="523.5" y1="330.4922" y2="330.4922"/><text fill="#000000" font-family="sans-serif" font-size="13" lengthAdjust="spacing" textLength="188" x="232.5" y="325.4263">mints (mintTokenId, quantity)</text><path d="M170,352.4922 L558,352.4922 L558,359.625 L548,369.625 L170,369.625 L170,352.4922 " fill="#EEEEEE" style="stroke:#000000;stroke-width:1.5;"/><rect fill="none" height="75.3984" style="stroke:#000000;stroke-width:1.5;" width="524" x="170" y="352.4922"/><text fill="#000000" font-family="sans-serif" font-size="13" font-weight="bold" lengthAdjust="spacing" textLength="343" x="185" y="365.5591">distribute rewards for token (same as before)</text><polygon fill="#181818" points="512.5,386.7578,522.5,390.7578,512.5,394.7578,516.5,390.7578" style="stroke:#181818;stroke-width:1.0;"/><line style="stroke:#181818;stroke-width:1.0;" x1="215.5" x2="518.5" y1="390.7578" y2="390.7578"/><text fill="#000000" font-family="sans-serif" font-size="13" lengthAdjust="spacing" textLength="285" x="222.5" y="385.6919">redeem(tokenId, quantity, recipient:1155Nft)</text><polygon fill="#181818" points="610.5,415.8906,620.5,419.8906,610.5,423.8906,614.5,419.8906" style="stroke:#181818;stroke-width:1.0;"/><line style="stroke:#181818;stroke-width:1.0;" x1="215.5" x2="616.5" y1="419.8906" y2="419.8906"/><text fill="#000000" font-family="sans-serif" font-size="13" lengthAdjust="spacing" textLength="100" x="222.5" y="414.8247">depositRewards</text><line style="stroke:#181818;stroke-width:1.0;" x1="215.5" x2="257.5" y1="456.0234" y2="456.0234"/><line style="stroke:#181818;stroke-width:1.0;" x1="257.5" x2="257.5" y1="456.0234" y2="469.0234"/><line style="stroke:#181818;stroke-width:1.0;" x1="216.5" x2="257.5" y1="469.0234" y2="469.0234"/><polygon fill="#181818" points="226.5,465.0234,216.5,469.0234,226.5,473.0234,222.5,469.0234" style="stroke:#181818;stroke-width:1.0;"/><text fill="#000000" font-family="sans-serif" font-size="13" lengthAdjust="spacing" textLength="36" x="222.5" y="450.9575">_mint</text><polygon fill="#181818" points="64.5,494.1563,54.5,498.1563,64.5,502.1563,60.5,498.1563" style="stroke:#181818;stroke-width:1.0;"/><line style="stroke:#181818;stroke-width:1.0;stroke-dasharray:2.0,2.0;" x1="58.5" x2="209.5" y1="498.1563" y2="498.1563"/><text fill="#000000" font-family="sans-serif" font-size="13" lengthAdjust="spacing" textLength="128" x="70.5" y="493.0903">minted 1155 tokens</text><!--SRC=[TPAnRiCW48Ptdk96BCL3XYmUkbGTEhIggafP8bN4N1fK6rmuj-hR5uF1r78M6pZkkv__JhHaBDoRhiDfnL2JebzuiTWhJPWFzll3uVb2QVlaWswvRCYqfdl57s6bO-p3cd40RNGzH0w3fGJKTudMm1mKBQblGLYKaGbp0v4LDiMDp5dqmxBUgYnn8wUeFfs4pvlvHCrT1MG2nEVEh0aR_8ZGewBh0rtvIN-D8XYq0ukj6fItgvbpgb9iD1FY7-grIWSy2tYKEqZOgjGfbIEhpgF7sTW6k7YZQ4e2xaIF81oSqHzYjQdTeaJiEQtBt51V05RzRxofWt6AqZpySpbDZcG58R_tFRGbHtmeDpsQWJ9SZWzpm0focfq_]--></g></svg>