<?xml version="1.0" encoding="UTF-8" standalone="no"?><svg xmlns="http://www.w3.org/2000/svg" xmlns:xlink="http://www.w3.org/1999/xlink" contentStyleType="text/css" height="653px" preserveAspectRatio="none" style="width:1446px;height:653px;background:#FFFFFF;" version="1.1" viewBox="0 0 1446 653" width="1446px" zoomAndPan="magnify"><defs/><g><rect fill="#FFFFFF" height="161.9297" style="stroke:#181818;stroke-width:1.0;" width="10" x="259.5" y="142.6953"/><rect fill="#FFFFFF" height="191.9297" style="stroke:#181818;stroke-width:1.0;" width="10" x="827.5" y="333.7578"/><rect fill="#FFFFFF" height="29.1328" style="stroke:#181818;stroke-width:1.0;" width="10" x="1002.5" y="387.0234"/><rect fill="#FFFFFF" height="138.6641" style="stroke:#181818;stroke-width:1.0;" width="10" x="1138.5" y="416.1563"/><rect fill="none" height="75.3984" style="stroke:#000000;stroke-width:1.5;" width="471" x="733" y="348.7578"/><line style="stroke:#181818;stroke-width:0.5;stroke-dasharray:5.0,5.0;" x1="38" x2="38" y1="81.2969" y2="572.8203"/><line style="stroke:#181818;stroke-width:0.5;stroke-dasharray:5.0,5.0;" x1="264.5" x2="264.5" y1="81.2969" y2="572.8203"/><line style="stroke:#181818;stroke-width:0.5;stroke-dasharray:5.0,5.0;" x1="469" x2="469" y1="81.2969" y2="572.8203"/><line style="stroke:#181818;stroke-width:0.5;stroke-dasharray:5.0,5.0;" x1="549" x2="549" y1="81.2969" y2="572.8203"/><line style="stroke:#181818;stroke-width:0.5;stroke-dasharray:5.0,5.0;" x1="832" x2="832" y1="81.2969" y2="572.8203"/><line style="stroke:#181818;stroke-width:0.5;stroke-dasharray:5.0,5.0;" x1="1007" x2="1007" y1="81.2969" y2="572.8203"/><line style="stroke:#181818;stroke-width:0.5;stroke-dasharray:5.0,5.0;" x1="1143" x2="1143" y1="81.2969" y2="572.8203"/><line style="stroke:#181818;stroke-width:0.5;stroke-dasharray:5.0,5.0;" x1="1370.5" x2="1370.5" y1="81.2969" y2="572.8203"/><text fill="#000000" font-family="sans-serif" font-size="14" lengthAdjust="spacing" textLength="61" x="5" y="77.9951">Collector</text><ellipse cx="38.5" cy="13.5" fill="#E2E2F0" rx="8" ry="8" style="stroke:#181818;stroke-width:0.5;"/><path d="M38.5,21.5 L38.5,48.5 M25.5,29.5 L51.5,29.5 M38.5,48.5 L25.5,63.5 M38.5,48.5 L51.5,63.5 " fill="none" style="stroke:#181818;stroke-width:0.5;"/><text fill="#000000" font-family="sans-serif" font-size="14" lengthAdjust="spacing" textLength="61" x="5" y="584.8154">Collector</text><ellipse cx="38.5" cy="596.6172" fill="#E2E2F0" rx="8" ry="8" style="stroke:#181818;stroke-width:0.5;"/><path d="M38.5,604.6172 L38.5,631.6172 M25.5,612.6172 L51.5,612.6172 M38.5,631.6172 L25.5,646.6172 M38.5,631.6172 L51.5,646.6172 " fill="none" style="stroke:#181818;stroke-width:0.5;"/><text fill="#000000" font-family="sans-serif" font-size="14" lengthAdjust="spacing" textLength="60" x="231.5" y="77.9951">CollectUI</text><ellipse cx="264.5" cy="49" fill="#E2E2F0" rx="12" ry="12" style="stroke:#181818;stroke-width:0.5;"/><line style="stroke:#181818;stroke-width:0.5;" x1="252.5" x2="276.5" y1="63" y2="63"/><text fill="#000000" font-family="sans-serif" font-size="14" lengthAdjust="spacing" textLength="60" x="231.5" y="584.8154">CollectUI</text><ellipse cx="264.5" cy="604.1172" fill="#E2E2F0" rx="12" ry="12" style="stroke:#181818;stroke-width:0.5;"/><line style="stroke:#181818;stroke-width:0.5;" x1="252.5" x2="276.5" y1="618.1172" y2="618.1172"/><text fill="#000000" font-family="sans-serif" font-size="14" lengthAdjust="spacing" textLength="41" x="446" y="77.9951">Wallet</text><ellipse cx="469.5" cy="49" fill="#E2E2F0" rx="12" ry="12" style="stroke:#181818;stroke-width:0.5;"/><line style="stroke:#181818;stroke-width:0.5;" x1="457.5" x2="481.5" y1="63" y2="63"/><text fill="#000000" font-family="sans-serif" font-size="14" lengthAdjust="spacing" textLength="41" x="446" y="584.8154">Wallet</text><ellipse cx="469.5" cy="604.1172" fill="#E2E2F0" rx="12" ry="12" style="stroke:#181818;stroke-width:0.5;"/><line style="stroke:#181818;stroke-width:0.5;" x1="457.5" x2="481.5" y1="618.1172" y2="618.1172"/><text fill="#000000" font-family="sans-serif" font-size="14" lengthAdjust="spacing" textLength="87" x="503" y="77.9951">SignatureAPI</text><path d="M529,37 L529,61 M529,49 L546,49 " fill="none" style="stroke:#181818;stroke-width:0.5;"/><ellipse cx="558" cy="49" fill="#E2E2F0" rx="12" ry="12" style="stroke:#181818;stroke-width:0.5;"/><text fill="#000000" font-family="sans-serif" font-size="14" lengthAdjust="spacing" textLength="87" x="503" y="584.8154">SignatureAPI</text><path d="M529,592.1172 L529,616.1172 M529,604.1172 L546,604.1172 " fill="none" style="stroke:#181818;stroke-width:0.5;"/><ellipse cx="558" cy="604.1172" fill="#E2E2F0" rx="12" ry="12" style="stroke:#181818;stroke-width:0.5;"/><text fill="#000000" font-family="sans-serif" font-size="14" lengthAdjust="spacing" textLength="173" x="743" y="77.9951">PremintExecutorContract</text><ellipse cx="832.5" cy="49" fill="#E2E2F0" rx="12" ry="12" style="stroke:#181818;stroke-width:0.5;"/><line style="stroke:#181818;stroke-width:0.5;" x1="820.5" x2="844.5" y1="63" y2="63"/><text fill="#000000" font-family="sans-serif" font-size="14" lengthAdjust="spacing" textLength="173" x="743" y="584.8154">PremintExecutorContract</text><ellipse cx="832.5" cy="604.1172" fill="#E2E2F0" rx="12" ry="12" style="stroke:#181818;stroke-width:0.5;"/><line style="stroke:#181818;stroke-width:0.5;" x1="820.5" x2="844.5" y1="618.1172" y2="618.1172"/><text fill="#000000" font-family="sans-serif" font-size="14" lengthAdjust="spacing" textLength="145" x="932" y="77.9951">1155FactoryContract</text><ellipse cx="1007.5" cy="49" fill="#E2E2F0" rx="12" ry="12" style="stroke:#181818;stroke-width:0.5;"/><line style="stroke:#181818;stroke-width:0.5;" x1="995.5" x2="1019.5" y1="63" y2="63"/><text fill="#000000" font-family="sans-serif" font-size="14" lengthAdjust="spacing" textLength="145" x="932" y="584.8154">1155FactoryContract</text><ellipse cx="1007.5" cy="604.1172" fill="#E2E2F0" rx="12" ry="12" style="stroke:#181818;stroke-width:0.5;"/><line style="stroke:#181818;stroke-width:0.5;" x1="995.5" x2="1019.5" y1="618.1172" y2="618.1172"/><text fill="#000000" font-family="sans-serif" font-size="14" lengthAdjust="spacing" textLength="95" x="1093" y="77.9951">1155Contract</text><ellipse cx="1143.5" cy="49" fill="#E2E2F0" rx="12" ry="12" style="stroke:#181818;stroke-width:0.5;"/><line style="stroke:#181818;stroke-width:0.5;" x1="1131.5" x2="1155.5" y1="63" y2="63"/><text fill="#000000" font-family="sans-serif" font-size="14" lengthAdjust="spacing" textLength="95" x="1093" y="584.8154">1155Contract</text><ellipse cx="1143.5" cy="604.1172" fill="#E2E2F0" rx="12" ry="12" style="stroke:#181818;stroke-width:0.5;"/><line style="stroke:#181818;stroke-width:0.5;" x1="1131.5" x2="1155.5" y1="618.1172" y2="618.1172"/><rect fill="#E2E2F0" height="30.2969" rx="2.5" ry="2.5" style="stroke:#181818;stroke-width:0.5;" width="140" x="1300.5" y="50"/><text fill="#000000" font-family="sans-serif" font-size="14" lengthAdjust="spacing" textLength="126" x="1307.5" y="69.9951">PreminterContract</text><rect fill="#E2E2F0" height="30.2969" rx="2.5" ry="2.5" style="stroke:#181818;stroke-width:0.5;" width="140" x="1300.5" y="571.8203"/><text fill="#000000" font-family="sans-serif" font-size="14" lengthAdjust="spacing" textLength="126" x="1307.5" y="591.8154">PreminterContract</text><rect fill="#FFFFFF" height="161.9297" style="stroke:#181818;stroke-width:1.0;" width="10" x="259.5" y="142.6953"/><rect fill="#FFFFFF" height="191.9297" style="stroke:#181818;stroke-width:1.0;" width="10" x="827.5" y="333.7578"/><rect fill="#FFFFFF" height="29.1328" style="stroke:#181818;stroke-width:1.0;" width="10" x="1002.5" y="387.0234"/><rect fill="#FFFFFF" height="138.6641" style="stroke:#181818;stroke-width:1.0;" width="10" x="1138.5" y="416.1563"/><polygon fill="#181818" points="247.5,138.6953,257.5,142.6953,247.5,146.6953,251.5,142.6953" style="stroke:#181818;stroke-width:1.0;"/><line style="stroke:#181818;stroke-width:1.0;" x1="38.5" x2="253.5" y1="142.6953" y2="142.6953"/><text fill="#000000" font-family="sans-serif" font-size="13" lengthAdjust="spacing" textLength="98" x="45.5" y="107.3638">Open, param is</text><text fill="#000000" font-family="sans-serif" font-size="13" lengthAdjust="spacing" textLength="202" x="45.5" y="122.4966">deterministic collection address</text><text fill="#000000" font-family="sans-serif" font-size="13" lengthAdjust="spacing" textLength="74" x="45.5" y="137.6294">+ token uid</text><polygon fill="#181818" points="537.5,182.9609,547.5,186.9609,537.5,190.9609,541.5,186.9609" style="stroke:#181818;stroke-width:1.0;"/><line style="stroke:#181818;stroke-width:1.0;" x1="269.5" x2="543.5" y1="186.9609" y2="186.9609"/><text fill="#000000" font-family="sans-serif" font-size="13" lengthAdjust="spacing" textLength="58" x="276.5" y="166.7622">Fetch by:</text><text fill="#000000" font-family="sans-serif" font-size="13" lengthAdjust="spacing" textLength="196" x="276.5" y="181.895">collection address, premint uid</text><polygon fill="#181818" points="280.5,242.3594,270.5,246.3594,280.5,250.3594,276.5,246.3594" style="stroke:#181818;stroke-width:1.0;"/><line style="stroke:#181818;stroke-width:1.0;stroke-dasharray:2.0,2.0;" x1="274.5" x2="548.5" y1="246.3594" y2="246.3594"/><text fill="#000000" font-family="sans-serif" font-size="13" lengthAdjust="spacing" textLength="166" x="286.5" y="211.0278">contract creation params,</text><text fill="#000000" font-family="sans-serif" font-size="13" lengthAdjust="spacing" textLength="149" x="286.5" y="226.1606">token creation params,</text><text fill="#000000" font-family="sans-serif" font-size="13" lengthAdjust="spacing" textLength="60" x="286.5" y="241.2935">signature</text><polygon fill="#181818" points="247.5,271.4922,257.5,275.4922,247.5,279.4922,251.5,275.4922" style="stroke:#181818;stroke-width:1.0;"/><line style="stroke:#181818;stroke-width:1.0;" x1="38.5" x2="253.5" y1="275.4922" y2="275.4922"/><text fill="#000000" font-family="sans-serif" font-size="13" lengthAdjust="spacing" textLength="29" x="45.5" y="270.4263">mint</text><polygon fill="#181818" points="457.5,300.625,467.5,304.625,457.5,308.625,461.5,304.625" style="stroke:#181818;stroke-width:1.0;"/><line style="stroke:#181818;stroke-width:1.0;" x1="264.5" x2="463.5" y1="304.625" y2="304.625"/><text fill="#000000" font-family="sans-serif" font-size="13" lengthAdjust="spacing" textLength="176" x="271.5" y="299.5591">Submit premint transaction</text><polygon fill="#181818" points="815.5,329.7578,825.5,333.7578,815.5,337.7578,819.5,333.7578" style="stroke:#181818;stroke-width:1.0;"/><line style="stroke:#181818;stroke-width:1.0;" x1="469.5" x2="821.5" y1="333.7578" y2="333.7578"/><text fill="#000000" font-family="sans-serif" font-size="13" lengthAdjust="spacing" textLength="339" x="476.5" y="328.6919">premint(collectionConfig, tokenConfig, uid, signature)</text><path d="M733,348.7578 L935,348.7578 L935,355.8906 L925,365.8906 L733,365.8906 L733,348.7578 " fill="#EEEEEE" style="stroke:#000000;stroke-width:1.5;"/><rect fill="none" height="75.3984" style="stroke:#000000;stroke-width:1.5;" width="471" x="733" y="348.7578"/><text fill="#000000" font-family="sans-serif" font-size="13" font-weight="bold" lengthAdjust="spacing" textLength="157" x="748" y="361.8247">contract doesnt exist</text><polygon fill="#181818" points="990.5,383.0234,1000.5,387.0234,990.5,391.0234,994.5,387.0234" style="stroke:#181818;stroke-width:1.0;"/><line style="stroke:#181818;stroke-width:1.0;" x1="837.5" x2="996.5" y1="387.0234" y2="387.0234"/><text fill="#000000" font-family="sans-serif" font-size="13" lengthAdjust="spacing" textLength="98" x="844.5" y="381.9575">create contract</text><polygon fill="#181818" points="1126.5,412.1563,1136.5,416.1563,1126.5,420.1563,1130.5,416.1563" style="stroke:#181818;stroke-width:1.0;"/><line style="stroke:#181818;stroke-width:1.0;" x1="1007.5" x2="1132.5" y1="416.1563" y2="416.1563"/><text fill="#000000" font-family="sans-serif" font-size="13" lengthAdjust="spacing" textLength="41" x="1014.5" y="411.0903">create</text><polygon fill="#181818" points="1159.5,463.4219,1149.5,467.4219,1159.5,471.4219,1155.5,467.4219" style="stroke:#181818;stroke-width:1.0;"/><line style="stroke:#181818;stroke-width:1.0;" x1="1153.5" x2="1369.5" y1="467.4219" y2="467.4219"/><text fill="#000000" font-family="sans-serif" font-size="13" lengthAdjust="spacing" textLength="110" x="1165.5" y="447.2231">create new token</text><text fill="#000000" font-family="sans-serif" font-size="13" lengthAdjust="spacing" textLength="89" x="1165.5" y="462.356">with signature</text><polygon fill="#181818" points="1159.5,492.5547,1149.5,496.5547,1159.5,500.5547,1155.5,496.5547" style="stroke:#181818;stroke-width:1.0;"/><line style="stroke:#181818;stroke-width:1.0;" x1="1153.5" x2="1369.5" y1="496.5547" y2="496.5547"/><text fill="#000000" font-family="sans-serif" font-size="13" lengthAdjust="spacing" textLength="198" x="1165.5" y="491.4888">set new token sale parameters</text><polygon fill="#181818" points="1159.5,521.6875,1149.5,525.6875,1159.5,529.6875,1155.5,525.6875" style="stroke:#181818;stroke-width:1.0;"/><line style="stroke:#181818;stroke-width:1.0;" x1="1153.5" x2="1369.5" y1="525.6875" y2="525.6875"/><text fill="#000000" font-family="sans-serif" font-size="13" lengthAdjust="spacing" textLength="151" x="1165.5" y="520.6216">mint tokens to collector</text><polygon fill="#181818" points="49.5,550.8203,39.5,554.8203,49.5,558.8203,45.5,554.8203" style="stroke:#181818;stroke-width:1.0;"/><line style="stroke:#181818;stroke-width:1.0;stroke-dasharray:2.0,2.0;" x1="43.5" x2="1142.5" y1="554.8203" y2="554.8203"/><text fill="#000000" font-family="sans-serif" font-size="13" lengthAdjust="spacing" textLength="90" x="55.5" y="549.7544">Minted tokens</text><!--SRC=[ZLInRi8m4Dtz5JUsAWmCB1ag8THM35MHKDKbYx6lO1NEo7OA-VlQCNO292fI9CBT-RrtxyxXmca3SxtRONXZI4wvEWK-5v0YNzn775lhYYGtDQpKXhYh3CwMYrIpDBXNv5vEA2eFDjVa31SkfIUJwVIL1vgwBvLZBCk1yNChfO2F0z883jpmFIWB9KbqQ3obiau94B5IQG8kfK5hIte2ft-Ge5AIpNpkbpji8LdRfsVgjbJ0ApgnXNLTb7GBx5N4NXlWxa4ONseMvwv06EGDHAFVZagAocxZDi4DEn6eByN7-HImgjPxvR8ypqsMDzgPH7xhG3mN40QcLoIiXzO6d_jMcr7qDltnJemWQtzacMneBTYRqTMXTKXgj5uodlmu6O1_OEXiqDkpJaLq4pDcWv65z2rWAEY99u9hvAQ-O-GGv4L1sp6IPEpS4vh_o83m63qkwQZSjdNt7Wphnve1mF8TnXKBTyRU0n0NA9os_YTTB_-Hw6xIq72xKDqxeKq1xu5Odg7PbPiPuGy0]--></g></svg>