<?xml version="1.0" encoding="UTF-8" standalone="no"?><svg xmlns="http://www.w3.org/2000/svg" xmlns:xlink="http://www.w3.org/1999/xlink" contentStyleType="text/css" height="854px" preserveAspectRatio="none" style="width:1437px;height:854px;background:#FFFFFF;" version="1.1" viewBox="0 0 1437 854" width="1437px" zoomAndPan="magnify"><defs/><g><rect fill="#FFFFFF" height="297.4609" style="stroke:#181818;stroke-width:1.0;" width="10" x="353" y="91.2969"/><rect fill="#FFFFFF" height="187.7969" style="stroke:#181818;stroke-width:1.0;" width="10" x="553" y="230.0938"/><rect fill="#FFFFFF" height="44.2656" style="stroke:#181818;stroke-width:1.0;" width="10" x="755" y="417.8906"/><rect fill="#FFFFFF" height="29.1328" style="stroke:#181818;stroke-width:1.0;" width="10" x="755" y="550.6875"/><rect fill="#FFFFFF" height="58.2656" style="stroke:#181818;stroke-width:1.0;" width="10" x="755" y="697.4844"/><rect fill="#FFFFFF" height="175.9297" style="stroke:#181818;stroke-width:1.0;" width="10" x="1201" y="521.5547"/><rect fill="#FFFFFF" height="9" style="stroke:#181818;stroke-width:1.0;" width="10" x="1403.5" y="755.75"/><line style="stroke:#181818;stroke-width:0.5;stroke-dasharray:5.0,5.0;" x1="43" x2="43" y1="81.2969" y2="773.75"/><line style="stroke:#181818;stroke-width:0.5;stroke-dasharray:5.0,5.0;" x1="158" x2="158" y1="81.2969" y2="773.75"/><line style="stroke:#181818;stroke-width:0.5;stroke-dasharray:5.0,5.0;" x1="268" x2="268" y1="81.2969" y2="773.75"/><line style="stroke:#181818;stroke-width:0.5;stroke-dasharray:5.0,5.0;" x1="358" x2="358" y1="81.2969" y2="773.75"/><line style="stroke:#181818;stroke-width:0.5;stroke-dasharray:5.0,5.0;" x1="558" x2="558" y1="81.2969" y2="773.75"/><line style="stroke:#181818;stroke-width:0.5;stroke-dasharray:5.0,5.0;" x1="759.5" x2="759.5" y1="81.2969" y2="773.75"/><line style="stroke:#181818;stroke-width:0.5;stroke-dasharray:5.0,5.0;" x1="980.5" x2="980.5" y1="81.2969" y2="773.75"/><line style="stroke:#181818;stroke-width:0.5;stroke-dasharray:5.0,5.0;" x1="1206" x2="1206" y1="81.2969" y2="773.75"/><line style="stroke:#181818;stroke-width:0.5;stroke-dasharray:5.0,5.0;" x1="1332" x2="1332" y1="81.2969" y2="773.75"/><line style="stroke:#181818;stroke-width:0.5;stroke-dasharray:5.0,5.0;" x1="1408" x2="1408" y1="81.2969" y2="773.75"/><text fill="#000000" font-family="sans-serif" font-size="14" lengthAdjust="spacing" textLength="71" x="5" y="77.9951">Developer</text><ellipse cx="43.5" cy="13.5" fill="#E2E2F0" rx="8" ry="8" style="stroke:#181818;stroke-width:0.5;"/><path d="M43.5,21.5 L43.5,48.5 M30.5,29.5 L56.5,29.5 M43.5,48.5 L30.5,63.5 M43.5,48.5 L56.5,63.5 " fill="none" style="stroke:#181818;stroke-width:0.5;"/><text fill="#000000" font-family="sans-serif" font-size="14" lengthAdjust="spacing" textLength="71" x="5" y="785.7451">Developer</text><ellipse cx="43.5" cy="797.5469" fill="#E2E2F0" rx="8" ry="8" style="stroke:#181818;stroke-width:0.5;"/><path d="M43.5,805.5469 L43.5,832.5469 M30.5,813.5469 L56.5,813.5469 M43.5,832.5469 L30.5,847.5469 M43.5,832.5469 L56.5,847.5469 " fill="none" style="stroke:#181818;stroke-width:0.5;"/><text fill="#000000" font-family="sans-serif" font-size="14" lengthAdjust="spacing" textLength="126" x="92" y="77.9951">AnotherDeveloper</text><ellipse cx="158" cy="13.5" fill="#E2E2F0" rx="8" ry="8" style="stroke:#181818;stroke-width:0.5;"/><path d="M158,21.5 L158,48.5 M145,29.5 L171,29.5 M158,48.5 L145,63.5 M158,48.5 L171,63.5 " fill="none" style="stroke:#181818;stroke-width:0.5;"/><text fill="#000000" font-family="sans-serif" font-size="14" lengthAdjust="spacing" textLength="126" x="92" y="785.7451">AnotherDeveloper</text><ellipse cx="158" cy="797.5469" fill="#E2E2F0" rx="8" ry="8" style="stroke:#181818;stroke-width:0.5;"/><path d="M158,805.5469 L158,832.5469 M145,813.5469 L171,813.5469 M158,832.5469 L145,847.5469 M158,832.5469 L171,847.5469 " fill="none" style="stroke:#181818;stroke-width:0.5;"/><text fill="#000000" font-family="sans-serif" font-size="14" lengthAdjust="spacing" textLength="63" x="234" y="77.9951">Reviewer</text><ellipse cx="268.5" cy="13.5" fill="#E2E2F0" rx="8" ry="8" style="stroke:#181818;stroke-width:0.5;"/><path d="M268.5,21.5 L268.5,48.5 M255.5,29.5 L281.5,29.5 M268.5,48.5 L255.5,63.5 M268.5,48.5 L281.5,63.5 " fill="none" style="stroke:#181818;stroke-width:0.5;"/><text fill="#000000" font-family="sans-serif" font-size="14" lengthAdjust="spacing" textLength="63" x="234" y="785.7451">Reviewer</text><ellipse cx="268.5" cy="797.5469" fill="#E2E2F0" rx="8" ry="8" style="stroke:#181818;stroke-width:0.5;"/><path d="M268.5,805.5469 L268.5,832.5469 M255.5,813.5469 L281.5,813.5469 M268.5,832.5469 L255.5,847.5469 M268.5,832.5469 L281.5,847.5469 " fill="none" style="stroke:#181818;stroke-width:0.5;"/><text fill="#000000" font-family="sans-serif" font-size="14" lengthAdjust="spacing" textLength="84" x="313" y="77.9951">LocalBranch</text><ellipse cx="358" cy="49" fill="#E2E2F0" rx="12" ry="12" style="stroke:#181818;stroke-width:0.5;"/><line style="stroke:#181818;stroke-width:0.5;" x1="346" x2="370" y1="63" y2="63"/><text fill="#000000" font-family="sans-serif" font-size="14" lengthAdjust="spacing" textLength="84" x="313" y="785.7451">LocalBranch</text><ellipse cx="358" cy="805.0469" fill="#E2E2F0" rx="12" ry="12" style="stroke:#181818;stroke-width:0.5;"/><line style="stroke:#181818;stroke-width:0.5;" x1="346" x2="370" y1="819.0469" y2="819.0469"/><text fill="#000000" font-family="sans-serif" font-size="14" lengthAdjust="spacing" textLength="74" x="518" y="77.9951">RemotePR</text><ellipse cx="558" cy="49" fill="#E2E2F0" rx="12" ry="12" style="stroke:#181818;stroke-width:0.5;"/><line style="stroke:#181818;stroke-width:0.5;" x1="546" x2="570" y1="63" y2="63"/><text fill="#000000" font-family="sans-serif" font-size="14" lengthAdjust="spacing" textLength="74" x="518" y="785.7451">RemotePR</text><ellipse cx="558" cy="805.0469" fill="#E2E2F0" rx="12" ry="12" style="stroke:#181818;stroke-width:0.5;"/><line style="stroke:#181818;stroke-width:0.5;" x1="546" x2="570" y1="819.0469" y2="819.0469"/><text fill="#000000" font-family="sans-serif" font-size="14" lengthAdjust="spacing" textLength="33" x="740.5" y="77.9951">main</text><ellipse cx="760" cy="49" fill="#E2E2F0" rx="12" ry="12" style="stroke:#181818;stroke-width:0.5;"/><line style="stroke:#181818;stroke-width:0.5;" x1="748" x2="772" y1="63" y2="63"/><text fill="#000000" font-family="sans-serif" font-size="14" lengthAdjust="spacing" textLength="33" x="740.5" y="785.7451">main</text><ellipse cx="760" cy="805.0469" fill="#E2E2F0" rx="12" ry="12" style="stroke:#181818;stroke-width:0.5;"/><line style="stroke:#181818;stroke-width:0.5;" x1="748" x2="772" y1="819.0469" y2="819.0469"/><rect fill="#E2E2F0" height="30.2969" rx="2.5" ry="2.5" style="stroke:#181818;stroke-width:0.5;" width="159" x="901.5" y="50"/><text fill="#000000" font-family="sans-serif" font-size="14" lengthAdjust="spacing" textLength="145" x="908.5" y="69.9951">ReleaseGithubAction</text><rect fill="#E2E2F0" height="30.2969" rx="2.5" ry="2.5" style="stroke:#181818;stroke-width:0.5;" width="159" x="901.5" y="772.75"/><text fill="#000000" font-family="sans-serif" font-size="14" lengthAdjust="spacing" textLength="145" x="908.5" y="792.7451">ReleaseGithubAction</text><text fill="#000000" font-family="sans-serif" font-size="14" lengthAdjust="spacing" textLength="138" x="1134" y="77.9951">VersionPackagesPR</text><ellipse cx="1206" cy="49" fill="#E2E2F0" rx="12" ry="12" style="stroke:#181818;stroke-width:0.5;"/><line style="stroke:#181818;stroke-width:0.5;" x1="1194" x2="1218" y1="63" y2="63"/><text fill="#000000" font-family="sans-serif" font-size="14" lengthAdjust="spacing" textLength="138" x="1134" y="785.7451">VersionPackagesPR</text><ellipse cx="1206" cy="805.0469" fill="#E2E2F0" rx="12" ry="12" style="stroke:#181818;stroke-width:0.5;"/><line style="stroke:#181818;stroke-width:0.5;" x1="1194" x2="1218" y1="819.0469" y2="819.0469"/><rect fill="#E2E2F0" height="30.2969" rx="2.5" ry="2.5" style="stroke:#181818;stroke-width:0.5;" width="88" x="1288" y="50"/><text fill="#000000" font-family="sans-serif" font-size="14" lengthAdjust="spacing" textLength="74" x="1295" y="69.9951">blockchain</text><rect fill="#E2E2F0" height="30.2969" rx="2.5" ry="2.5" style="stroke:#181818;stroke-width:0.5;" width="88" x="1288" y="772.75"/><text fill="#000000" font-family="sans-serif" font-size="14" lengthAdjust="spacing" textLength="74" x="1295" y="792.7451">blockchain</text><rect fill="#E2E2F0" height="30.2969" rx="2.5" ry="2.5" style="stroke:#181818;stroke-width:0.5;" width="45" x="1386" y="50"/><text fill="#000000" font-family="sans-serif" font-size="14" lengthAdjust="spacing" textLength="31" x="1393" y="69.9951">npm</text><rect fill="#E2E2F0" height="30.2969" rx="2.5" ry="2.5" style="stroke:#181818;stroke-width:0.5;" width="45" x="1386" y="772.75"/><text fill="#000000" font-family="sans-serif" font-size="14" lengthAdjust="spacing" textLength="31" x="1393" y="792.7451">npm</text><rect fill="#FFFFFF" height="297.4609" style="stroke:#181818;stroke-width:1.0;" width="10" x="353" y="91.2969"/><rect fill="#FFFFFF" height="187.7969" style="stroke:#181818;stroke-width:1.0;" width="10" x="553" y="230.0938"/><rect fill="#FFFFFF" height="44.2656" style="stroke:#181818;stroke-width:1.0;" width="10" x="755" y="417.8906"/><rect fill="#FFFFFF" height="29.1328" style="stroke:#181818;stroke-width:1.0;" width="10" x="755" y="550.6875"/><rect fill="#FFFFFF" height="58.2656" style="stroke:#181818;stroke-width:1.0;" width="10" x="755" y="697.4844"/><rect fill="#FFFFFF" height="175.9297" style="stroke:#181818;stroke-width:1.0;" width="10" x="1201" y="521.5547"/><rect fill="#FFFFFF" height="9" style="stroke:#181818;stroke-width:1.0;" width="10" x="1403.5" y="755.75"/><polygon fill="#181818" points="341,123.5625,351,127.5625,341,131.5625,345,127.5625" style="stroke:#181818;stroke-width:1.0;"/><line style="stroke:#181818;stroke-width:1.0;" x1="43.5" x2="347" y1="127.5625" y2="127.5625"/><text fill="#000000" font-family="sans-serif" font-size="13" lengthAdjust="spacing" textLength="155" x="50.5" y="107.3638">Change smart contracts</text><text fill="#000000" font-family="sans-serif" font-size="13" lengthAdjust="spacing" textLength="77" x="50.5" y="122.4966">and commit</text><polygon fill="#181818" points="341,167.8281,351,171.8281,341,175.8281,345,171.8281" style="stroke:#181818;stroke-width:1.0;"/><line style="stroke:#181818;stroke-width:1.0;" x1="43.5" x2="347" y1="171.8281" y2="171.8281"/><text fill="#000000" font-family="sans-serif" font-size="13" lengthAdjust="spacing" textLength="231" x="50.5" y="151.6294">npx changeset - create a changeset</text><text fill="#000000" font-family="sans-serif" font-size="13" lengthAdjust="spacing" textLength="64" x="50.5" y="166.7622">&amp; commit</text><polygon fill="#181818" points="341,196.9609,351,200.9609,341,204.9609,345,200.9609" style="stroke:#181818;stroke-width:1.0;"/><line style="stroke:#181818;stroke-width:1.0;" x1="43.5" x2="347" y1="200.9609" y2="200.9609"/><text fill="#000000" font-family="sans-serif" font-size="13" lengthAdjust="spacing" textLength="124" x="50.5" y="195.895">Git push &amp; open PR</text><polygon fill="#181818" points="541,226.0938,551,230.0938,541,234.0938,545,230.0938" style="stroke:#181818;stroke-width:1.0;"/><line style="stroke:#181818;stroke-width:1.0;stroke-dasharray:2.0,2.0;" x1="363" x2="547" y1="230.0938" y2="230.0938"/><text fill="#000000" font-family="sans-serif" font-size="13" lengthAdjust="spacing" textLength="140" x="370" y="225.0278">Deltas and changeset</text><polygon fill="#181818" points="541,255.2266,551,259.2266,541,263.2266,545,259.2266" style="stroke:#181818;stroke-width:1.0;"/><line style="stroke:#181818;stroke-width:1.0;" x1="268.5" x2="547" y1="259.2266" y2="259.2266"/><text fill="#000000" font-family="sans-serif" font-size="13" lengthAdjust="spacing" textLength="73" x="275.5" y="254.1606">Approve PR</text><polygon fill="#181818" points="341,284.3594,351,288.3594,341,292.3594,345,288.3594" style="stroke:#181818;stroke-width:1.0;"/><line style="stroke:#181818;stroke-width:1.0;" x1="43.5" x2="347" y1="288.3594" y2="288.3594"/><text fill="#000000" font-family="sans-serif" font-size="13" lengthAdjust="spacing" textLength="124" x="50.5" y="283.2935">Deploy to all chains</text><polygon fill="#181818" points="1320,313.4922,1330,317.4922,1320,321.4922,1324,317.4922" style="stroke:#181818;stroke-width:1.0;"/><line style="stroke:#181818;stroke-width:1.0;stroke-dasharray:2.0,2.0;" x1="363" x2="1326" y1="317.4922" y2="317.4922"/><text fill="#000000" font-family="sans-serif" font-size="13" lengthAdjust="spacing" textLength="207" x="370" y="312.4263">Updated or new smart contracts</text><line style="stroke:#181818;stroke-width:1.0;stroke-dasharray:2.0,2.0;" x1="363" x2="405" y1="346.625" y2="346.625"/><line style="stroke:#181818;stroke-width:1.0;stroke-dasharray:2.0,2.0;" x1="405" x2="405" y1="346.625" y2="359.625"/><line style="stroke:#181818;stroke-width:1.0;stroke-dasharray:2.0,2.0;" x1="364" x2="405" y1="359.625" y2="359.625"/><polygon fill="#181818" points="374,355.625,364,359.625,374,363.625,370,359.625" style="stroke:#181818;stroke-width:1.0;"/><text fill="#000000" font-family="sans-serif" font-size="13" lengthAdjust="spacing" textLength="176" x="370" y="341.5591">Update addresses json files</text><polygon fill="#181818" points="541,384.7578,551,388.7578,541,392.7578,545,388.7578" style="stroke:#181818;stroke-width:1.0;"/><line style="stroke:#181818;stroke-width:1.0;" x1="43.5" x2="547" y1="388.7578" y2="388.7578"/><text fill="#000000" font-family="sans-serif" font-size="13" lengthAdjust="spacing" textLength="93" x="50.5" y="383.6919">Merge to main</text><polygon fill="#181818" points="743,413.8906,753,417.8906,743,421.8906,747,417.8906" style="stroke:#181818;stroke-width:1.0;"/><line style="stroke:#181818;stroke-width:1.0;stroke-dasharray:2.0,2.0;" x1="558" x2="749" y1="417.8906" y2="417.8906"/><text fill="#000000" font-family="sans-serif" font-size="13" lengthAdjust="spacing" textLength="173" x="565" y="412.8247">Code Deltas + Changesets</text><polygon fill="#181818" points="969,458.1563,979,462.1563,969,466.1563,973,462.1563" style="stroke:#181818;stroke-width:1.0;"/><line style="stroke:#181818;stroke-width:1.0;stroke-dasharray:2.0,2.0;" x1="760" x2="975" y1="462.1563" y2="462.1563"/><text fill="#000000" font-family="sans-serif" font-size="13" lengthAdjust="spacing" textLength="109" x="767" y="441.9575">Changes to main</text><text fill="#000000" font-family="sans-serif" font-size="13" lengthAdjust="spacing" textLength="127" x="767" y="457.0903">including changeset</text><polygon fill="#181818" points="1189,517.5547,1199,521.5547,1189,525.5547,1193,521.5547" style="stroke:#181818;stroke-width:1.0;"/><line style="stroke:#181818;stroke-width:1.0;" x1="981" x2="1195" y1="521.5547" y2="521.5547"/><text fill="#000000" font-family="sans-serif" font-size="13" lengthAdjust="spacing" textLength="190" x="988" y="486.2231">Create a PR with new versions</text><text fill="#000000" font-family="sans-serif" font-size="13" lengthAdjust="spacing" textLength="192" x="988" y="501.356">applied to package.jsons from</text><text fill="#000000" font-family="sans-serif" font-size="13" lengthAdjust="spacing" textLength="196" x="988" y="516.4888">instrucitons in new changesets</text><polygon fill="#181818" points="743,546.6875,753,550.6875,743,554.6875,747,550.6875" style="stroke:#181818;stroke-width:1.0;"/><line style="stroke:#181818;stroke-width:1.0;" x1="158" x2="749" y1="550.6875" y2="550.6875"/><text fill="#000000" font-family="sans-serif" font-size="13" lengthAdjust="spacing" textLength="143" x="165" y="545.6216">Push a new changeset</text><polygon fill="#181818" points="969,575.8203,979,579.8203,969,583.8203,973,579.8203" style="stroke:#181818;stroke-width:1.0;"/><line style="stroke:#181818;stroke-width:1.0;stroke-dasharray:2.0,2.0;" x1="760" x2="975" y1="579.8203" y2="579.8203"/><text fill="#000000" font-family="sans-serif" font-size="13" lengthAdjust="spacing" textLength="96" x="767" y="574.7544">new changeset</text><polygon fill="#181818" points="1189,635.2188,1199,639.2188,1189,643.2188,1193,639.2188" style="stroke:#181818;stroke-width:1.0;"/><line style="stroke:#181818;stroke-width:1.0;" x1="981" x2="1195" y1="639.2188" y2="639.2188"/><text fill="#000000" font-family="sans-serif" font-size="13" lengthAdjust="spacing" textLength="182" x="988" y="603.8872">Update PR with new versions</text><text fill="#000000" font-family="sans-serif" font-size="13" lengthAdjust="spacing" textLength="192" x="988" y="619.02">applied to package.jsons from</text><text fill="#000000" font-family="sans-serif" font-size="13" lengthAdjust="spacing" textLength="188" x="988" y="634.1528">instrucitons in new changests</text><polygon fill="#181818" points="1189,664.3516,1199,668.3516,1189,672.3516,1193,668.3516" style="stroke:#181818;stroke-width:1.0;"/><line style="stroke:#181818;stroke-width:1.0;" x1="43.5" x2="1195" y1="668.3516" y2="668.3516"/><text fill="#000000" font-family="sans-serif" font-size="13" lengthAdjust="spacing" textLength="95" x="50.5" y="663.2856">merge to main</text><polygon fill="#181818" points="776,693.4844,766,697.4844,776,701.4844,772,697.4844" style="stroke:#181818;stroke-width:1.0;"/><line style="stroke:#181818;stroke-width:1.0;stroke-dasharray:2.0,2.0;" x1="770" x2="1205" y1="697.4844" y2="697.4844"/><text fill="#000000" font-family="sans-serif" font-size="13" lengthAdjust="spacing" textLength="196" x="782" y="692.4185">Updated versions in packages.</text><polygon fill="#181818" points="969,722.6172,979,726.6172,969,730.6172,973,726.6172" style="stroke:#181818;stroke-width:1.0;"/><line style="stroke:#181818;stroke-width:1.0;" x1="765" x2="975" y1="726.6172" y2="726.6172"/><text fill="#000000" font-family="sans-serif" font-size="13" lengthAdjust="spacing" textLength="192" x="772" y="721.5513">new versions in package.jsons</text><polygon fill="#181818" points="1391.5,751.75,1401.5,755.75,1391.5,759.75,1395.5,755.75" style="stroke:#181818;stroke-width:1.0;"/><line style="stroke:#181818;stroke-width:1.0;" x1="981" x2="1397.5" y1="755.75" y2="755.75"/><text fill="#000000" font-family="sans-serif" font-size="13" lengthAdjust="spacing" textLength="173" x="988" y="750.6841">Build and publish packages</text><!--SRC=[hLHDRzim3BtdL_3KIv7-W1mAf2smomO40RPJBupCnbhr1Kbssdy_IhOSVpN0XbqCK2Bv7j-ZXI9Q3o_KahAE_0Ppl3SsrkJdnqTg9Lqu91Db_8JlLg1wycX4NOwEf6samx746gNPEFHH2kdGHE0CHHZecunrSzgBAAqfoR_81muFADxnJ86xZ2jFoeftKSyR6gStczIdnKWJIWDzs3wEBtRmNACv4mJDVK1O4pqF6E3LeAaurbh66zN6VO387G95s8BmbA1nTFXgxle-SACHQm2k2JNS0TyRu857zx3b_ABdZZrI4GDaXWKd-TBDFUXUF899yTuvRrjA25_JUI6dx2T42wWKPAN3Wj3LXHtyT1LZLy2hOUWobtDHEW7hQW6hobC85E1ti0RUfA8mfNWTuWTvDetfvQMg2DTCB-aPKMUQpxQY8jzzxpsB5yOj1ls6amoIFhqFYwqjQnGA9NPT6g6QIfhpoACHIkwvqYhDkLX-xbyMYyUvS7fMkUtoyhOwfoJhp_YkAtj8AWPuyrPdDY7wHiYOpfXVAXVNyGTQo_zk_W308EOXxIjEM_sLQDFAVnUdNw3_BqsSBU0AjfviuY9Xj7lb5nceCLPFA3oCfrzwi2Rg3KrN4BgHlzAK7yuTF3LILVbHSSr9IVQsi5jOCqJfnVq3]--></g></svg>