<?xml version="1.0" encoding="UTF-8" standalone="no"?><svg xmlns="http://www.w3.org/2000/svg" xmlns:xlink="http://www.w3.org/1999/xlink" contentStyleType="text/css" height="913px" preserveAspectRatio="none" style="width:883px;height:913px;background:#FFFFFF;" version="1.1" viewBox="0 0 883 913" width="883px" zoomAndPan="magnify"><defs/><g><text fill="#000000" font-family="sans-serif" font-size="14" font-weight="bold" lengthAdjust="spacing" textLength="451" x="217.5" y="27.9951">Creating a signature for a new erc1155 contract + token</text><rect fill="#FFFFFF" height="582.0547" style="stroke:#181818;stroke-width:1.0;" width="10" x="371.5" y="128.5938"/><rect fill="none" height="179.0625" style="stroke:#000000;stroke-width:1.5;" width="867" x="10" y="135.5938"/><rect fill="none" height="148.7969" style="stroke:#000000;stroke-width:1.5;" width="867" x="10" y="328.6563"/><line style="stroke:#181818;stroke-width:0.5;stroke-dasharray:5.0,5.0;" x1="48" x2="48" y1="118.5938" y2="832.3125"/><line style="stroke:#181818;stroke-width:0.5;stroke-dasharray:5.0,5.0;" x1="376" x2="376" y1="118.5938" y2="832.3125"/><line style="stroke:#181818;stroke-width:0.5;stroke-dasharray:5.0,5.0;" x1="598" x2="598" y1="118.5938" y2="832.3125"/><line style="stroke:#181818;stroke-width:0.5;stroke-dasharray:5.0,5.0;" x1="820" x2="820" y1="118.5938" y2="832.3125"/><text fill="#000000" font-family="sans-serif" font-size="14" lengthAdjust="spacing" textLength="51" x="20" y="115.292">Creator</text><ellipse cx="48.5" cy="50.7969" fill="#E2E2F0" rx="8" ry="8" style="stroke:#181818;stroke-width:0.5;"/><path d="M48.5,58.7969 L48.5,85.7969 M35.5,66.7969 L61.5,66.7969 M48.5,85.7969 L35.5,100.7969 M48.5,85.7969 L61.5,100.7969 " fill="none" style="stroke:#181818;stroke-width:0.5;"/><text fill="#000000" font-family="sans-serif" font-size="14" lengthAdjust="spacing" textLength="51" x="20" y="844.3076">Creator</text><ellipse cx="48.5" cy="856.1094" fill="#E2E2F0" rx="8" ry="8" style="stroke:#181818;stroke-width:0.5;"/><path d="M48.5,864.1094 L48.5,891.1094 M35.5,872.1094 L61.5,872.1094 M48.5,891.1094 L35.5,906.1094 M48.5,891.1094 L61.5,906.1094 " fill="none" style="stroke:#181818;stroke-width:0.5;"/><text fill="#000000" font-family="sans-serif" font-size="14" lengthAdjust="spacing" textLength="81" x="333" y="115.292">CreatePage</text><ellipse cx="376.5" cy="86.2969" fill="#E2E2F0" rx="12" ry="12" style="stroke:#181818;stroke-width:0.5;"/><line style="stroke:#181818;stroke-width:0.5;" x1="364.5" x2="388.5" y1="100.2969" y2="100.2969"/><text fill="#000000" font-family="sans-serif" font-size="14" lengthAdjust="spacing" textLength="81" x="333" y="844.3076">CreatePage</text><ellipse cx="376.5" cy="863.6094" fill="#E2E2F0" rx="12" ry="12" style="stroke:#181818;stroke-width:0.5;"/><line style="stroke:#181818;stroke-width:0.5;" x1="364.5" x2="388.5" y1="877.6094" y2="877.6094"/><text fill="#000000" font-family="sans-serif" font-size="14" lengthAdjust="spacing" textLength="87" x="552" y="115.292">SignatureAPI</text><path d="M578,74.2969 L578,98.2969 M578,86.2969 L595,86.2969 " fill="none" style="stroke:#181818;stroke-width:0.5;"/><ellipse cx="607" cy="86.2969" fill="#E2E2F0" rx="12" ry="12" style="stroke:#181818;stroke-width:0.5;"/><text fill="#000000" font-family="sans-serif" font-size="14" lengthAdjust="spacing" textLength="87" x="552" y="844.3076">SignatureAPI</text><path d="M578,851.6094 L578,875.6094 M578,863.6094 L595,863.6094 " fill="none" style="stroke:#181818;stroke-width:0.5;"/><ellipse cx="607" cy="863.6094" fill="#E2E2F0" rx="12" ry="12" style="stroke:#181818;stroke-width:0.5;"/><text fill="#000000" font-family="sans-serif" font-size="14" lengthAdjust="spacing" textLength="87" x="774" y="115.292">SignatureDB</text><ellipse cx="820.5" cy="86.2969" fill="#E2E2F0" rx="12" ry="12" style="stroke:#181818;stroke-width:0.5;"/><line style="stroke:#181818;stroke-width:0.5;" x1="808.5" x2="832.5" y1="100.2969" y2="100.2969"/><text fill="#000000" font-family="sans-serif" font-size="14" lengthAdjust="spacing" textLength="87" x="774" y="844.3076">SignatureDB</text><ellipse cx="820.5" cy="863.6094" fill="#E2E2F0" rx="12" ry="12" style="stroke:#181818;stroke-width:0.5;"/><line style="stroke:#181818;stroke-width:0.5;" x1="808.5" x2="832.5" y1="877.6094" y2="877.6094"/><rect fill="#FFFFFF" height="582.0547" style="stroke:#181818;stroke-width:1.0;" width="10" x="371.5" y="128.5938"/><path d="M10,135.5938 L337,135.5938 L337,142.7266 L327,152.7266 L10,152.7266 L10,135.5938 " fill="#EEEEEE" style="stroke:#000000;stroke-width:1.5;"/><rect fill="none" height="179.0625" style="stroke:#000000;stroke-width:1.5;" width="867" x="10" y="135.5938"/><text fill="#000000" font-family="sans-serif" font-size="13" font-weight="bold" lengthAdjust="spacing" textLength="282" x="25" y="148.6606">Signature not created for contract yet</text><polygon fill="#181818" points="359.5,169.8594,369.5,173.8594,359.5,177.8594,363.5,173.8594" style="stroke:#181818;stroke-width:1.0;"/><line style="stroke:#181818;stroke-width:1.0;" x1="48.5" x2="365.5" y1="173.8594" y2="173.8594"/><text fill="#000000" font-family="sans-serif" font-size="13" lengthAdjust="spacing" textLength="226" x="55.5" y="168.7935">setup NEW contract name + image</text><polygon fill="#181818" points="586.5,229.2578,596.5,233.2578,586.5,237.2578,590.5,233.2578" style="stroke:#181818;stroke-width:1.0;"/><line style="stroke:#181818;stroke-width:1.0;" x1="381.5" x2="592.5" y1="233.2578" y2="233.2578"/><text fill="#000000" font-family="sans-serif" font-size="13" lengthAdjust="spacing" textLength="137" x="388.5" y="197.9263">validate that contract</text><text fill="#000000" font-family="sans-serif" font-size="13" lengthAdjust="spacing" textLength="139" x="388.5" y="213.0591">with same params for</text><text fill="#000000" font-family="sans-serif" font-size="13" lengthAdjust="spacing" textLength="128" x="388.5" y="228.1919">creator doesnt exist</text><polygon fill="#181818" points="808.5,273.5234,818.5,277.5234,808.5,281.5234,812.5,277.5234" style="stroke:#181818;stroke-width:1.0;"/><line style="stroke:#181818;stroke-width:1.0;" x1="598.5" x2="814.5" y1="277.5234" y2="277.5234"/><text fill="#000000" font-family="sans-serif" font-size="13" lengthAdjust="spacing" textLength="176" x="605.5" y="257.3247">check if signature with hash</text><text fill="#000000" font-family="sans-serif" font-size="13" lengthAdjust="spacing" textLength="184" x="605.5" y="272.4575">for contract is already stored</text><polygon fill="#181818" points="392.5,302.6563,382.5,306.6563,392.5,310.6563,388.5,306.6563" style="stroke:#181818;stroke-width:1.0;"/><line style="stroke:#181818;stroke-width:1.0;stroke-dasharray:2.0,2.0;" x1="386.5" x2="597.5" y1="306.6563" y2="306.6563"/><text fill="#000000" font-family="sans-serif" font-size="13" lengthAdjust="spacing" textLength="108" x="398.5" y="301.5903">validation results</text><path d="M10,328.6563 L353,328.6563 L353,335.7891 L343,345.7891 L10,345.7891 L10,328.6563 " fill="#EEEEEE" style="stroke:#000000;stroke-width:1.5;"/><rect fill="none" height="148.7969" style="stroke:#000000;stroke-width:1.5;" width="867" x="10" y="328.6563"/><text fill="#000000" font-family="sans-serif" font-size="13" font-weight="bold" lengthAdjust="spacing" textLength="298" x="25" y="341.7231">Signature has been created for contract</text><polygon fill="#181818" points="359.5,362.9219,369.5,366.9219,359.5,370.9219,363.5,366.9219" style="stroke:#181818;stroke-width:1.0;"/><line style="stroke:#181818;stroke-width:1.0;" x1="48.5" x2="365.5" y1="366.9219" y2="366.9219"/><text fill="#000000" font-family="sans-serif" font-size="13" lengthAdjust="spacing" textLength="174" x="55.5" y="361.856">load page by contract hash</text><polygon fill="#181818" points="586.5,392.0547,596.5,396.0547,586.5,400.0547,590.5,396.0547" style="stroke:#181818;stroke-width:1.0;"/><line style="stroke:#181818;stroke-width:1.0;" x1="381.5" x2="592.5" y1="396.0547" y2="396.0547"/><text fill="#000000" font-family="sans-serif" font-size="13" lengthAdjust="spacing" textLength="193" x="388.5" y="390.9888">load contract creation params</text><polygon fill="#181818" points="808.5,436.3203,818.5,440.3203,808.5,444.3203,812.5,440.3203" style="stroke:#181818;stroke-width:1.0;"/><line style="stroke:#181818;stroke-width:1.0;" x1="598.5" x2="814.5" y1="440.3203" y2="440.3203"/><text fill="#000000" font-family="sans-serif" font-size="13" lengthAdjust="spacing" textLength="198" x="605.5" y="420.1216">fetch contract creation params</text><text fill="#000000" font-family="sans-serif" font-size="13" lengthAdjust="spacing" textLength="50" x="605.5" y="435.2544">by hash</text><polygon fill="#181818" points="392.5,465.4531,382.5,469.4531,392.5,473.4531,388.5,469.4531" style="stroke:#181818;stroke-width:1.0;"/><line style="stroke:#181818;stroke-width:1.0;stroke-dasharray:2.0,2.0;" x1="386.5" x2="597.5" y1="469.4531" y2="469.4531"/><text fill="#000000" font-family="sans-serif" font-size="13" lengthAdjust="spacing" textLength="162" x="398.5" y="464.3872">contract creation params</text><polygon fill="#181818" points="359.5,501.5859,369.5,505.5859,359.5,509.5859,363.5,505.5859" style="stroke:#181818;stroke-width:1.0;"/><line style="stroke:#181818;stroke-width:1.0;" x1="48.5" x2="365.5" y1="505.5859" y2="505.5859"/><text fill="#000000" font-family="sans-serif" font-size="13" lengthAdjust="spacing" textLength="105" x="55.5" y="500.52">setup new token</text><polygon fill="#181818" points="359.5,530.7188,369.5,534.7188,359.5,538.7188,363.5,534.7188" style="stroke:#181818;stroke-width:1.0;"/><line style="stroke:#181818;stroke-width:1.0;" x1="48.5" x2="365.5" y1="534.7188" y2="534.7188"/><text fill="#000000" font-family="sans-serif" font-size="13" lengthAdjust="spacing" textLength="265" x="55.5" y="529.6528">submit contract &amp; token creation params</text><polygon fill="#181818" points="586.5,559.8516,596.5,563.8516,586.5,567.8516,590.5,563.8516" style="stroke:#181818;stroke-width:1.0;"/><line style="stroke:#181818;stroke-width:1.0;" x1="381.5" x2="592.5" y1="563.8516" y2="563.8516"/><text fill="#000000" font-family="sans-serif" font-size="13" lengthAdjust="spacing" textLength="134" x="388.5" y="558.7856">get new uid for token</text><polygon fill="#181818" points="808.5,604.1172,818.5,608.1172,808.5,612.1172,812.5,608.1172" style="stroke:#181818;stroke-width:1.0;"/><line style="stroke:#181818;stroke-width:1.0;" x1="598.5" x2="814.5" y1="608.1172" y2="608.1172"/><text fill="#000000" font-family="sans-serif" font-size="13" lengthAdjust="spacing" textLength="116" x="605.5" y="587.9185">get next token uid</text><text fill="#000000" font-family="sans-serif" font-size="13" lengthAdjust="spacing" textLength="155" x="605.5" y="603.0513">scoped to contract hash</text><polygon fill="#181818" points="609.5,633.25,599.5,637.25,609.5,641.25,605.5,637.25" style="stroke:#181818;stroke-width:1.0;"/><line style="stroke:#181818;stroke-width:1.0;stroke-dasharray:2.0,2.0;" x1="603.5" x2="819.5" y1="637.25" y2="637.25"/><text fill="#000000" font-family="sans-serif" font-size="13" lengthAdjust="spacing" textLength="91" x="615.5" y="632.1841">next token uid</text><polygon fill="#181818" points="392.5,662.3828,382.5,666.3828,392.5,670.3828,388.5,666.3828" style="stroke:#181818;stroke-width:1.0;"/><line style="stroke:#181818;stroke-width:1.0;stroke-dasharray:2.0,2.0;" x1="386.5" x2="597.5" y1="666.3828" y2="666.3828"/><text fill="#000000" font-family="sans-serif" font-size="13" lengthAdjust="spacing" textLength="91" x="398.5" y="661.3169">next token uid</text><polygon fill="#181818" points="59.5,706.6484,49.5,710.6484,59.5,714.6484,55.5,710.6484" style="stroke:#181818;stroke-width:1.0;"/><line style="stroke:#181818;stroke-width:1.0;" x1="53.5" x2="375.5" y1="710.6484" y2="710.6484"/><text fill="#000000" font-family="sans-serif" font-size="13" lengthAdjust="spacing" textLength="129" x="65.5" y="690.4497">request signature of</text><text fill="#000000" font-family="sans-serif" font-size="13" lengthAdjust="spacing" textLength="295" x="69.5" y="705.5825">contract + token creation params + token uid</text><polygon fill="#181818" points="586.5,735.7813,596.5,739.7813,586.5,743.7813,590.5,739.7813" style="stroke:#181818;stroke-width:1.0;"/><line style="stroke:#181818;stroke-width:1.0;" x1="48.5" x2="592.5" y1="739.7813" y2="739.7813"/><text fill="#000000" font-family="sans-serif" font-size="13" lengthAdjust="spacing" textLength="368" x="55.5" y="734.7153">Submit signature + contract + token params + token uid</text><polygon fill="#181818" points="808.5,810.3125,818.5,814.3125,808.5,818.3125,812.5,814.3125" style="stroke:#181818;stroke-width:1.0;"/><line style="stroke:#181818;stroke-width:1.0;" x1="598.5" x2="814.5" y1="814.3125" y2="814.3125"/><text fill="#000000" font-family="sans-serif" font-size="13" lengthAdjust="spacing" textLength="112" x="605.5" y="763.8481">store signature +</text><text fill="#000000" font-family="sans-serif" font-size="13" lengthAdjust="spacing" textLength="124" x="605.5" y="778.981">contract creation +</text><text fill="#000000" font-family="sans-serif" font-size="13" lengthAdjust="spacing" textLength="160" x="605.5" y="794.1138">token creation params +</text><text fill="#000000" font-family="sans-serif" font-size="13" lengthAdjust="spacing" textLength="59" x="605.5" y="809.2466">token uid</text><!--SRC=[XLGzJyCm4DtzAsvYGGmCB1sG-19YGPKOMBAuzhMnIErYNu3yUyvssZWD2L8NN-xUU_VkhcIeGNZmACdO7KW8PcSbjHvXwpo_BNu3UdLzVNC3obdoKX5S0haFj4BmWxDIkVC2BHdgyXFNSeTYurghfU_WxGXxjtuvvfrYZ_T2Y6VlsiCG0-i8L4BIISg9l4CI0FpZX_dYxoKX7CN0rMqHNq50OlZNf_S1oCezSYjcNnIcx5XR2bx1bsoCZbHKIneGAljjg8OGWGxIots8KYkhUWtQOR04-6D2r5nYZZWUxrUWQbGVOBR5119uBKFDH2CBJ03PC8Vk830FwWduMVUzVkCiU0njGq7m5FJKTMQ33QBzqtenRs_Zf6OBsBjDD-YCslznDXMU2X9hL9dT_C-pBPAgPwihorfw2OlkpD9dZnOtAjv7FeQvj7QpDyNENEJq2TUIIJkaHDIQF91Ck6XDBlcXdeqhAnkKE_18oPrDg2XCtep9noXYqScpt75FlK4hNi7F5WCLc-wsbPtylPnRT8f76uJ6l-w_6CAuYxSyXe7oSietfLdsEDtU299FVx9BCJhJp_53PFe5]--></g></svg>