<?xml version="1.0" encoding="UTF-8" standalone="no"?><svg xmlns="http://www.w3.org/2000/svg" xmlns:xlink="http://www.w3.org/1999/xlink" contentStyleType="text/css" height="1002px" preserveAspectRatio="none" style="width:1097px;height:1002px;background:#FFFFFF;" version="1.1" viewBox="0 0 1097 1002" width="1097px" zoomAndPan="magnify"><defs/><g><text fill="#000000" font-family="sans-serif" font-size="14" font-weight="bold" lengthAdjust="spacing" textLength="517" x="291.75" y="27.9951">Creating a signature for a Premint Erc1155 contract + New token</text><rect fill="#FFFFFF" height="73.3984" style="stroke:#181818;stroke-width:1.0;" width="10" x="451.5" y="173.8594"/><rect fill="#FFFFFF" height="112.6641" style="stroke:#181818;stroke-width:1.0;" width="10" x="451.5" y="337.7891"/><rect fill="#FFFFFF" height="394.8594" style="stroke:#181818;stroke-width:1.0;" width="10" x="451.5" y="508.7188"/><rect fill="#FFFFFF" height="68.3984" style="stroke:#181818;stroke-width:1.0;" width="10" x="680.5" y="382.0547"/><rect fill="#FFFFFF" height="403.8594" style="stroke:#181818;stroke-width:1.0;" width="10" x="680.5" y="508.7188"/><rect fill="#FFFFFF" height="29.1328" style="stroke:#181818;stroke-width:1.0;" width="10" x="1017.5" y="218.125"/><rect fill="none" height="119.6641" style="stroke:#000000;stroke-width:1.5;" width="1081.5" x="10" y="135.5938"/><rect fill="none" height="196.1953" style="stroke:#000000;stroke-width:1.5;" width="735.5" x="10" y="269.2578"/><rect fill="none" height="61.3984" style="stroke:#000000;stroke-width:1.5;" width="321.5" x="414" y="397.0547"/><rect fill="none" height="59.2656" style="stroke:#000000;stroke-width:1.5;" width="253" x="635.5" y="816.1797"/><line style="stroke:#181818;stroke-width:0.5;stroke-dasharray:5.0,5.0;" x1="48" x2="48" y1="118.5938" y2="921.5781"/><line style="stroke:#181818;stroke-width:0.5;stroke-dasharray:5.0,5.0;" x1="161" x2="161" y1="118.5938" y2="921.5781"/><line style="stroke:#181818;stroke-width:0.5;stroke-dasharray:5.0,5.0;" x1="456" x2="456" y1="118.5938" y2="921.5781"/><line style="stroke:#181818;stroke-width:0.5;stroke-dasharray:5.0,5.0;" x1="685.5" x2="685.5" y1="118.5938" y2="921.5781"/><line style="stroke:#181818;stroke-width:0.5;stroke-dasharray:5.0,5.0;" x1="1022.5" x2="1022.5" y1="118.5938" y2="921.5781"/><text fill="#000000" font-family="sans-serif" font-size="14" lengthAdjust="spacing" textLength="51" x="20" y="115.292">Creator</text><ellipse cx="48.5" cy="50.7969" fill="#E2E2F0" rx="8" ry="8" style="stroke:#181818;stroke-width:0.5;"/><path d="M48.5,58.7969 L48.5,85.7969 M35.5,66.7969 L61.5,66.7969 M48.5,85.7969 L35.5,100.7969 M48.5,85.7969 L61.5,100.7969 " fill="none" style="stroke:#181818;stroke-width:0.5;"/><text fill="#000000" font-family="sans-serif" font-size="14" lengthAdjust="spacing" textLength="51" x="20" y="933.5732">Creator</text><ellipse cx="48.5" cy="945.375" fill="#E2E2F0" rx="8" ry="8" style="stroke:#181818;stroke-width:0.5;"/><path d="M48.5,953.375 L48.5,980.375 M35.5,961.375 L61.5,961.375 M48.5,980.375 L35.5,995.375 M48.5,980.375 L61.5,995.375 " fill="none" style="stroke:#181818;stroke-width:0.5;"/><text fill="#000000" font-family="sans-serif" font-size="14" lengthAdjust="spacing" textLength="41" x="138" y="115.292">Wallet</text><ellipse cx="161.5" cy="86.2969" fill="#E2E2F0" rx="12" ry="12" style="stroke:#181818;stroke-width:0.5;"/><line style="stroke:#181818;stroke-width:0.5;" x1="149.5" x2="173.5" y1="100.2969" y2="100.2969"/><text fill="#000000" font-family="sans-serif" font-size="14" lengthAdjust="spacing" textLength="41" x="138" y="933.5732">Wallet</text><ellipse cx="161.5" cy="952.875" fill="#E2E2F0" rx="12" ry="12" style="stroke:#181818;stroke-width:0.5;"/><line style="stroke:#181818;stroke-width:0.5;" x1="149.5" x2="173.5" y1="966.875" y2="966.875"/><text fill="#000000" font-family="sans-serif" font-size="14" lengthAdjust="spacing" textLength="59" x="424" y="115.292">CreateUI</text><ellipse cx="456.5" cy="86.2969" fill="#E2E2F0" rx="12" ry="12" style="stroke:#181818;stroke-width:0.5;"/><line style="stroke:#181818;stroke-width:0.5;" x1="444.5" x2="468.5" y1="100.2969" y2="100.2969"/><text fill="#000000" font-family="sans-serif" font-size="14" lengthAdjust="spacing" textLength="59" x="424" y="933.5732">CreateUI</text><ellipse cx="456.5" cy="952.875" fill="#E2E2F0" rx="12" ry="12" style="stroke:#181818;stroke-width:0.5;"/><line style="stroke:#181818;stroke-width:0.5;" x1="444.5" x2="468.5" y1="966.875" y2="966.875"/><text fill="#000000" font-family="sans-serif" font-size="14" lengthAdjust="spacing" textLength="74" x="645.5" y="115.292">PremintAPI</text><path d="M665,74.2969 L665,98.2969 M665,86.2969 L682,86.2969 " fill="none" style="stroke:#181818;stroke-width:0.5;"/><ellipse cx="694" cy="86.2969" fill="#E2E2F0" rx="12" ry="12" style="stroke:#181818;stroke-width:0.5;"/><text fill="#000000" font-family="sans-serif" font-size="14" lengthAdjust="spacing" textLength="74" x="645.5" y="933.5732">PremintAPI</text><path d="M665,940.875 L665,964.875 M665,952.875 L682,952.875 " fill="none" style="stroke:#181818;stroke-width:0.5;"/><ellipse cx="694" cy="952.875" fill="#E2E2F0" rx="12" ry="12" style="stroke:#181818;stroke-width:0.5;"/><text fill="#000000" font-family="sans-serif" font-size="14" lengthAdjust="spacing" textLength="112" x="963.5" y="115.292">PremintContract</text><path d="M1002,74.2969 L1002,98.2969 M1002,86.2969 L1019,86.2969 " fill="none" style="stroke:#181818;stroke-width:0.5;"/><ellipse cx="1031" cy="86.2969" fill="#E2E2F0" rx="12" ry="12" style="stroke:#181818;stroke-width:0.5;"/><text fill="#000000" font-family="sans-serif" font-size="14" lengthAdjust="spacing" textLength="112" x="963.5" y="933.5732">PremintContract</text><path d="M1002,940.875 L1002,964.875 M1002,952.875 L1019,952.875 " fill="none" style="stroke:#181818;stroke-width:0.5;"/><ellipse cx="1031" cy="952.875" fill="#E2E2F0" rx="12" ry="12" style="stroke:#181818;stroke-width:0.5;"/><rect fill="#FFFFFF" height="73.3984" style="stroke:#181818;stroke-width:1.0;" width="10" x="451.5" y="173.8594"/><rect fill="#FFFFFF" height="112.6641" style="stroke:#181818;stroke-width:1.0;" width="10" x="451.5" y="337.7891"/><rect fill="#FFFFFF" height="394.8594" style="stroke:#181818;stroke-width:1.0;" width="10" x="451.5" y="508.7188"/><rect fill="#FFFFFF" height="68.3984" style="stroke:#181818;stroke-width:1.0;" width="10" x="680.5" y="382.0547"/><rect fill="#FFFFFF" height="403.8594" style="stroke:#181818;stroke-width:1.0;" width="10" x="680.5" y="508.7188"/><rect fill="#FFFFFF" height="29.1328" style="stroke:#181818;stroke-width:1.0;" width="10" x="1017.5" y="218.125"/><path d="M10,135.5938 L321,135.5938 L321,142.7266 L311,152.7266 L10,152.7266 L10,135.5938 " fill="#EEEEEE" style="stroke:#000000;stroke-width:1.5;"/><rect fill="none" height="119.6641" style="stroke:#000000;stroke-width:1.5;" width="1081.5" x="10" y="135.5938"/><text fill="#000000" font-family="sans-serif" font-size="13" font-weight="bold" lengthAdjust="spacing" textLength="266" x="25" y="148.6606">New premint token on new contract</text><polygon fill="#181818" points="439.5,169.8594,449.5,173.8594,439.5,177.8594,443.5,173.8594" style="stroke:#181818;stroke-width:1.0;"/><line style="stroke:#181818;stroke-width:1.0;" x1="48.5" x2="445.5" y1="173.8594" y2="173.8594"/><text fill="#000000" font-family="sans-serif" font-size="13" lengthAdjust="spacing" textLength="226" x="55.5" y="168.7935">setup NEW contract name + image</text><polygon fill="#181818" points="1005.5,214.125,1015.5,218.125,1005.5,222.125,1009.5,218.125" style="stroke:#181818;stroke-width:1.0;"/><line style="stroke:#181818;stroke-width:1.0;" x1="461.5" x2="1011.5" y1="218.125" y2="218.125"/><text fill="#000000" font-family="sans-serif" font-size="13" lengthAdjust="spacing" textLength="224" x="468.5" y="197.9263">get determnistic collection address</text><text fill="#000000" font-family="sans-serif" font-size="13" lengthAdjust="spacing" textLength="183" x="468.5" y="213.0591">for contract creation params</text><polygon fill="#181818" points="467.5,243.2578,457.5,247.2578,467.5,251.2578,463.5,247.2578" style="stroke:#181818;stroke-width:1.0;"/><line style="stroke:#181818;stroke-width:1.0;stroke-dasharray:2.0,2.0;" x1="461.5" x2="1021.5" y1="247.2578" y2="247.2578"/><text fill="#000000" font-family="sans-serif" font-size="13" lengthAdjust="spacing" textLength="199" x="473.5" y="242.1919">determinstic collection address</text><path d="M10,269.2578 L412,269.2578 L412,276.3906 L402,286.3906 L10,286.3906 L10,269.2578 " fill="#EEEEEE" style="stroke:#000000;stroke-width:1.5;"/><rect fill="none" height="196.1953" style="stroke:#000000;stroke-width:1.5;" width="735.5" x="10" y="269.2578"/><text fill="#000000" font-family="sans-serif" font-size="13" font-weight="bold" lengthAdjust="spacing" textLength="357" x="25" y="282.3247">New premint token on existing premint contract</text><polygon fill="#181818" points="439.5,333.7891,449.5,337.7891,439.5,341.7891,443.5,337.7891" style="stroke:#181818;stroke-width:1.0;"/><line style="stroke:#181818;stroke-width:1.0;" x1="48.5" x2="445.5" y1="337.7891" y2="337.7891"/><text fill="#000000" font-family="sans-serif" font-size="13" lengthAdjust="spacing" textLength="215" x="55.5" y="302.4575">load page to create new token for</text><text fill="#000000" font-family="sans-serif" font-size="13" lengthAdjust="spacing" textLength="151" x="55.5" y="317.5903">premint at determinstic</text><text fill="#000000" font-family="sans-serif" font-size="13" lengthAdjust="spacing" textLength="115" x="55.5" y="332.7231">collection address</text><polygon fill="#181818" points="668.5,378.0547,678.5,382.0547,668.5,386.0547,672.5,382.0547" style="stroke:#181818;stroke-width:1.0;"/><line style="stroke:#181818;stroke-width:1.0;" x1="461.5" x2="674.5" y1="382.0547" y2="382.0547"/><text fill="#000000" font-family="sans-serif" font-size="13" lengthAdjust="spacing" textLength="200" x="468.5" y="361.856">load collection creation params</text><text fill="#000000" font-family="sans-serif" font-size="13" lengthAdjust="spacing" textLength="154" x="468.5" y="376.9888">by determinstic address</text><path d="M414,397.0547 L565,397.0547 L565,404.1875 L555,414.1875 L414,414.1875 L414,397.0547 " fill="#EEEEEE" style="stroke:#000000;stroke-width:1.5;"/><rect fill="none" height="61.3984" style="stroke:#000000;stroke-width:1.5;" width="321.5" x="414" y="397.0547"/><text fill="#000000" font-family="sans-serif" font-size="13" font-weight="bold" lengthAdjust="spacing" textLength="106" x="429" y="410.1216">Premint exists</text><polygon fill="#181818" points="467.5,446.4531,457.5,450.4531,467.5,454.4531,463.5,450.4531" style="stroke:#181818;stroke-width:1.0;"/><line style="stroke:#181818;stroke-width:1.0;stroke-dasharray:2.0,2.0;" x1="461.5" x2="684.5" y1="450.4531" y2="450.4531"/><text fill="#000000" font-family="sans-serif" font-size="13" lengthAdjust="spacing" textLength="169" x="473.5" y="430.2544">collection creation params</text><text fill="#000000" font-family="sans-serif" font-size="13" lengthAdjust="spacing" textLength="94" x="473.5" y="445.3872">(from premint)</text><polygon fill="#181818" points="668.5,504.7188,678.5,508.7188,668.5,512.7188,672.5,508.7188" style="stroke:#181818;stroke-width:1.0;"/><line style="stroke:#181818;stroke-width:1.0;" x1="461.5" x2="674.5" y1="508.7188" y2="508.7188"/><text fill="#000000" font-family="sans-serif" font-size="13" lengthAdjust="spacing" textLength="97" x="468.5" y="488.52">get next uid for</text><text fill="#000000" font-family="sans-serif" font-size="13" lengthAdjust="spacing" textLength="115" x="468.5" y="503.6528">collection address</text><polygon fill="#181818" points="472.5,533.8516,462.5,537.8516,472.5,541.8516,468.5,537.8516" style="stroke:#181818;stroke-width:1.0;"/><line style="stroke:#181818;stroke-width:1.0;stroke-dasharray:2.0,2.0;" x1="466.5" x2="679.5" y1="537.8516" y2="537.8516"/><text fill="#000000" font-family="sans-serif" font-size="13" lengthAdjust="spacing" textLength="136" x="478.5" y="532.7856">next uid for collection</text><polygon fill="#181818" points="439.5,562.9844,449.5,566.9844,439.5,570.9844,443.5,566.9844" style="stroke:#181818;stroke-width:1.0;"/><line style="stroke:#181818;stroke-width:1.0;" x1="48.5" x2="445.5" y1="566.9844" y2="566.9844"/><text fill="#000000" font-family="sans-serif" font-size="13" lengthAdjust="spacing" textLength="207" x="55.5" y="561.9185">configure new token parameters</text><polygon fill="#181818" points="439.5,592.1172,449.5,596.1172,439.5,600.1172,443.5,596.1172" style="stroke:#181818;stroke-width:1.0;"/><line style="stroke:#181818;stroke-width:1.0;" x1="48.5" x2="445.5" y1="596.1172" y2="596.1172"/><text fill="#000000" font-family="sans-serif" font-size="13" lengthAdjust="spacing" textLength="46" x="55.5" y="591.0513">Submit</text><polygon fill="#181818" points="59.5,636.3828,49.5,640.3828,59.5,644.3828,55.5,640.3828" style="stroke:#181818;stroke-width:1.0;"/><line style="stroke:#181818;stroke-width:1.0;" x1="53.5" x2="450.5" y1="640.3828" y2="640.3828"/><text fill="#000000" font-family="sans-serif" font-size="13" lengthAdjust="spacing" textLength="293" x="65.5" y="620.1841">request Premint EIP-712 signature containing:</text><text fill="#000000" font-family="sans-serif" font-size="13" lengthAdjust="spacing" textLength="266" x="69.5" y="635.3169">token creation params, token uid, version</text><polygon fill="#181818" points="149.5,665.5156,159.5,669.5156,149.5,673.5156,153.5,669.5156" style="stroke:#181818;stroke-width:1.0;"/><line style="stroke:#181818;stroke-width:1.0;" x1="48.5" x2="155.5" y1="669.5156" y2="669.5156"/><text fill="#000000" font-family="sans-serif" font-size="13" lengthAdjust="spacing" textLength="89" x="55.5" y="664.4497">sign message</text><polygon fill="#181818" points="439.5,709.7813,449.5,713.7813,439.5,717.7813,443.5,713.7813" style="stroke:#181818;stroke-width:1.0;"/><line style="stroke:#181818;stroke-width:1.0;" x1="161.5" x2="445.5" y1="713.7813" y2="713.7813"/><text fill="#000000" font-family="sans-serif" font-size="13" lengthAdjust="spacing" textLength="192" x="168.5" y="693.5825">Signed message by creator of</text><text fill="#000000" font-family="sans-serif" font-size="13" lengthAdjust="spacing" textLength="266" x="168.5" y="708.7153">token creation params, token uid, version</text><polygon fill="#181818" points="668.5,738.9141,678.5,742.9141,668.5,746.9141,672.5,742.9141" style="stroke:#181818;stroke-width:1.0;"/><line style="stroke:#181818;stroke-width:1.0;" x1="461.5" x2="674.5" y1="742.9141" y2="742.9141"/><text fill="#000000" font-family="sans-serif" font-size="13" lengthAdjust="spacing" textLength="179" x="468.5" y="737.8481">validate and store signature</text><polygon fill="#181818" points="1010.5,768.0469,1020.5,772.0469,1010.5,776.0469,1014.5,772.0469" style="stroke:#181818;stroke-width:1.0;"/><line style="stroke:#181818;stroke-width:1.0;" x1="690.5" x2="1016.5" y1="772.0469" y2="772.0469"/><text fill="#000000" font-family="sans-serif" font-size="13" lengthAdjust="spacing" textLength="114" x="697.5" y="766.981">validate signature</text><polygon fill="#181818" points="701.5,797.1797,691.5,801.1797,701.5,805.1797,697.5,801.1797" style="stroke:#181818;stroke-width:1.0;"/><line style="stroke:#181818;stroke-width:1.0;stroke-dasharray:2.0,2.0;" x1="695.5" x2="1021.5" y1="801.1797" y2="801.1797"/><text fill="#000000" font-family="sans-serif" font-size="13" lengthAdjust="spacing" textLength="308" x="707.5" y="796.1138">validation results (true/false &amp; recovered signer)</text><path d="M635.5,816.1797 L808.5,816.1797 L808.5,823.3125 L798.5,833.3125 L635.5,833.3125 L635.5,816.1797 " fill="#EEEEEE" style="stroke:#000000;stroke-width:1.5;"/><rect fill="none" height="59.2656" style="stroke:#000000;stroke-width:1.5;" width="253" x="635.5" y="816.1797"/><text fill="#000000" font-family="sans-serif" font-size="13" font-weight="bold" lengthAdjust="spacing" textLength="128" x="650.5" y="829.2466">Signature is valid</text><line style="stroke:#181818;stroke-width:1.0;" x1="690.5" x2="732.5" y1="854.4453" y2="854.4453"/><line style="stroke:#181818;stroke-width:1.0;" x1="732.5" x2="732.5" y1="854.4453" y2="867.4453"/><line style="stroke:#181818;stroke-width:1.0;" x1="691.5" x2="732.5" y1="867.4453" y2="867.4453"/><polygon fill="#181818" points="701.5,863.4453,691.5,867.4453,701.5,871.4453,697.5,867.4453" style="stroke:#181818;stroke-width:1.0;"/><text fill="#000000" font-family="sans-serif" font-size="13" lengthAdjust="spacing" textLength="179" x="697.5" y="849.3794">store premint and signature</text><polygon fill="#181818" points="467.5,899.5781,457.5,903.5781,467.5,907.5781,463.5,903.5781" style="stroke:#181818;stroke-width:1.0;"/><line style="stroke:#181818;stroke-width:1.0;" x1="461.5" x2="679.5" y1="903.5781" y2="903.5781"/><text fill="#000000" font-family="sans-serif" font-size="13" lengthAdjust="spacing" textLength="173" x="473.5" y="898.5122">validation &amp; storage status</text><!--SRC=[bLHBQzj04BxhLymf93Ick10AEXHA22MNOWWb5rtMsf5OAiswkoCt_lUTNRqV3WqOOuzslzUCXWrN28yE5HigGO4t9Ibk749XdVm_EAmDCJovVBz_U83S4ZkLCto2d_WNsFv6IX8foEa8Ors2n8OlyAgg2hd_5n_Yh-VaQ1lIobrwwE-7TUsnOqcI7yusfqXrwfH4Ih049CLUJW8Wdqu0xBuDT2buv83mz3fg9rMZ632rAb6kIScSvVIe4OQV0MiXAeKI6JGokfgCPvCBibWL556bj7ReVKOXlu4nZmdBuvDoglPJqgLbM5PWD_FJ4XkwGYptDMuvcbHNAIFfTwF6j-1J1gH_CkH-BVNAAYrcInIGrZt6XhMGaar6FPRYcQUCrgRW_xiauzInJs0MyMTqlCnp7CDRXXJ6KyfjEFtR4FC8fs5oRD6dz-Xl2sVhFioxYBFTjAss1KK0iMNnwre8OKe9tnWQezl4DwPbJRf5TzNa57_Yk1Er70gPciAKORcCen0Z2QtmstTUccDjU6QoEvU2mpyDUXwNrFDXztN_PRB4mfmgGpAwQKOTuw8RzrrPNDp3MNG4_HCfxHfB8oZKabbO6crneLGEeEwFW8nOtg7O8gCFSc_qywmgeqDZ56dmWekZqLc7DZRMS7TrOxPbDkY2M9cKfc8Fj-mQ_5oeoYFSI3Mtebai1r1qT_qAUHdYDxw5IURloPoejJ9i0z8JaUs4p- -EYKyataIOaBjdkUgJhVVf7m00]--></g></svg>