<?xml version="1.0" encoding="UTF-8" standalone="no"?><svg xmlns="http://www.w3.org/2000/svg" xmlns:xlink="http://www.w3.org/1999/xlink" contentStyleType="text/css" height="680px" preserveAspectRatio="none" style="width:906px;height:680px;background:#FFFFFF;" version="1.1" viewBox="0 0 906 680" width="906px" zoomAndPan="magnify"><defs/><g><rect fill="#FFFFFF" height="292.4609" style="stroke:#181818;stroke-width:1.0;" width="10" x="220.5" y="112.4297"/><line style="stroke:#181818;stroke-width:0.5;stroke-dasharray:5.0,5.0;" x1="33" x2="33" y1="81.2969" y2="599.9531"/><line style="stroke:#181818;stroke-width:0.5;stroke-dasharray:5.0,5.0;" x1="225" x2="225" y1="81.2969" y2="599.9531"/><line style="stroke:#181818;stroke-width:0.5;stroke-dasharray:5.0,5.0;" x1="393.5" x2="393.5" y1="81.2969" y2="599.9531"/><line style="stroke:#181818;stroke-width:0.5;stroke-dasharray:5.0,5.0;" x1="643" x2="643" y1="81.2969" y2="599.9531"/><line style="stroke:#181818;stroke-width:0.5;stroke-dasharray:5.0,5.0;" x1="858" x2="858" y1="81.2969" y2="599.9531"/><text fill="#000000" font-family="sans-serif" font-size="14" lengthAdjust="spacing" textLength="51" x="5" y="77.9951">Creator</text><ellipse cx="33.5" cy="13.5" fill="#E2E2F0" rx="8" ry="8" style="stroke:#181818;stroke-width:0.5;"/><path d="M33.5,21.5 L33.5,48.5 M20.5,29.5 L46.5,29.5 M33.5,48.5 L20.5,63.5 M33.5,48.5 L46.5,63.5 " fill="none" style="stroke:#181818;stroke-width:0.5;"/><text fill="#000000" font-family="sans-serif" font-size="14" lengthAdjust="spacing" textLength="51" x="5" y="611.9482">Creator</text><ellipse cx="33.5" cy="623.75" fill="#E2E2F0" rx="8" ry="8" style="stroke:#181818;stroke-width:0.5;"/><path d="M33.5,631.75 L33.5,658.75 M20.5,639.75 L46.5,639.75 M33.5,658.75 L20.5,673.75 M33.5,658.75 L46.5,673.75 " fill="none" style="stroke:#181818;stroke-width:0.5;"/><text fill="#000000" font-family="sans-serif" font-size="14" lengthAdjust="spacing" textLength="81" x="182" y="77.9951">CreatePage</text><ellipse cx="225.5" cy="49" fill="#E2E2F0" rx="12" ry="12" style="stroke:#181818;stroke-width:0.5;"/><line style="stroke:#181818;stroke-width:0.5;" x1="213.5" x2="237.5" y1="63" y2="63"/><text fill="#000000" font-family="sans-serif" font-size="14" lengthAdjust="spacing" textLength="81" x="182" y="611.9482">CreatePage</text><ellipse cx="225.5" cy="631.25" fill="#E2E2F0" rx="12" ry="12" style="stroke:#181818;stroke-width:0.5;"/><line style="stroke:#181818;stroke-width:0.5;" x1="213.5" x2="237.5" y1="645.25" y2="645.25"/><text fill="#000000" font-family="sans-serif" font-size="14" lengthAdjust="spacing" textLength="126" x="327.5" y="77.9951">PreminterContract</text><ellipse cx="393.5" cy="49" fill="#E2E2F0" rx="12" ry="12" style="stroke:#181818;stroke-width:0.5;"/><line style="stroke:#181818;stroke-width:0.5;" x1="381.5" x2="405.5" y1="63" y2="63"/><text fill="#000000" font-family="sans-serif" font-size="14" lengthAdjust="spacing" textLength="126" x="327.5" y="611.9482">PreminterContract</text><ellipse cx="393.5" cy="631.25" fill="#E2E2F0" rx="12" ry="12" style="stroke:#181818;stroke-width:0.5;"/><line style="stroke:#181818;stroke-width:0.5;" x1="381.5" x2="405.5" y1="645.25" y2="645.25"/><text fill="#000000" font-family="sans-serif" font-size="14" lengthAdjust="spacing" textLength="87" x="597" y="77.9951">SignatureAPI</text><path d="M623,37 L623,61 M623,49 L640,49 " fill="none" style="stroke:#181818;stroke-width:0.5;"/><ellipse cx="652" cy="49" fill="#E2E2F0" rx="12" ry="12" style="stroke:#181818;stroke-width:0.5;"/><text fill="#000000" font-family="sans-serif" font-size="14" lengthAdjust="spacing" textLength="87" x="597" y="611.9482">SignatureAPI</text><path d="M623,619.25 L623,643.25 M623,631.25 L640,631.25 " fill="none" style="stroke:#181818;stroke-width:0.5;"/><ellipse cx="652" cy="631.25" fill="#E2E2F0" rx="12" ry="12" style="stroke:#181818;stroke-width:0.5;"/><text fill="#000000" font-family="sans-serif" font-size="14" lengthAdjust="spacing" textLength="87" x="812" y="77.9951">SignatureDB</text><ellipse cx="858.5" cy="49" fill="#E2E2F0" rx="12" ry="12" style="stroke:#181818;stroke-width:0.5;"/><line style="stroke:#181818;stroke-width:0.5;" x1="846.5" x2="870.5" y1="63" y2="63"/><text fill="#000000" font-family="sans-serif" font-size="14" lengthAdjust="spacing" textLength="87" x="812" y="611.9482">SignatureDB</text><ellipse cx="858.5" cy="631.25" fill="#E2E2F0" rx="12" ry="12" style="stroke:#181818;stroke-width:0.5;"/><line style="stroke:#181818;stroke-width:0.5;" x1="846.5" x2="870.5" y1="645.25" y2="645.25"/><rect fill="#FFFFFF" height="292.4609" style="stroke:#181818;stroke-width:1.0;" width="10" x="220.5" y="112.4297"/><polygon fill="#181818" points="208.5,108.4297,218.5,112.4297,208.5,116.4297,212.5,112.4297" style="stroke:#181818;stroke-width:1.0;"/><line style="stroke:#181818;stroke-width:1.0;" x1="33.5" x2="214.5" y1="112.4297" y2="112.4297"/><text fill="#000000" font-family="sans-serif" font-size="13" lengthAdjust="spacing" textLength="168" x="40.5" y="107.3638">setup contract and tokens</text><polygon fill="#181818" points="631.5,137.5625,641.5,141.5625,631.5,145.5625,635.5,141.5625" style="stroke:#181818;stroke-width:1.0;"/><line style="stroke:#181818;stroke-width:1.0;" x1="230.5" x2="637.5" y1="141.5625" y2="141.5625"/><text fill="#000000" font-family="sans-serif" font-size="13" lengthAdjust="spacing" textLength="373" x="237.5" y="136.4966">validate that contract &amp; token creation params are unique</text><polygon fill="#181818" points="404.5,181.8281,394.5,185.8281,404.5,189.8281,400.5,185.8281" style="stroke:#181818;stroke-width:1.0;"/><line style="stroke:#181818;stroke-width:1.0;" x1="398.5" x2="642.5" y1="185.8281" y2="185.8281"/><text fill="#000000" font-family="sans-serif" font-size="13" lengthAdjust="spacing" textLength="224" x="410.5" y="165.6294">get hashed ids for creation params</text><text fill="#000000" font-family="sans-serif" font-size="13" lengthAdjust="spacing" textLength="4" x="410.5" y="180.7622"> </text><polygon fill="#181818" points="631.5,210.9609,641.5,214.9609,631.5,218.9609,635.5,214.9609" style="stroke:#181818;stroke-width:1.0;"/><line style="stroke:#181818;stroke-width:1.0;stroke-dasharray:2.0,2.0;" x1="393.5" x2="637.5" y1="214.9609" y2="214.9609"/><text fill="#000000" font-family="sans-serif" font-size="13" lengthAdjust="spacing" textLength="69" x="400.5" y="209.895">hashed ids</text><polygon fill="#181818" points="846.5,240.0938,856.5,244.0938,846.5,248.0938,850.5,244.0938" style="stroke:#181818;stroke-width:1.0;"/><line style="stroke:#181818;stroke-width:1.0;" x1="643.5" x2="852.5" y1="244.0938" y2="244.0938"/><text fill="#000000" font-family="sans-serif" font-size="13" lengthAdjust="spacing" textLength="191" x="650.5" y="239.0278">check if ids are already stored</text><polygon fill="#181818" points="241.5,269.2266,231.5,273.2266,241.5,277.2266,237.5,273.2266" style="stroke:#181818;stroke-width:1.0;"/><line style="stroke:#181818;stroke-width:1.0;stroke-dasharray:2.0,2.0;" x1="235.5" x2="642.5" y1="273.2266" y2="273.2266"/><text fill="#000000" font-family="sans-serif" font-size="13" lengthAdjust="spacing" textLength="108" x="247.5" y="268.1606">validation results</text><polygon fill="#181818" points="208.5,298.3594,218.5,302.3594,208.5,306.3594,212.5,302.3594" style="stroke:#181818;stroke-width:1.0;"/><line style="stroke:#181818;stroke-width:1.0;" x1="33.5" x2="214.5" y1="302.3594" y2="302.3594"/><text fill="#000000" font-family="sans-serif" font-size="13" lengthAdjust="spacing" textLength="44" x="40.5" y="297.2935">submit</text><polygon fill="#181818" points="381.5,327.4922,391.5,331.4922,381.5,335.4922,385.5,331.4922" style="stroke:#181818;stroke-width:1.0;"/><line style="stroke:#181818;stroke-width:1.0;" x1="230.5" x2="387.5" y1="331.4922" y2="331.4922"/><text fill="#000000" font-family="sans-serif" font-size="13" lengthAdjust="spacing" textLength="139" x="237.5" y="326.4263">get premintHashData</text><polygon fill="#181818" points="241.5,356.625,231.5,360.625,241.5,364.625,237.5,360.625" style="stroke:#181818;stroke-width:1.0;"/><line style="stroke:#181818;stroke-width:1.0;stroke-dasharray:2.0,2.0;" x1="235.5" x2="392.5" y1="360.625" y2="360.625"/><text fill="#000000" font-family="sans-serif" font-size="13" lengthAdjust="spacing" textLength="134" x="247.5" y="355.5591">data hash for signing</text><polygon fill="#181818" points="44.5,400.8906,34.5,404.8906,44.5,408.8906,40.5,404.8906" style="stroke:#181818;stroke-width:1.0;"/><line style="stroke:#181818;stroke-width:1.0;" x1="38.5" x2="224.5" y1="404.8906" y2="404.8906"/><text fill="#000000" font-family="sans-serif" font-size="13" lengthAdjust="spacing" textLength="129" x="50.5" y="384.6919">request signature of</text><text fill="#000000" font-family="sans-serif" font-size="13" lengthAdjust="spacing" textLength="64" x="54.5" y="399.8247">data hash</text><polygon fill="#181818" points="631.5,445.1563,641.5,449.1563,631.5,453.1563,635.5,449.1563" style="stroke:#181818;stroke-width:1.0;"/><line style="stroke:#181818;stroke-width:1.0;" x1="33.5" x2="637.5" y1="449.1563" y2="449.1563"/><text fill="#000000" font-family="sans-serif" font-size="13" lengthAdjust="spacing" textLength="175" x="40.5" y="428.9575">Submit signed data hash +</text><text fill="#000000" font-family="sans-serif" font-size="13" lengthAdjust="spacing" textLength="162" x="40.5" y="444.0903">contract creation params</text><polygon fill="#181818" points="404.5,489.4219,394.5,493.4219,404.5,497.4219,400.5,493.4219" style="stroke:#181818;stroke-width:1.0;"/><line style="stroke:#181818;stroke-width:1.0;" x1="398.5" x2="642.5" y1="493.4219" y2="493.4219"/><text fill="#000000" font-family="sans-serif" font-size="13" lengthAdjust="spacing" textLength="226" x="410.5" y="473.2231">Get hashed ids for creation params</text><text fill="#000000" font-family="sans-serif" font-size="13" lengthAdjust="spacing" textLength="4" x="410.5" y="488.356"> </text><polygon fill="#181818" points="631.5,518.5547,641.5,522.5547,631.5,526.5547,635.5,522.5547" style="stroke:#181818;stroke-width:1.0;"/><line style="stroke:#181818;stroke-width:1.0;stroke-dasharray:2.0,2.0;" x1="393.5" x2="637.5" y1="522.5547" y2="522.5547"/><text fill="#000000" font-family="sans-serif" font-size="13" lengthAdjust="spacing" textLength="69" x="400.5" y="517.4888">hashed ids</text><polygon fill="#181818" points="846.5,577.9531,856.5,581.9531,846.5,585.9531,850.5,581.9531" style="stroke:#181818;stroke-width:1.0;"/><line style="stroke:#181818;stroke-width:1.0;" x1="643.5" x2="852.5" y1="581.9531" y2="581.9531"/><text fill="#000000" font-family="sans-serif" font-size="13" lengthAdjust="spacing" textLength="162" x="650.5" y="546.6216">store signed data hash +</text><text fill="#000000" font-family="sans-serif" font-size="13" lengthAdjust="spacing" textLength="162" x="650.5" y="561.7544">contract creation params</text><text fill="#000000" font-family="sans-serif" font-size="13" lengthAdjust="spacing" textLength="33" x="650.5" y="576.8872">+ ids</text><!--SRC=[lPB1ReCm38RlUGgVTgdw0XmcRQsqxLQfLoukCH0L34sSIhpzGg25WP2soquGo_dy_t-CcJGM3fOmV1Mn6Ec68vsme4VbPAasB6GF3Ol5JDIbyQpHTd0s1QDuIs-dhqVxitPyLsg4m_vr1ax0aVWMif47o1gakH8x5Oxc7lhcEgRVdZEVcS0TAwFxVYbH9kBBm8EilseQXXOjrWxG4dWsDqzgpkcvAvi952HGeYj9Wz4Eyc1a0KnPhUx1VgLoWgp6pk9A82ifkuB9uxXUArPXdkx0XH19BoulGXsZwCLPShuIjnc_lzH65hbk-6-7ycTmS4J13RjpUj20qN4Cp0N9Xel5i55O4fI6jt0Isw8pQFAK9uRIjBaIWx6VIP-ZjOWBWKzITYa_bsFnXh_PX8__teJuu7-oaV8kOjKt]--></g></svg>