<?xml version="1.0" encoding="UTF-8" standalone="no"?><svg xmlns="http://www.w3.org/2000/svg" xmlns:xlink="http://www.w3.org/1999/xlink" contentStyleType="text/css" height="650px" preserveAspectRatio="none" style="width:952px;height:650px;background:#FFFFFF;" version="1.1" viewBox="0 0 952 650" width="952px" zoomAndPan="magnify"><defs/><g><rect fill="#FFFFFF" height="116.5313" style="stroke:#181818;stroke-width:1.0;" width="10" x="184.5" y="127.5625"/><rect fill="#FFFFFF" height="234.0625" style="stroke:#181818;stroke-width:1.0;" width="10" x="577" y="288.3594"/><rect fill="#FFFFFF" height="123.5313" style="stroke:#181818;stroke-width:1.0;" width="10" x="881" y="428.0234"/><rect fill="none" height="75.3984" style="stroke:#000000;stroke-width:1.5;" width="440.5" x="506" y="360.625"/><line style="stroke:#181818;stroke-width:0.5;stroke-dasharray:5.0,5.0;" x1="38" x2="38" y1="81.2969" y2="569.5547"/><line style="stroke:#181818;stroke-width:0.5;stroke-dasharray:5.0,5.0;" x1="189.5" x2="189.5" y1="81.2969" y2="569.5547"/><line style="stroke:#181818;stroke-width:0.5;stroke-dasharray:5.0,5.0;" x1="459" x2="459" y1="81.2969" y2="569.5547"/><line style="stroke:#181818;stroke-width:0.5;stroke-dasharray:5.0,5.0;" x1="582" x2="582" y1="81.2969" y2="569.5547"/><line style="stroke:#181818;stroke-width:0.5;stroke-dasharray:5.0,5.0;" x1="749.5" x2="749.5" y1="81.2969" y2="569.5547"/><line style="stroke:#181818;stroke-width:0.5;stroke-dasharray:5.0,5.0;" x1="885.5" x2="885.5" y1="81.2969" y2="569.5547"/><text fill="#000000" font-family="sans-serif" font-size="14" lengthAdjust="spacing" textLength="61" x="5" y="77.9951">Collector</text><ellipse cx="38.5" cy="13.5" fill="#E2E2F0" rx="8" ry="8" style="stroke:#181818;stroke-width:0.5;"/><path d="M38.5,21.5 L38.5,48.5 M25.5,29.5 L51.5,29.5 M38.5,48.5 L25.5,63.5 M38.5,48.5 L51.5,63.5 " fill="none" style="stroke:#181818;stroke-width:0.5;"/><text fill="#000000" font-family="sans-serif" font-size="14" lengthAdjust="spacing" textLength="61" x="5" y="581.5498">Collector</text><ellipse cx="38.5" cy="593.3516" fill="#E2E2F0" rx="8" ry="8" style="stroke:#181818;stroke-width:0.5;"/><path d="M38.5,601.3516 L38.5,628.3516 M25.5,609.3516 L51.5,609.3516 M38.5,628.3516 L25.5,643.3516 M38.5,628.3516 L51.5,643.3516 " fill="none" style="stroke:#181818;stroke-width:0.5;"/><text fill="#000000" font-family="sans-serif" font-size="14" lengthAdjust="spacing" textLength="82" x="145.5" y="77.9951">CollectPage</text><ellipse cx="189.5" cy="49" fill="#E2E2F0" rx="12" ry="12" style="stroke:#181818;stroke-width:0.5;"/><line style="stroke:#181818;stroke-width:0.5;" x1="177.5" x2="201.5" y1="63" y2="63"/><text fill="#000000" font-family="sans-serif" font-size="14" lengthAdjust="spacing" textLength="82" x="145.5" y="581.5498">CollectPage</text><ellipse cx="189.5" cy="600.8516" fill="#E2E2F0" rx="12" ry="12" style="stroke:#181818;stroke-width:0.5;"/><line style="stroke:#181818;stroke-width:0.5;" x1="177.5" x2="201.5" y1="614.8516" y2="614.8516"/><text fill="#000000" font-family="sans-serif" font-size="14" lengthAdjust="spacing" textLength="87" x="413" y="77.9951">SignatureAPI</text><path d="M439,37 L439,61 M439,49 L456,49 " fill="none" style="stroke:#181818;stroke-width:0.5;"/><ellipse cx="468" cy="49" fill="#E2E2F0" rx="12" ry="12" style="stroke:#181818;stroke-width:0.5;"/><text fill="#000000" font-family="sans-serif" font-size="14" lengthAdjust="spacing" textLength="87" x="413" y="581.5498">SignatureAPI</text><path d="M439,588.8516 L439,612.8516 M439,600.8516 L456,600.8516 " fill="none" style="stroke:#181818;stroke-width:0.5;"/><ellipse cx="468" cy="600.8516" fill="#E2E2F0" rx="12" ry="12" style="stroke:#181818;stroke-width:0.5;"/><text fill="#000000" font-family="sans-serif" font-size="14" lengthAdjust="spacing" textLength="126" x="516" y="77.9951">PreminterContract</text><ellipse cx="582" cy="49" fill="#E2E2F0" rx="12" ry="12" style="stroke:#181818;stroke-width:0.5;"/><line style="stroke:#181818;stroke-width:0.5;" x1="570" x2="594" y1="63" y2="63"/><text fill="#000000" font-family="sans-serif" font-size="14" lengthAdjust="spacing" textLength="126" x="516" y="581.5498">PreminterContract</text><ellipse cx="582" cy="600.8516" fill="#E2E2F0" rx="12" ry="12" style="stroke:#181818;stroke-width:0.5;"/><line style="stroke:#181818;stroke-width:0.5;" x1="570" x2="594" y1="614.8516" y2="614.8516"/><text fill="#000000" font-family="sans-serif" font-size="14" lengthAdjust="spacing" textLength="145" x="674.5" y="77.9951">1155FactoryContract</text><ellipse cx="750" cy="49" fill="#E2E2F0" rx="12" ry="12" style="stroke:#181818;stroke-width:0.5;"/><line style="stroke:#181818;stroke-width:0.5;" x1="738" x2="762" y1="63" y2="63"/><text fill="#000000" font-family="sans-serif" font-size="14" lengthAdjust="spacing" textLength="145" x="674.5" y="581.5498">1155FactoryContract</text><ellipse cx="750" cy="600.8516" fill="#E2E2F0" rx="12" ry="12" style="stroke:#181818;stroke-width:0.5;"/><line style="stroke:#181818;stroke-width:0.5;" x1="738" x2="762" y1="614.8516" y2="614.8516"/><text fill="#000000" font-family="sans-serif" font-size="14" lengthAdjust="spacing" textLength="95" x="835.5" y="77.9951">1155Contract</text><ellipse cx="886" cy="49" fill="#E2E2F0" rx="12" ry="12" style="stroke:#181818;stroke-width:0.5;"/><line style="stroke:#181818;stroke-width:0.5;" x1="874" x2="898" y1="63" y2="63"/><text fill="#000000" font-family="sans-serif" font-size="14" lengthAdjust="spacing" textLength="95" x="835.5" y="581.5498">1155Contract</text><ellipse cx="886" cy="600.8516" fill="#E2E2F0" rx="12" ry="12" style="stroke:#181818;stroke-width:0.5;"/><line style="stroke:#181818;stroke-width:0.5;" x1="874" x2="898" y1="614.8516" y2="614.8516"/><rect fill="#FFFFFF" height="116.5313" style="stroke:#181818;stroke-width:1.0;" width="10" x="184.5" y="127.5625"/><rect fill="#FFFFFF" height="234.0625" style="stroke:#181818;stroke-width:1.0;" width="10" x="577" y="288.3594"/><rect fill="#FFFFFF" height="123.5313" style="stroke:#181818;stroke-width:1.0;" width="10" x="881" y="428.0234"/><polygon fill="#181818" points="172.5,123.5625,182.5,127.5625,172.5,131.5625,176.5,127.5625" style="stroke:#181818;stroke-width:1.0;"/><line style="stroke:#181818;stroke-width:1.0;" x1="38.5" x2="178.5" y1="127.5625" y2="127.5625"/><text fill="#000000" font-family="sans-serif" font-size="13" lengthAdjust="spacing" textLength="116" x="45.5" y="107.3638">Open, params are</text><text fill="#000000" font-family="sans-serif" font-size="13" lengthAdjust="spacing" textLength="95" x="45.5" y="122.4966">signature hash</text><polygon fill="#181818" points="447.5,152.6953,457.5,156.6953,447.5,160.6953,451.5,156.6953" style="stroke:#181818;stroke-width:1.0;"/><line style="stroke:#181818;stroke-width:1.0;" x1="194.5" x2="453.5" y1="156.6953" y2="156.6953"/><text fill="#000000" font-family="sans-serif" font-size="13" lengthAdjust="spacing" textLength="153" x="201.5" y="151.6294">Fetch by signature hash</text><polygon fill="#181818" points="205.5,181.8281,195.5,185.8281,205.5,189.8281,201.5,185.8281" style="stroke:#181818;stroke-width:1.0;"/><line style="stroke:#181818;stroke-width:1.0;" x1="199.5" x2="458.5" y1="185.8281" y2="185.8281"/><text fill="#000000" font-family="sans-serif" font-size="13" lengthAdjust="spacing" textLength="241" x="211.5" y="180.7622">contract creation params + signature</text><polygon fill="#181818" points="172.5,210.9609,182.5,214.9609,172.5,218.9609,176.5,214.9609" style="stroke:#181818;stroke-width:1.0;"/><line style="stroke:#181818;stroke-width:1.0;" x1="38.5" x2="178.5" y1="214.9609" y2="214.9609"/><text fill="#000000" font-family="sans-serif" font-size="13" lengthAdjust="spacing" textLength="29" x="45.5" y="209.895">mint</text><polygon fill="#181818" points="49.5,240.0938,39.5,244.0938,49.5,248.0938,45.5,244.0938" style="stroke:#181818;stroke-width:1.0;"/><line style="stroke:#181818;stroke-width:1.0;" x1="43.5" x2="188.5" y1="244.0938" y2="244.0938"/><text fill="#000000" font-family="sans-serif" font-size="13" lengthAdjust="spacing" textLength="122" x="55.5" y="239.0278">Submit transaction</text><polygon fill="#181818" points="565,284.3594,575,288.3594,565,292.3594,569,288.3594" style="stroke:#181818;stroke-width:1.0;"/><line style="stroke:#181818;stroke-width:1.0;" x1="38.5" x2="571" y1="288.3594" y2="288.3594"/><text fill="#000000" font-family="sans-serif" font-size="13" lengthAdjust="spacing" textLength="246" x="45.5" y="268.1606">Submit premint transaction containing</text><text fill="#000000" font-family="sans-serif" font-size="13" lengthAdjust="spacing" textLength="341" x="45.5" y="283.2935">signature, contract creation &amp; token creation params</text><line style="stroke:#181818;stroke-width:1.0;" x1="587" x2="629" y1="332.625" y2="332.625"/><line style="stroke:#181818;stroke-width:1.0;" x1="629" x2="629" y1="332.625" y2="345.625"/><line style="stroke:#181818;stroke-width:1.0;" x1="588" x2="629" y1="345.625" y2="345.625"/><polygon fill="#181818" points="598,341.625,588,345.625,598,349.625,594,345.625" style="stroke:#181818;stroke-width:1.0;"/><text fill="#000000" font-family="sans-serif" font-size="13" lengthAdjust="spacing" textLength="144" x="594" y="312.4263">record signature used;</text><text fill="#000000" font-family="sans-serif" font-size="13" lengthAdjust="spacing" textLength="135" x="594" y="327.5591">revert if already used</text><path d="M506,360.625 L708,360.625 L708,367.7578 L698,377.7578 L506,377.7578 L506,360.625 " fill="#EEEEEE" style="stroke:#000000;stroke-width:1.5;"/><rect fill="none" height="75.3984" style="stroke:#000000;stroke-width:1.5;" width="440.5" x="506" y="360.625"/><text fill="#000000" font-family="sans-serif" font-size="13" font-weight="bold" lengthAdjust="spacing" textLength="157" x="521" y="373.6919">contract doesnt exist</text><polygon fill="#181818" points="738,394.8906,748,398.8906,738,402.8906,742,398.8906" style="stroke:#181818;stroke-width:1.0;"/><line style="stroke:#181818;stroke-width:1.0;" x1="587" x2="744" y1="398.8906" y2="398.8906"/><text fill="#000000" font-family="sans-serif" font-size="13" lengthAdjust="spacing" textLength="98" x="594" y="393.8247">create contract</text><polygon fill="#181818" points="869,424.0234,879,428.0234,869,432.0234,873,428.0234" style="stroke:#181818;stroke-width:1.0;"/><line style="stroke:#181818;stroke-width:1.0;" x1="750" x2="875" y1="428.0234" y2="428.0234"/><text fill="#000000" font-family="sans-serif" font-size="13" lengthAdjust="spacing" textLength="41" x="757" y="422.9575">create</text><polygon fill="#181818" points="869,460.1563,879,464.1563,869,468.1563,873,464.1563" style="stroke:#181818;stroke-width:1.0;"/><line style="stroke:#181818;stroke-width:1.0;" x1="587" x2="875" y1="464.1563" y2="464.1563"/><text fill="#000000" font-family="sans-serif" font-size="13" lengthAdjust="spacing" textLength="110" x="594" y="459.0903">create new token</text><polygon fill="#181818" points="869,489.2891,879,493.2891,869,497.2891,873,493.2891" style="stroke:#181818;stroke-width:1.0;"/><line style="stroke:#181818;stroke-width:1.0;" x1="587" x2="875" y1="493.2891" y2="493.2891"/><text fill="#000000" font-family="sans-serif" font-size="13" lengthAdjust="spacing" textLength="198" x="594" y="488.2231">set new token sale parameters</text><polygon fill="#181818" points="869,518.4219,879,522.4219,869,526.4219,873,522.4219" style="stroke:#181818;stroke-width:1.0;"/><line style="stroke:#181818;stroke-width:1.0;" x1="582" x2="875" y1="522.4219" y2="522.4219"/><text fill="#000000" font-family="sans-serif" font-size="13" lengthAdjust="spacing" textLength="151" x="589" y="517.356">mint tokens to collector</text><polygon fill="#181818" points="49.5,547.5547,39.5,551.5547,49.5,555.5547,45.5,551.5547" style="stroke:#181818;stroke-width:1.0;"/><line style="stroke:#181818;stroke-width:1.0;stroke-dasharray:2.0,2.0;" x1="43.5" x2="885" y1="551.5547" y2="551.5547"/><text fill="#000000" font-family="sans-serif" font-size="13" lengthAdjust="spacing" textLength="90" x="55.5" y="546.4888">Minted tokens</text><!--SRC=[ZLEzRi8m4Dxz53TrAGmCBAbK2I5HCLH5OcKvuYjO3UV8lj3cxUia93Wa8AH8YNpt_Pqlc8friBHPHjMN8XOZPNkmmGE1sjk2DReIjkR0A8MZnMRTTcuSdGmBkQLbSPXAMvZDvlCLLgJbMAaxKvquJDzZuGI-Sk89vEZmv04TmOvzQm6Ew8zgaOever2CKx7vG1cxJc15aXvXNqAV2LJSDd2INjn2wWZ5M6vTlLvv7WIf9dHhg-jEO5liJqOWAB0F8e5UQS87qHg9mUWxfhofn8nr13Hi-12FSJ8IxGN4_X3VPbMTe-6T3qxk-7EKMgUZsHUUzDkE7Pt92PXlm2oewh8kAFNXR95VBMfBFiIYF-D50OG7O5HwPFcI9WzrR3LwfB75tmBh_cu6_Hqc3cRlEXbOOFfjPlmCnfDS0U0ne-P2AA3yCmJDAbHe7ruXV_kpnrislDEO1ARzZVsiMlM5DARfZUKV]--></g></svg>