<?xml version="1.0" encoding="UTF-8" standalone="no"?><svg xmlns="http://www.w3.org/2000/svg" xmlns:xlink="http://www.w3.org/1999/xlink" contentStyleType="text/css" height="899px" preserveAspectRatio="none" style="width:876px;height:899px;background:#FFFFFF;" version="1.1" viewBox="0 0 876 899" width="876px" zoomAndPan="magnify"><defs/><g><text fill="#000000" font-family="sans-serif" font-size="14" font-weight="bold" lengthAdjust="spacing" textLength="451" x="214" y="27.9951">Creating a signature for a new erc1155 contract + token</text><rect fill="#FFFFFF" height="583.1875" style="stroke:#181818;stroke-width:1.0;" width="10" x="298.5" y="128.5938"/><rect fill="none" height="179.0625" style="stroke:#000000;stroke-width:1.5;" width="860" x="10" y="135.5938"/><rect fill="none" height="163.9297" style="stroke:#000000;stroke-width:1.5;" width="860" x="10" y="328.6563"/><line style="stroke:#181818;stroke-width:0.5;stroke-dasharray:5.0,5.0;" x1="48" x2="48" y1="118.5938" y2="818.3125"/><line style="stroke:#181818;stroke-width:0.5;stroke-dasharray:5.0,5.0;" x1="303" x2="303" y1="118.5938" y2="818.3125"/><line style="stroke:#181818;stroke-width:0.5;stroke-dasharray:5.0,5.0;" x1="591" x2="591" y1="118.5938" y2="818.3125"/><line style="stroke:#181818;stroke-width:0.5;stroke-dasharray:5.0,5.0;" x1="813" x2="813" y1="118.5938" y2="818.3125"/><text fill="#000000" font-family="sans-serif" font-size="14" lengthAdjust="spacing" textLength="51" x="20" y="115.292">Creator</text><ellipse cx="48.5" cy="50.7969" fill="#E2E2F0" rx="8" ry="8" style="stroke:#181818;stroke-width:0.5;"/><path d="M48.5,58.7969 L48.5,85.7969 M35.5,66.7969 L61.5,66.7969 M48.5,85.7969 L35.5,100.7969 M48.5,85.7969 L61.5,100.7969 " fill="none" style="stroke:#181818;stroke-width:0.5;"/><text fill="#000000" font-family="sans-serif" font-size="14" lengthAdjust="spacing" textLength="51" x="20" y="830.3076">Creator</text><ellipse cx="48.5" cy="842.1094" fill="#E2E2F0" rx="8" ry="8" style="stroke:#181818;stroke-width:0.5;"/><path d="M48.5,850.1094 L48.5,877.1094 M35.5,858.1094 L61.5,858.1094 M48.5,877.1094 L35.5,892.1094 M48.5,877.1094 L61.5,892.1094 " fill="none" style="stroke:#181818;stroke-width:0.5;"/><text fill="#000000" font-family="sans-serif" font-size="14" lengthAdjust="spacing" textLength="81" x="260" y="115.292">CreatePage</text><ellipse cx="303.5" cy="86.2969" fill="#E2E2F0" rx="12" ry="12" style="stroke:#181818;stroke-width:0.5;"/><line style="stroke:#181818;stroke-width:0.5;" x1="291.5" x2="315.5" y1="100.2969" y2="100.2969"/><text fill="#000000" font-family="sans-serif" font-size="14" lengthAdjust="spacing" textLength="81" x="260" y="830.3076">CreatePage</text><ellipse cx="303.5" cy="849.6094" fill="#E2E2F0" rx="12" ry="12" style="stroke:#181818;stroke-width:0.5;"/><line style="stroke:#181818;stroke-width:0.5;" x1="291.5" x2="315.5" y1="863.6094" y2="863.6094"/><text fill="#000000" font-family="sans-serif" font-size="14" lengthAdjust="spacing" textLength="87" x="545" y="115.292">SignatureAPI</text><path d="M571,74.2969 L571,98.2969 M571,86.2969 L588,86.2969 " fill="none" style="stroke:#181818;stroke-width:0.5;"/><ellipse cx="600" cy="86.2969" fill="#E2E2F0" rx="12" ry="12" style="stroke:#181818;stroke-width:0.5;"/><text fill="#000000" font-family="sans-serif" font-size="14" lengthAdjust="spacing" textLength="87" x="545" y="830.3076">SignatureAPI</text><path d="M571,837.6094 L571,861.6094 M571,849.6094 L588,849.6094 " fill="none" style="stroke:#181818;stroke-width:0.5;"/><ellipse cx="600" cy="849.6094" fill="#E2E2F0" rx="12" ry="12" style="stroke:#181818;stroke-width:0.5;"/><text fill="#000000" font-family="sans-serif" font-size="14" lengthAdjust="spacing" textLength="87" x="767" y="115.292">SignatureDB</text><ellipse cx="813.5" cy="86.2969" fill="#E2E2F0" rx="12" ry="12" style="stroke:#181818;stroke-width:0.5;"/><line style="stroke:#181818;stroke-width:0.5;" x1="801.5" x2="825.5" y1="100.2969" y2="100.2969"/><text fill="#000000" font-family="sans-serif" font-size="14" lengthAdjust="spacing" textLength="87" x="767" y="830.3076">SignatureDB</text><ellipse cx="813.5" cy="849.6094" fill="#E2E2F0" rx="12" ry="12" style="stroke:#181818;stroke-width:0.5;"/><line style="stroke:#181818;stroke-width:0.5;" x1="801.5" x2="825.5" y1="863.6094" y2="863.6094"/><rect fill="#FFFFFF" height="583.1875" style="stroke:#181818;stroke-width:1.0;" width="10" x="298.5" y="128.5938"/><path d="M10,135.5938 L402,135.5938 L402,142.7266 L392,152.7266 L10,152.7266 L10,135.5938 " fill="#EEEEEE" style="stroke:#000000;stroke-width:1.5;"/><rect fill="none" height="179.0625" style="stroke:#000000;stroke-width:1.5;" width="860" x="10" y="135.5938"/><text fill="#000000" font-family="sans-serif" font-size="13" font-weight="bold" lengthAdjust="spacing" textLength="347" x="25" y="148.6606">Signature not created for token in contract yet</text><polygon fill="#181818" points="286.5,169.8594,296.5,173.8594,286.5,177.8594,290.5,173.8594" style="stroke:#181818;stroke-width:1.0;"/><line style="stroke:#181818;stroke-width:1.0;" x1="48.5" x2="292.5" y1="173.8594" y2="173.8594"/><text fill="#000000" font-family="sans-serif" font-size="13" lengthAdjust="spacing" textLength="226" x="55.5" y="168.7935">setup NEW contract name + image</text><polygon fill="#181818" points="579.5,229.2578,589.5,233.2578,579.5,237.2578,583.5,233.2578" style="stroke:#181818;stroke-width:1.0;"/><line style="stroke:#181818;stroke-width:1.0;" x1="308.5" x2="585.5" y1="233.2578" y2="233.2578"/><text fill="#000000" font-family="sans-serif" font-size="13" lengthAdjust="spacing" textLength="137" x="315.5" y="197.9263">validate that contract</text><text fill="#000000" font-family="sans-serif" font-size="13" lengthAdjust="spacing" textLength="139" x="315.5" y="213.0591">with same params for</text><text fill="#000000" font-family="sans-serif" font-size="13" lengthAdjust="spacing" textLength="128" x="315.5" y="228.1919">creator doesnt exist</text><polygon fill="#181818" points="801.5,273.5234,811.5,277.5234,801.5,281.5234,805.5,277.5234" style="stroke:#181818;stroke-width:1.0;"/><line style="stroke:#181818;stroke-width:1.0;" x1="591.5" x2="807.5" y1="277.5234" y2="277.5234"/><text fill="#000000" font-family="sans-serif" font-size="13" lengthAdjust="spacing" textLength="161" x="598.5" y="257.3247">check if hash for contract</text><text fill="#000000" font-family="sans-serif" font-size="13" lengthAdjust="spacing" textLength="106" x="598.5" y="272.4575">is already stored</text><polygon fill="#181818" points="319.5,302.6563,309.5,306.6563,319.5,310.6563,315.5,306.6563" style="stroke:#181818;stroke-width:1.0;"/><line style="stroke:#181818;stroke-width:1.0;stroke-dasharray:2.0,2.0;" x1="313.5" x2="590.5" y1="306.6563" y2="306.6563"/><text fill="#000000" font-family="sans-serif" font-size="13" lengthAdjust="spacing" textLength="108" x="325.5" y="301.5903">validation results</text><path d="M10,328.6563 L418,328.6563 L418,335.7891 L408,345.7891 L10,345.7891 L10,328.6563 " fill="#EEEEEE" style="stroke:#000000;stroke-width:1.5;"/><rect fill="none" height="163.9297" style="stroke:#000000;stroke-width:1.5;" width="860" x="10" y="328.6563"/><text fill="#000000" font-family="sans-serif" font-size="13" font-weight="bold" lengthAdjust="spacing" textLength="363" x="25" y="341.7231">Signature has been created for token in contract</text><polygon fill="#181818" points="286.5,378.0547,296.5,382.0547,286.5,386.0547,290.5,382.0547" style="stroke:#181818;stroke-width:1.0;"/><line style="stroke:#181818;stroke-width:1.0;" x1="48.5" x2="292.5" y1="382.0547" y2="382.0547"/><text fill="#000000" font-family="sans-serif" font-size="13" lengthAdjust="spacing" textLength="82" x="55.5" y="361.856">load page by</text><text fill="#000000" font-family="sans-serif" font-size="13" lengthAdjust="spacing" textLength="88" x="55.5" y="376.9888">contract hash</text><polygon fill="#181818" points="579.5,407.1875,589.5,411.1875,579.5,415.1875,583.5,411.1875" style="stroke:#181818;stroke-width:1.0;"/><line style="stroke:#181818;stroke-width:1.0;" x1="308.5" x2="585.5" y1="411.1875" y2="411.1875"/><text fill="#000000" font-family="sans-serif" font-size="13" lengthAdjust="spacing" textLength="193" x="315.5" y="406.1216">load contract creation params</text><polygon fill="#181818" points="801.5,451.4531,811.5,455.4531,801.5,459.4531,805.5,455.4531" style="stroke:#181818;stroke-width:1.0;"/><line style="stroke:#181818;stroke-width:1.0;" x1="591.5" x2="807.5" y1="455.4531" y2="455.4531"/><text fill="#000000" font-family="sans-serif" font-size="13" lengthAdjust="spacing" textLength="198" x="598.5" y="435.2544">fetch contract creation params</text><text fill="#000000" font-family="sans-serif" font-size="13" lengthAdjust="spacing" textLength="50" x="598.5" y="450.3872">by hash</text><polygon fill="#181818" points="319.5,480.5859,309.5,484.5859,319.5,488.5859,315.5,484.5859" style="stroke:#181818;stroke-width:1.0;"/><line style="stroke:#181818;stroke-width:1.0;stroke-dasharray:2.0,2.0;" x1="313.5" x2="590.5" y1="484.5859" y2="484.5859"/><text fill="#000000" font-family="sans-serif" font-size="13" lengthAdjust="spacing" textLength="162" x="325.5" y="479.52">contract creation params</text><polygon fill="#181818" points="286.5,516.7188,296.5,520.7188,286.5,524.7188,290.5,520.7188" style="stroke:#181818;stroke-width:1.0;"/><line style="stroke:#181818;stroke-width:1.0;" x1="48.5" x2="292.5" y1="520.7188" y2="520.7188"/><text fill="#000000" font-family="sans-serif" font-size="13" lengthAdjust="spacing" textLength="158" x="55.5" y="515.6528">setup new token params</text><polygon fill="#181818" points="579.5,560.9844,589.5,564.9844,579.5,568.9844,583.5,564.9844" style="stroke:#181818;stroke-width:1.0;"/><line style="stroke:#181818;stroke-width:1.0;" x1="308.5" x2="585.5" y1="564.9844" y2="564.9844"/><text fill="#000000" font-family="sans-serif" font-size="13" lengthAdjust="spacing" textLength="196" x="315.5" y="544.7856">validate signature doesnt exist</text><text fill="#000000" font-family="sans-serif" font-size="13" lengthAdjust="spacing" textLength="259" x="315.5" y="559.9185">for identitical creator + contract + token</text><polygon fill="#181818" points="801.5,605.25,811.5,609.25,801.5,613.25,805.5,609.25" style="stroke:#181818;stroke-width:1.0;"/><line style="stroke:#181818;stroke-width:1.0;" x1="591.5" x2="807.5" y1="609.25" y2="609.25"/><text fill="#000000" font-family="sans-serif" font-size="13" lengthAdjust="spacing" textLength="168" x="598.5" y="589.0513">check if hash for signature</text><text fill="#000000" font-family="sans-serif" font-size="13" lengthAdjust="spacing" textLength="106" x="598.5" y="604.1841">is already stored</text><polygon fill="#181818" points="319.5,634.3828,309.5,638.3828,319.5,642.3828,315.5,638.3828" style="stroke:#181818;stroke-width:1.0;"/><line style="stroke:#181818;stroke-width:1.0;stroke-dasharray:2.0,2.0;" x1="313.5" x2="590.5" y1="638.3828" y2="638.3828"/><text fill="#000000" font-family="sans-serif" font-size="13" lengthAdjust="spacing" textLength="108" x="325.5" y="633.3169">validation results</text><polygon fill="#181818" points="286.5,663.5156,296.5,667.5156,286.5,671.5156,290.5,667.5156" style="stroke:#181818;stroke-width:1.0;"/><line style="stroke:#181818;stroke-width:1.0;" x1="48.5" x2="292.5" y1="667.5156" y2="667.5156"/><text fill="#000000" font-family="sans-serif" font-size="13" lengthAdjust="spacing" textLength="44" x="55.5" y="662.4497">submit</text><polygon fill="#181818" points="59.5,707.7813,49.5,711.7813,59.5,715.7813,55.5,711.7813" style="stroke:#181818;stroke-width:1.0;"/><line style="stroke:#181818;stroke-width:1.0;" x1="53.5" x2="302.5" y1="711.7813" y2="711.7813"/><text fill="#000000" font-family="sans-serif" font-size="13" lengthAdjust="spacing" textLength="129" x="65.5" y="691.5825">request signature of</text><text fill="#000000" font-family="sans-serif" font-size="13" lengthAdjust="spacing" textLength="64" x="69.5" y="706.7153">data hash</text><polygon fill="#181818" points="579.5,736.9141,589.5,740.9141,579.5,744.9141,583.5,740.9141" style="stroke:#181818;stroke-width:1.0;"/><line style="stroke:#181818;stroke-width:1.0;" x1="48.5" x2="585.5" y1="740.9141" y2="740.9141"/><text fill="#000000" font-family="sans-serif" font-size="13" lengthAdjust="spacing" textLength="290" x="55.5" y="735.8481">Submit signature + contract + token params</text><polygon fill="#181818" points="801.5,796.3125,811.5,800.3125,801.5,804.3125,805.5,800.3125" style="stroke:#181818;stroke-width:1.0;"/><line style="stroke:#181818;stroke-width:1.0;" x1="591.5" x2="807.5" y1="800.3125" y2="800.3125"/><text fill="#000000" font-family="sans-serif" font-size="13" lengthAdjust="spacing" textLength="112" x="598.5" y="764.981">store signature +</text><text fill="#000000" font-family="sans-serif" font-size="13" lengthAdjust="spacing" textLength="124" x="598.5" y="780.1138">contract creation +</text><text fill="#000000" font-family="sans-serif" font-size="13" lengthAdjust="spacing" textLength="145" x="598.5" y="795.2466">token creation params</text><!--SRC=[bPC_JyCm4CLtVuhR4GC3ImSa_Wcn82G6bYoEVMqiqdEnBotvzfoTfd5RMa3AOklklNU_dDbnYt0VKBEZ1MY8Ra6Qku0mzq7EX1l0OAwkhg_1UEAW3SC5iFz0KaeEKfNRVL18xBWVZlYg5wXgtv7LeOUtKVRszNciszqzt2cbdeBlLjCTa6SmMSdcADaH74qfUcG589ySt5eAIsSOKy7bJN4_WuWiFY-FxvCGwINAJ6vPDERgr5icdy5QjyucAsuqJmeLRHmt49FGIWUzZ2bpHMQRmNgCn81VBgRCfUQUnyFT34o3vWFS71eTcppwQ5EHYw1RqRGzHD55UoHsCEqsh_C40MFNSbI2tnxZ5ZEeKGYVPQvESsszjZAxGAjx6NmaauRuXMdkt3La_vHtuFWRhJcoQKvsLrJtOuIpd4xQ3xJExb9w8WEfRS-V5cXwQELoL9IuEvkVY3EwXN65BewVtp_NQEVuqnxzTujE4UdgfUC30jlQcJH_TXYvcDtFAmAHriDVilZJMowyzc6-PRT2xXZI-4_EiieCzcIA3TvjHBeTD0-Nv1i0]--></g></svg>