<?xml version="1.0" encoding="UTF-8" standalone="no"?><svg xmlns="http://www.w3.org/2000/svg" xmlns:xlink="http://www.w3.org/1999/xlink" contentStyleType="text/css" height="470px" preserveAspectRatio="none" style="width:494px;height:470px;background:#FFFFFF;" version="1.1" viewBox="0 0 494 470" width="494px" zoomAndPan="magnify"><defs/><g><text fill="#000000" font-family="sans-serif" font-size="14" font-weight="bold" lengthAdjust="spacing" textLength="277" x="107" y="32.9951">Collecting with a premint signature</text><ellipse cx="223.5" cy="57.2969" fill="#222222" rx="10" ry="10" style="stroke:#222222;stroke-width:1.0;"/><rect fill="#F1F1F1" height="47.9375" rx="12.5" ry="12.5" style="stroke:#181818;stroke-width:0.5;" width="145" x="151" y="87.2969"/><text fill="#000000" font-family="sans-serif" font-size="12" lengthAdjust="spacing" textLength="112" x="161" y="108.4355">Load signature by</text><text fill="#000000" font-family="sans-serif" font-size="12" lengthAdjust="spacing" textLength="125" x="161" y="122.4043">contract hash &amp; uid</text><polygon fill="#F1F1F1" points="143.5,155.2344,303.5,155.2344,315.5,168.0391,303.5,180.8438,143.5,180.8438,131.5,168.0391,143.5,155.2344" style="stroke:#181818;stroke-width:0.5;"/><text fill="#000000" font-family="sans-serif" font-size="11" lengthAdjust="spacing" textLength="160" x="143.5" y="165.4448">sig with contract hash + uid</text><text fill="#000000" font-family="sans-serif" font-size="11" lengthAdjust="spacing" textLength="97" x="143.5" y="178.2495">already executed</text><text fill="#000000" font-family="sans-serif" font-size="11" lengthAdjust="spacing" textLength="20" x="111.5" y="165.4448">yes</text><text fill="#000000" font-family="sans-serif" font-size="11" lengthAdjust="spacing" textLength="14" x="315.5" y="165.4448">no</text><rect fill="#F1F1F1" height="47.9375" rx="12.5" ry="12.5" style="stroke:#181818;stroke-width:0.5;" width="144" x="28.5" y="190.8438"/><text fill="#000000" font-family="sans-serif" font-size="12" lengthAdjust="spacing" textLength="69" x="38.5" y="211.9824">Redirect to</text><text fill="#000000" font-family="sans-serif" font-size="12" lengthAdjust="spacing" textLength="124" x="38.5" y="225.9512">standard mint page</text><rect fill="#F1F1F1" height="33.9688" rx="12.5" ry="12.5" style="stroke:#181818;stroke-width:0.5;" width="179" x="11" y="273.7813"/><text fill="#000000" font-family="sans-serif" font-size="12" lengthAdjust="spacing" textLength="159" x="21" y="294.9199">Mint on erc1155 contract</text><ellipse cx="100.5" cy="352.6172" fill="none" rx="11" ry="11" style="stroke:#222222;stroke-width:1.0;"/><ellipse cx="100.5" cy="352.6172" fill="#222222" rx="6" ry="6" style="stroke:#111111;stroke-width:1.0;"/><rect fill="#F1F1F1" height="33.9688" rx="12.5" ry="12.5" style="stroke:#181818;stroke-width:0.5;" width="165" x="264" y="239.2461"/><text fill="#000000" font-family="sans-serif" font-size="12" lengthAdjust="spacing" textLength="145" x="274" y="260.3848">Show contract address</text><polygon fill="#F1F1F1" points="277,190.8438,416,190.8438,428,202.8438,416,214.8438,277,214.8438,265,202.8438,277,190.8438" style="stroke:#181818;stroke-width:0.5;"/><text fill="#000000" font-family="sans-serif" font-size="11" lengthAdjust="spacing" textLength="20" x="350.5" y="225.0542">yes</text><text fill="#000000" font-family="sans-serif" font-size="11" lengthAdjust="spacing" textLength="139" x="277" y="206.6519">contract already created</text><polygon fill="#F1F1F1" points="346.5,297.6172,358.5,309.6172,346.5,321.6172,334.5,309.6172,346.5,297.6172" style="stroke:#181818;stroke-width:0.5;"/><rect fill="#F1F1F1" height="61.9063" rx="12.5" ry="12.5" style="stroke:#181818;stroke-width:0.5;" width="273" x="210" y="355.4844"/><text fill="#000000" font-family="sans-serif" font-size="12" lengthAdjust="spacing" textLength="169" x="220" y="376.623">Submit premint containing:</text><text fill="#000000" font-family="sans-serif" font-size="12" lengthAdjust="spacing" textLength="253" x="220" y="390.5918">contract &amp; token params, uid, signature</text><text fill="#000000" font-family="sans-serif" font-size="12" lengthAdjust="spacing" textLength="117" x="220" y="404.5605">quantity, comment</text><ellipse cx="223.5" cy="448.3906" fill="none" rx="11" ry="11" style="stroke:#222222;stroke-width:1.0;"/><ellipse cx="223.5" cy="448.3906" fill="#222222" rx="6" ry="6" style="stroke:#111111;stroke-width:1.0;"/><line style="stroke:#181818;stroke-width:1.0;" x1="223.5" x2="223.5" y1="67.2969" y2="87.2969"/><polygon fill="#181818" points="219.5,77.2969,223.5,87.2969,227.5,77.2969,223.5,81.2969" style="stroke:#181818;stroke-width:1.0;"/><line style="stroke:#181818;stroke-width:1.0;" x1="100.5" x2="100.5" y1="238.7813" y2="273.7813"/><polygon fill="#181818" points="96.5,263.7813,100.5,273.7813,104.5,263.7813,100.5,267.7813" style="stroke:#181818;stroke-width:1.0;"/><line style="stroke:#181818;stroke-width:1.0;" x1="100.5" x2="100.5" y1="307.75" y2="341.6172"/><polygon fill="#181818" points="96.5,331.6172,100.5,341.6172,104.5,331.6172,100.5,335.6172" style="stroke:#181818;stroke-width:1.0;"/><line style="stroke:#181818;stroke-width:1.0;" x1="346.5" x2="346.5" y1="214.8438" y2="239.2461"/><polygon fill="#181818" points="342.5,229.2461,346.5,239.2461,350.5,229.2461,346.5,233.2461" style="stroke:#181818;stroke-width:1.0;"/><line style="stroke:#181818;stroke-width:1.0;" x1="428" x2="440" y1="202.8438" y2="202.8438"/><polygon fill="#181818" points="436,246.2305,440,256.2305,444,246.2305,440,250.2305" style="stroke:#181818;stroke-width:1.0;"/><line style="stroke:#181818;stroke-width:1.0;" x1="440" x2="440" y1="202.8438" y2="309.6172"/><line style="stroke:#181818;stroke-width:1.0;" x1="440" x2="358.5" y1="309.6172" y2="309.6172"/><polygon fill="#181818" points="368.5,305.6172,358.5,309.6172,368.5,313.6172,364.5,309.6172" style="stroke:#181818;stroke-width:1.0;"/><line style="stroke:#181818;stroke-width:1.0;" x1="346.5" x2="346.5" y1="273.2148" y2="297.6172"/><polygon fill="#181818" points="342.5,287.6172,346.5,297.6172,350.5,287.6172,346.5,291.6172" style="stroke:#181818;stroke-width:1.0;"/><line style="stroke:#181818;stroke-width:1.0;" x1="346.5" x2="346.5" y1="321.6172" y2="355.4844"/><polygon fill="#181818" points="342.5,345.4844,346.5,355.4844,350.5,345.4844,346.5,349.4844" style="stroke:#181818;stroke-width:1.0;"/><line style="stroke:#181818;stroke-width:1.0;" x1="131.5" x2="100.5" y1="168.0391" y2="168.0391"/><line style="stroke:#181818;stroke-width:1.0;" x1="100.5" x2="100.5" y1="168.0391" y2="190.8438"/><polygon fill="#181818" points="96.5,180.8438,100.5,190.8438,104.5,180.8438,100.5,184.8438" style="stroke:#181818;stroke-width:1.0;"/><line style="stroke:#181818;stroke-width:1.0;" x1="315.5" x2="346.5" y1="168.0391" y2="168.0391"/><line style="stroke:#181818;stroke-width:1.0;" x1="346.5" x2="346.5" y1="168.0391" y2="190.8438"/><polygon fill="#181818" points="342.5,180.8438,346.5,190.8438,350.5,180.8438,346.5,184.8438" style="stroke:#181818;stroke-width:1.0;"/><line style="stroke:#181818;stroke-width:1.0;" x1="346.5" x2="346.5" y1="417.3906" y2="422.3906"/><line style="stroke:#181818;stroke-width:1.0;" x1="346.5" x2="223.5" y1="422.3906" y2="422.3906"/><line style="stroke:#181818;stroke-width:1.0;" x1="223.5" x2="223.5" y1="422.3906" y2="437.3906"/><polygon fill="#181818" points="219.5,427.3906,223.5,437.3906,227.5,427.3906,223.5,431.3906" style="stroke:#181818;stroke-width:1.0;"/><line style="stroke:#181818;stroke-width:1.0;" x1="223.5" x2="223.5" y1="135.2344" y2="155.2344"/><polygon fill="#181818" points="219.5,145.2344,223.5,155.2344,227.5,145.2344,223.5,149.2344" style="stroke:#181818;stroke-width:1.0;"/><!--SRC=[PP2nRiCm34HtVGMdm46zPCZYZ5tRfLczC19Z4RKfHwAG-kyh9QZTefD0wNZtTCew4ho6SIIhB0FSMJqWp94c5eN4Ww3cICOanQZ6T6y1tNOFbwKN6qGZMWMFoSCEChkJuIiqHVPq_AjugOfUS8o4RW7w8fkLt1xKaq2pKDeRWEw37CV21HfwAV7YC3fuSCquqAbgtkiK12ZQm-5uN8FgOz8m6neJGIEXEbQabUGdtPRZVtYnFljmty3HkKWfLLyInzSQViwNYNKjgsgHfTJO_UfaL_0_Y_EC4QVKrg-tMt-zt3AAiYvjsPycaeB-37ZWVmC0]--></g></svg>