<?xml version="1.0" encoding="UTF-8" standalone="no"?><svg xmlns="http://www.w3.org/2000/svg" xmlns:xlink="http://www.w3.org/1999/xlink" contentStyleType="text/css" height="887px" preserveAspectRatio="none" style="width:1200px;height:887px;background:#FFFFFF;" version="1.1" viewBox="0 0 1200 887" width="1200px" zoomAndPan="magnify"><defs/><g><rect fill="#FFFFFF" height="353.8594" style="stroke:#181818;stroke-width:1.0;" width="10" x="215.5" y="127.5625"/><rect fill="#FFFFFF" height="234.0625" style="stroke:#181818;stroke-width:1.0;" width="10" x="825" y="525.6875"/><rect fill="#FFFFFF" height="123.5313" style="stroke:#181818;stroke-width:1.0;" width="10" x="1129" y="665.3516"/><rect fill="none" height="61.3984" style="stroke:#000000;stroke-width:1.5;" width="291" x="10" y="362.7578"/><rect fill="none" height="75.3984" style="stroke:#000000;stroke-width:1.5;" width="440.5" x="754" y="597.9531"/><line style="stroke:#181818;stroke-width:0.5;stroke-dasharray:5.0,5.0;" x1="53" x2="53" y1="81.2969" y2="806.8828"/><line style="stroke:#181818;stroke-width:0.5;stroke-dasharray:5.0,5.0;" x1="220" x2="220" y1="81.2969" y2="806.8828"/><line style="stroke:#181818;stroke-width:0.5;stroke-dasharray:5.0,5.0;" x1="466" x2="466" y1="81.2969" y2="806.8828"/><line style="stroke:#181818;stroke-width:0.5;stroke-dasharray:5.0,5.0;" x1="707" x2="707" y1="81.2969" y2="806.8828"/><line style="stroke:#181818;stroke-width:0.5;stroke-dasharray:5.0,5.0;" x1="830" x2="830" y1="81.2969" y2="806.8828"/><line style="stroke:#181818;stroke-width:0.5;stroke-dasharray:5.0,5.0;" x1="997.5" x2="997.5" y1="81.2969" y2="806.8828"/><line style="stroke:#181818;stroke-width:0.5;stroke-dasharray:5.0,5.0;" x1="1133.5" x2="1133.5" y1="81.2969" y2="806.8828"/><text fill="#000000" font-family="sans-serif" font-size="14" lengthAdjust="spacing" textLength="61" x="20" y="77.9951">Collector</text><ellipse cx="53.5" cy="13.5" fill="#E2E2F0" rx="8" ry="8" style="stroke:#181818;stroke-width:0.5;"/><path d="M53.5,21.5 L53.5,48.5 M40.5,29.5 L66.5,29.5 M53.5,48.5 L40.5,63.5 M53.5,48.5 L66.5,63.5 " fill="none" style="stroke:#181818;stroke-width:0.5;"/><text fill="#000000" font-family="sans-serif" font-size="14" lengthAdjust="spacing" textLength="61" x="20" y="818.8779">Collector</text><ellipse cx="53.5" cy="830.6797" fill="#E2E2F0" rx="8" ry="8" style="stroke:#181818;stroke-width:0.5;"/><path d="M53.5,838.6797 L53.5,865.6797 M40.5,846.6797 L66.5,846.6797 M53.5,865.6797 L40.5,880.6797 M53.5,865.6797 L66.5,880.6797 " fill="none" style="stroke:#181818;stroke-width:0.5;"/><text fill="#000000" font-family="sans-serif" font-size="14" lengthAdjust="spacing" textLength="135" x="150" y="77.9951">PremintCollectPage</text><ellipse cx="220.5" cy="49" fill="#E2E2F0" rx="12" ry="12" style="stroke:#181818;stroke-width:0.5;"/><line style="stroke:#181818;stroke-width:0.5;" x1="208.5" x2="232.5" y1="63" y2="63"/><text fill="#000000" font-family="sans-serif" font-size="14" lengthAdjust="spacing" textLength="135" x="150" y="818.8779">PremintCollectPage</text><ellipse cx="220.5" cy="838.1797" fill="#E2E2F0" rx="12" ry="12" style="stroke:#181818;stroke-width:0.5;"/><line style="stroke:#181818;stroke-width:0.5;" x1="208.5" x2="232.5" y1="852.1797" y2="852.1797"/><text fill="#000000" font-family="sans-serif" font-size="14" lengthAdjust="spacing" textLength="87" x="420" y="77.9951">SignatureAPI</text><path d="M446,37 L446,61 M446,49 L463,49 " fill="none" style="stroke:#181818;stroke-width:0.5;"/><ellipse cx="475" cy="49" fill="#E2E2F0" rx="12" ry="12" style="stroke:#181818;stroke-width:0.5;"/><text fill="#000000" font-family="sans-serif" font-size="14" lengthAdjust="spacing" textLength="87" x="420" y="818.8779">SignatureAPI</text><path d="M446,826.1797 L446,850.1797 M446,838.1797 L463,838.1797 " fill="none" style="stroke:#181818;stroke-width:0.5;"/><ellipse cx="475" cy="838.1797" fill="#E2E2F0" rx="12" ry="12" style="stroke:#181818;stroke-width:0.5;"/><text fill="#000000" font-family="sans-serif" font-size="14" lengthAdjust="spacing" textLength="87" x="661" y="77.9951">SignatureDB</text><ellipse cx="707.5" cy="49" fill="#E2E2F0" rx="12" ry="12" style="stroke:#181818;stroke-width:0.5;"/><line style="stroke:#181818;stroke-width:0.5;" x1="695.5" x2="719.5" y1="63" y2="63"/><text fill="#000000" font-family="sans-serif" font-size="14" lengthAdjust="spacing" textLength="87" x="661" y="818.8779">SignatureDB</text><ellipse cx="707.5" cy="838.1797" fill="#E2E2F0" rx="12" ry="12" style="stroke:#181818;stroke-width:0.5;"/><line style="stroke:#181818;stroke-width:0.5;" x1="695.5" x2="719.5" y1="852.1797" y2="852.1797"/><text fill="#000000" font-family="sans-serif" font-size="14" lengthAdjust="spacing" textLength="126" x="764" y="77.9951">PreminterContract</text><ellipse cx="830" cy="49" fill="#E2E2F0" rx="12" ry="12" style="stroke:#181818;stroke-width:0.5;"/><line style="stroke:#181818;stroke-width:0.5;" x1="818" x2="842" y1="63" y2="63"/><text fill="#000000" font-family="sans-serif" font-size="14" lengthAdjust="spacing" textLength="126" x="764" y="818.8779">PreminterContract</text><ellipse cx="830" cy="838.1797" fill="#E2E2F0" rx="12" ry="12" style="stroke:#181818;stroke-width:0.5;"/><line style="stroke:#181818;stroke-width:0.5;" x1="818" x2="842" y1="852.1797" y2="852.1797"/><text fill="#000000" font-family="sans-serif" font-size="14" lengthAdjust="spacing" textLength="145" x="922.5" y="77.9951">1155FactoryContract</text><ellipse cx="998" cy="49" fill="#E2E2F0" rx="12" ry="12" style="stroke:#181818;stroke-width:0.5;"/><line style="stroke:#181818;stroke-width:0.5;" x1="986" x2="1010" y1="63" y2="63"/><text fill="#000000" font-family="sans-serif" font-size="14" lengthAdjust="spacing" textLength="145" x="922.5" y="818.8779">1155FactoryContract</text><ellipse cx="998" cy="838.1797" fill="#E2E2F0" rx="12" ry="12" style="stroke:#181818;stroke-width:0.5;"/><line style="stroke:#181818;stroke-width:0.5;" x1="986" x2="1010" y1="852.1797" y2="852.1797"/><text fill="#000000" font-family="sans-serif" font-size="14" lengthAdjust="spacing" textLength="95" x="1083.5" y="77.9951">1155Contract</text><ellipse cx="1134" cy="49" fill="#E2E2F0" rx="12" ry="12" style="stroke:#181818;stroke-width:0.5;"/><line style="stroke:#181818;stroke-width:0.5;" x1="1122" x2="1146" y1="63" y2="63"/><text fill="#000000" font-family="sans-serif" font-size="14" lengthAdjust="spacing" textLength="95" x="1083.5" y="818.8779">1155Contract</text><ellipse cx="1134" cy="838.1797" fill="#E2E2F0" rx="12" ry="12" style="stroke:#181818;stroke-width:0.5;"/><line style="stroke:#181818;stroke-width:0.5;" x1="1122" x2="1146" y1="852.1797" y2="852.1797"/><rect fill="#FFFFFF" height="353.8594" style="stroke:#181818;stroke-width:1.0;" width="10" x="215.5" y="127.5625"/><rect fill="#FFFFFF" height="234.0625" style="stroke:#181818;stroke-width:1.0;" width="10" x="825" y="525.6875"/><rect fill="#FFFFFF" height="123.5313" style="stroke:#181818;stroke-width:1.0;" width="10" x="1129" y="665.3516"/><polygon fill="#181818" points="203.5,123.5625,213.5,127.5625,203.5,131.5625,207.5,127.5625" style="stroke:#181818;stroke-width:1.0;"/><line style="stroke:#181818;stroke-width:1.0;" x1="53.5" x2="209.5" y1="127.5625" y2="127.5625"/><text fill="#000000" font-family="sans-serif" font-size="13" lengthAdjust="spacing" textLength="98" x="60.5" y="107.3638">Open, param is</text><text fill="#000000" font-family="sans-serif" font-size="13" lengthAdjust="spacing" textLength="95" x="60.5" y="122.4966">signature hash</text><polygon fill="#181818" points="454.5,152.6953,464.5,156.6953,454.5,160.6953,458.5,156.6953" style="stroke:#181818;stroke-width:1.0;"/><line style="stroke:#181818;stroke-width:1.0;" x1="225.5" x2="460.5" y1="156.6953" y2="156.6953"/><text fill="#000000" font-family="sans-serif" font-size="13" lengthAdjust="spacing" textLength="153" x="232.5" y="151.6294">Fetch by signature hash</text><polygon fill="#181818" points="695.5,196.9609,705.5,200.9609,695.5,204.9609,699.5,200.9609" style="stroke:#181818;stroke-width:1.0;"/><line style="stroke:#181818;stroke-width:1.0;" x1="466.5" x2="701.5" y1="200.9609" y2="200.9609"/><text fill="#000000" font-family="sans-serif" font-size="13" lengthAdjust="spacing" textLength="153" x="473.5" y="180.7622">Fetch signature by hash</text><text fill="#000000" font-family="sans-serif" font-size="13" lengthAdjust="spacing" textLength="108" x="473.5" y="195.895">that isn't deleted</text><polygon fill="#181818" points="477.5,241.2266,467.5,245.2266,477.5,249.2266,473.5,245.2266" style="stroke:#181818;stroke-width:1.0;"/><line style="stroke:#181818;stroke-width:1.0;stroke-dasharray:2.0,2.0;" x1="471.5" x2="706.5" y1="245.2266" y2="245.2266"/><text fill="#000000" font-family="sans-serif" font-size="13" lengthAdjust="spacing" textLength="217" x="483.5" y="225.0278">contract + token creation params</text><text fill="#000000" font-family="sans-serif" font-size="13" lengthAdjust="spacing" textLength="75" x="483.5" y="240.1606">+ signature</text><polygon fill="#181818" points="236.5,285.4922,226.5,289.4922,236.5,293.4922,232.5,289.4922" style="stroke:#181818;stroke-width:1.0;"/><line style="stroke:#181818;stroke-width:1.0;stroke-dasharray:2.0,2.0;" x1="230.5" x2="465.5" y1="289.4922" y2="289.4922"/><text fill="#000000" font-family="sans-serif" font-size="13" lengthAdjust="spacing" textLength="217" x="242.5" y="269.2935">contract + token creation params</text><text fill="#000000" font-family="sans-serif" font-size="13" lengthAdjust="spacing" textLength="75" x="242.5" y="284.4263">+ signature</text><polygon fill="#181818" points="818,314.625,828,318.625,818,322.625,822,318.625" style="stroke:#181818;stroke-width:1.0;"/><line style="stroke:#181818;stroke-width:1.0;" x1="225.5" x2="824" y1="318.625" y2="318.625"/><text fill="#000000" font-family="sans-serif" font-size="13" lengthAdjust="spacing" textLength="212" x="232.5" y="313.5591">Check if signature has been used</text><polygon fill="#181818" points="236.5,343.7578,226.5,347.7578,236.5,351.7578,232.5,347.7578" style="stroke:#181818;stroke-width:1.0;"/><line style="stroke:#181818;stroke-width:1.0;stroke-dasharray:2.0,2.0;" x1="230.5" x2="829" y1="347.7578" y2="347.7578"/><text fill="#000000" font-family="sans-serif" font-size="13" lengthAdjust="spacing" textLength="202" x="242.5" y="342.6919">Signature has been used or not</text><path d="M10,362.7578 L239,362.7578 L239,369.8906 L229,379.8906 L10,379.8906 L10,362.7578 " fill="#EEEEEE" style="stroke:#000000;stroke-width:1.5;"/><rect fill="none" height="61.3984" style="stroke:#000000;stroke-width:1.5;" width="291" x="10" y="362.7578"/><text fill="#000000" font-family="sans-serif" font-size="13" font-weight="bold" lengthAdjust="spacing" textLength="184" x="25" y="375.8247">signature has been used</text><polygon fill="#181818" points="64.5,412.1563,54.5,416.1563,64.5,420.1563,60.5,416.1563" style="stroke:#181818;stroke-width:1.0;"/><line style="stroke:#181818;stroke-width:1.0;" x1="58.5" x2="214.5" y1="416.1563" y2="416.1563"/><text fill="#000000" font-family="sans-serif" font-size="13" lengthAdjust="spacing" textLength="69" x="70.5" y="395.9575">Redirect to</text><text fill="#000000" font-family="sans-serif" font-size="13" lengthAdjust="spacing" textLength="138" x="70.5" y="411.0903">standard collect page</text><polygon fill="#181818" points="203.5,448.2891,213.5,452.2891,203.5,456.2891,207.5,452.2891" style="stroke:#181818;stroke-width:1.0;"/><line style="stroke:#181818;stroke-width:1.0;" x1="53.5" x2="209.5" y1="452.2891" y2="452.2891"/><text fill="#000000" font-family="sans-serif" font-size="13" lengthAdjust="spacing" textLength="29" x="60.5" y="447.2231">mint</text><polygon fill="#181818" points="64.5,477.4219,54.5,481.4219,64.5,485.4219,60.5,481.4219" style="stroke:#181818;stroke-width:1.0;"/><line style="stroke:#181818;stroke-width:1.0;" x1="58.5" x2="219.5" y1="481.4219" y2="481.4219"/><text fill="#000000" font-family="sans-serif" font-size="13" lengthAdjust="spacing" textLength="122" x="70.5" y="476.356">Submit transaction</text><polygon fill="#181818" points="813,521.6875,823,525.6875,813,529.6875,817,525.6875" style="stroke:#181818;stroke-width:1.0;"/><line style="stroke:#181818;stroke-width:1.0;" x1="53.5" x2="819" y1="525.6875" y2="525.6875"/><text fill="#000000" font-family="sans-serif" font-size="13" lengthAdjust="spacing" textLength="246" x="60.5" y="505.4888">Submit premint transaction containing</text><text fill="#000000" font-family="sans-serif" font-size="13" lengthAdjust="spacing" textLength="341" x="60.5" y="520.6216">signature, contract creation &amp; token creation params</text><line style="stroke:#181818;stroke-width:1.0;" x1="835" x2="877" y1="569.9531" y2="569.9531"/><line style="stroke:#181818;stroke-width:1.0;" x1="877" x2="877" y1="569.9531" y2="582.9531"/><line style="stroke:#181818;stroke-width:1.0;" x1="836" x2="877" y1="582.9531" y2="582.9531"/><polygon fill="#181818" points="846,578.9531,836,582.9531,846,586.9531,842,582.9531" style="stroke:#181818;stroke-width:1.0;"/><text fill="#000000" font-family="sans-serif" font-size="13" lengthAdjust="spacing" textLength="144" x="842" y="549.7544">record signature used;</text><text fill="#000000" font-family="sans-serif" font-size="13" lengthAdjust="spacing" textLength="135" x="842" y="564.8872">revert if already used</text><path d="M754,597.9531 L956,597.9531 L956,605.0859 L946,615.0859 L754,615.0859 L754,597.9531 " fill="#EEEEEE" style="stroke:#000000;stroke-width:1.5;"/><rect fill="none" height="75.3984" style="stroke:#000000;stroke-width:1.5;" width="440.5" x="754" y="597.9531"/><text fill="#000000" font-family="sans-serif" font-size="13" font-weight="bold" lengthAdjust="spacing" textLength="157" x="769" y="611.02">contract doesnt exist</text><polygon fill="#181818" points="986,632.2188,996,636.2188,986,640.2188,990,636.2188" style="stroke:#181818;stroke-width:1.0;"/><line style="stroke:#181818;stroke-width:1.0;" x1="835" x2="992" y1="636.2188" y2="636.2188"/><text fill="#000000" font-family="sans-serif" font-size="13" lengthAdjust="spacing" textLength="98" x="842" y="631.1528">create contract</text><polygon fill="#181818" points="1117,661.3516,1127,665.3516,1117,669.3516,1121,665.3516" style="stroke:#181818;stroke-width:1.0;"/><line style="stroke:#181818;stroke-width:1.0;" x1="998" x2="1123" y1="665.3516" y2="665.3516"/><text fill="#000000" font-family="sans-serif" font-size="13" lengthAdjust="spacing" textLength="41" x="1005" y="660.2856">create</text><polygon fill="#181818" points="1117,697.4844,1127,701.4844,1117,705.4844,1121,701.4844" style="stroke:#181818;stroke-width:1.0;"/><line style="stroke:#181818;stroke-width:1.0;" x1="835" x2="1123" y1="701.4844" y2="701.4844"/><text fill="#000000" font-family="sans-serif" font-size="13" lengthAdjust="spacing" textLength="110" x="842" y="696.4185">create new token</text><polygon fill="#181818" points="1117,726.6172,1127,730.6172,1117,734.6172,1121,730.6172" style="stroke:#181818;stroke-width:1.0;"/><line style="stroke:#181818;stroke-width:1.0;" x1="835" x2="1123" y1="730.6172" y2="730.6172"/><text fill="#000000" font-family="sans-serif" font-size="13" lengthAdjust="spacing" textLength="198" x="842" y="725.5513">set new token sale parameters</text><polygon fill="#181818" points="1117,755.75,1127,759.75,1117,763.75,1121,759.75" style="stroke:#181818;stroke-width:1.0;"/><line style="stroke:#181818;stroke-width:1.0;" x1="830" x2="1123" y1="759.75" y2="759.75"/><text fill="#000000" font-family="sans-serif" font-size="13" lengthAdjust="spacing" textLength="151" x="837" y="754.6841">mint tokens to collector</text><polygon fill="#181818" points="64.5,784.8828,54.5,788.8828,64.5,792.8828,60.5,788.8828" style="stroke:#181818;stroke-width:1.0;"/><line style="stroke:#181818;stroke-width:1.0;stroke-dasharray:2.0,2.0;" x1="58.5" x2="1133" y1="788.8828" y2="788.8828"/><text fill="#000000" font-family="sans-serif" font-size="13" lengthAdjust="spacing" textLength="90" x="70.5" y="783.8169">Minted tokens</text><!--SRC=[bLGzRzim4DtvAsvgXYH3XYmgK21na293KQDUlPp5gqL49Wtob5R_laTzKZRTkfe4ak_ktNkFn9ATXvMhQuf_YYmRRc7jwM0i3-jht1EedMkiHj_2nkmjSkFfQVqs0gQrb-UJ6kHNphB7aiUDXuV7nrUCxThSrhIc9bfm_oL3gO3lHx9tS4IF1p01jZQCDA32KAcdaiq7CcN0AZEYT4bdA-2LkAnWryAoBgZqs0BsyZoYPeZW8sfhkK8MdlQ6GLDDJ5ebGBW_wryEKi0ji7id2wKdPEDiFtFOsjkvpmcf2vBzNycyI6VE5h2gg7m7ytEf5En8EZH11Zt3N6IuoLS0YO5raegltZN7YtqKo9UdFSMfW1-aZPT_qI2cXZ4cMuiutGcHGW8YcTHNP30kg7yst3IxWv5s7csGuKLlfGd_4izStrJmeU2ntqaBTnQZiSRkqnjnDri_MVufdm5rIYovmnaVi_n4NIUApZP5TpvlhQSFyXoJWhLqrUrWM-_gH54x2Z8M_JQ1nTBKrMNhp6DIzFFGLAr3PmwE-5DWTtxIOFacTQ6uoEICWgLVlSRNO0Bn3820DVM6o4lXmpK5-YX4T8Z9BgTdFHEsnDEqI7Sja-1-YqVrK3Gjiv3b3m00]--></g></svg>