<?xml version="1.0" encoding="UTF-8" standalone="no"?><svg xmlns="http://www.w3.org/2000/svg" xmlns:xlink="http://www.w3.org/1999/xlink" contentStyleType="text/css" height="887px" preserveAspectRatio="none" style="width:1230px;height:887px;background:#FFFFFF;" version="1.1" viewBox="0 0 1230 887" width="1230px" zoomAndPan="magnify"><defs/><g><rect fill="#FFFFFF" height="353.8594" style="stroke:#181818;stroke-width:1.0;" width="10" x="238.5" y="127.5625"/><rect fill="#FFFFFF" height="234.0625" style="stroke:#181818;stroke-width:1.0;" width="10" x="855" y="525.6875"/><rect fill="#FFFFFF" height="123.5313" style="stroke:#181818;stroke-width:1.0;" width="10" x="1159" y="665.3516"/><rect fill="none" height="61.3984" style="stroke:#000000;stroke-width:1.5;" width="314" x="10" y="362.7578"/><rect fill="none" height="75.3984" style="stroke:#000000;stroke-width:1.5;" width="440.5" x="784" y="597.9531"/><line style="stroke:#181818;stroke-width:0.5;stroke-dasharray:5.0,5.0;" x1="53" x2="53" y1="81.2969" y2="806.8828"/><line style="stroke:#181818;stroke-width:0.5;stroke-dasharray:5.0,5.0;" x1="243" x2="243" y1="81.2969" y2="806.8828"/><line style="stroke:#181818;stroke-width:0.5;stroke-dasharray:5.0,5.0;" x1="496" x2="496" y1="81.2969" y2="806.8828"/><line style="stroke:#181818;stroke-width:0.5;stroke-dasharray:5.0,5.0;" x1="737" x2="737" y1="81.2969" y2="806.8828"/><line style="stroke:#181818;stroke-width:0.5;stroke-dasharray:5.0,5.0;" x1="860" x2="860" y1="81.2969" y2="806.8828"/><line style="stroke:#181818;stroke-width:0.5;stroke-dasharray:5.0,5.0;" x1="1027.5" x2="1027.5" y1="81.2969" y2="806.8828"/><line style="stroke:#181818;stroke-width:0.5;stroke-dasharray:5.0,5.0;" x1="1163.5" x2="1163.5" y1="81.2969" y2="806.8828"/><text fill="#000000" font-family="sans-serif" font-size="14" lengthAdjust="spacing" textLength="61" x="20" y="77.9951">Collector</text><ellipse cx="53.5" cy="13.5" fill="#E2E2F0" rx="8" ry="8" style="stroke:#181818;stroke-width:0.5;"/><path d="M53.5,21.5 L53.5,48.5 M40.5,29.5 L66.5,29.5 M53.5,48.5 L40.5,63.5 M53.5,48.5 L66.5,63.5 " fill="none" style="stroke:#181818;stroke-width:0.5;"/><text fill="#000000" font-family="sans-serif" font-size="14" lengthAdjust="spacing" textLength="61" x="20" y="818.8779">Collector</text><ellipse cx="53.5" cy="830.6797" fill="#E2E2F0" rx="8" ry="8" style="stroke:#181818;stroke-width:0.5;"/><path d="M53.5,838.6797 L53.5,865.6797 M40.5,846.6797 L66.5,846.6797 M53.5,865.6797 L40.5,880.6797 M53.5,865.6797 L66.5,880.6797 " fill="none" style="stroke:#181818;stroke-width:0.5;"/><text fill="#000000" font-family="sans-serif" font-size="14" lengthAdjust="spacing" textLength="135" x="173" y="77.9951">PremintCollectPage</text><ellipse cx="243.5" cy="49" fill="#E2E2F0" rx="12" ry="12" style="stroke:#181818;stroke-width:0.5;"/><line style="stroke:#181818;stroke-width:0.5;" x1="231.5" x2="255.5" y1="63" y2="63"/><text fill="#000000" font-family="sans-serif" font-size="14" lengthAdjust="spacing" textLength="135" x="173" y="818.8779">PremintCollectPage</text><ellipse cx="243.5" cy="838.1797" fill="#E2E2F0" rx="12" ry="12" style="stroke:#181818;stroke-width:0.5;"/><line style="stroke:#181818;stroke-width:0.5;" x1="231.5" x2="255.5" y1="852.1797" y2="852.1797"/><text fill="#000000" font-family="sans-serif" font-size="14" lengthAdjust="spacing" textLength="87" x="450" y="77.9951">SignatureAPI</text><path d="M476,37 L476,61 M476,49 L493,49 " fill="none" style="stroke:#181818;stroke-width:0.5;"/><ellipse cx="505" cy="49" fill="#E2E2F0" rx="12" ry="12" style="stroke:#181818;stroke-width:0.5;"/><text fill="#000000" font-family="sans-serif" font-size="14" lengthAdjust="spacing" textLength="87" x="450" y="818.8779">SignatureAPI</text><path d="M476,826.1797 L476,850.1797 M476,838.1797 L493,838.1797 " fill="none" style="stroke:#181818;stroke-width:0.5;"/><ellipse cx="505" cy="838.1797" fill="#E2E2F0" rx="12" ry="12" style="stroke:#181818;stroke-width:0.5;"/><text fill="#000000" font-family="sans-serif" font-size="14" lengthAdjust="spacing" textLength="87" x="691" y="77.9951">SignatureDB</text><ellipse cx="737.5" cy="49" fill="#E2E2F0" rx="12" ry="12" style="stroke:#181818;stroke-width:0.5;"/><line style="stroke:#181818;stroke-width:0.5;" x1="725.5" x2="749.5" y1="63" y2="63"/><text fill="#000000" font-family="sans-serif" font-size="14" lengthAdjust="spacing" textLength="87" x="691" y="818.8779">SignatureDB</text><ellipse cx="737.5" cy="838.1797" fill="#E2E2F0" rx="12" ry="12" style="stroke:#181818;stroke-width:0.5;"/><line style="stroke:#181818;stroke-width:0.5;" x1="725.5" x2="749.5" y1="852.1797" y2="852.1797"/><text fill="#000000" font-family="sans-serif" font-size="14" lengthAdjust="spacing" textLength="126" x="794" y="77.9951">PreminterContract</text><ellipse cx="860" cy="49" fill="#E2E2F0" rx="12" ry="12" style="stroke:#181818;stroke-width:0.5;"/><line style="stroke:#181818;stroke-width:0.5;" x1="848" x2="872" y1="63" y2="63"/><text fill="#000000" font-family="sans-serif" font-size="14" lengthAdjust="spacing" textLength="126" x="794" y="818.8779">PreminterContract</text><ellipse cx="860" cy="838.1797" fill="#E2E2F0" rx="12" ry="12" style="stroke:#181818;stroke-width:0.5;"/><line style="stroke:#181818;stroke-width:0.5;" x1="848" x2="872" y1="852.1797" y2="852.1797"/><text fill="#000000" font-family="sans-serif" font-size="14" lengthAdjust="spacing" textLength="145" x="952.5" y="77.9951">1155FactoryContract</text><ellipse cx="1028" cy="49" fill="#E2E2F0" rx="12" ry="12" style="stroke:#181818;stroke-width:0.5;"/><line style="stroke:#181818;stroke-width:0.5;" x1="1016" x2="1040" y1="63" y2="63"/><text fill="#000000" font-family="sans-serif" font-size="14" lengthAdjust="spacing" textLength="145" x="952.5" y="818.8779">1155FactoryContract</text><ellipse cx="1028" cy="838.1797" fill="#E2E2F0" rx="12" ry="12" style="stroke:#181818;stroke-width:0.5;"/><line style="stroke:#181818;stroke-width:0.5;" x1="1016" x2="1040" y1="852.1797" y2="852.1797"/><text fill="#000000" font-family="sans-serif" font-size="14" lengthAdjust="spacing" textLength="95" x="1113.5" y="77.9951">1155Contract</text><ellipse cx="1164" cy="49" fill="#E2E2F0" rx="12" ry="12" style="stroke:#181818;stroke-width:0.5;"/><line style="stroke:#181818;stroke-width:0.5;" x1="1152" x2="1176" y1="63" y2="63"/><text fill="#000000" font-family="sans-serif" font-size="14" lengthAdjust="spacing" textLength="95" x="1113.5" y="818.8779">1155Contract</text><ellipse cx="1164" cy="838.1797" fill="#E2E2F0" rx="12" ry="12" style="stroke:#181818;stroke-width:0.5;"/><line style="stroke:#181818;stroke-width:0.5;" x1="1152" x2="1176" y1="852.1797" y2="852.1797"/><rect fill="#FFFFFF" height="353.8594" style="stroke:#181818;stroke-width:1.0;" width="10" x="238.5" y="127.5625"/><rect fill="#FFFFFF" height="234.0625" style="stroke:#181818;stroke-width:1.0;" width="10" x="855" y="525.6875"/><rect fill="#FFFFFF" height="123.5313" style="stroke:#181818;stroke-width:1.0;" width="10" x="1159" y="665.3516"/><polygon fill="#181818" points="226.5,123.5625,236.5,127.5625,226.5,131.5625,230.5,127.5625" style="stroke:#181818;stroke-width:1.0;"/><line style="stroke:#181818;stroke-width:1.0;" x1="53.5" x2="232.5" y1="127.5625" y2="127.5625"/><text fill="#000000" font-family="sans-serif" font-size="13" lengthAdjust="spacing" textLength="98" x="60.5" y="107.3638">Open, param is</text><text fill="#000000" font-family="sans-serif" font-size="13" lengthAdjust="spacing" textLength="166" x="60.5" y="122.4966">contract hash + token uid</text><polygon fill="#181818" points="484.5,152.6953,494.5,156.6953,484.5,160.6953,488.5,156.6953" style="stroke:#181818;stroke-width:1.0;"/><line style="stroke:#181818;stroke-width:1.0;" x1="248.5" x2="490.5" y1="156.6953" y2="156.6953"/><text fill="#000000" font-family="sans-serif" font-size="13" lengthAdjust="spacing" textLength="224" x="255.5" y="151.6294">Fetch by contract hash + token uid</text><polygon fill="#181818" points="725.5,196.9609,735.5,200.9609,725.5,204.9609,729.5,200.9609" style="stroke:#181818;stroke-width:1.0;"/><line style="stroke:#181818;stroke-width:1.0;" x1="496.5" x2="731.5" y1="200.9609" y2="200.9609"/><text fill="#000000" font-family="sans-serif" font-size="13" lengthAdjust="spacing" textLength="181" x="503.5" y="180.7622">Fetch most recent signature</text><text fill="#000000" font-family="sans-serif" font-size="13" lengthAdjust="spacing" textLength="170" x="503.5" y="195.895">by contract hash token uid</text><polygon fill="#181818" points="507.5,241.2266,497.5,245.2266,507.5,249.2266,503.5,245.2266" style="stroke:#181818;stroke-width:1.0;"/><line style="stroke:#181818;stroke-width:1.0;stroke-dasharray:2.0,2.0;" x1="501.5" x2="736.5" y1="245.2266" y2="245.2266"/><text fill="#000000" font-family="sans-serif" font-size="13" lengthAdjust="spacing" textLength="217" x="513.5" y="225.0278">contract + token creation params</text><text fill="#000000" font-family="sans-serif" font-size="13" lengthAdjust="spacing" textLength="75" x="513.5" y="240.1606">+ signature</text><polygon fill="#181818" points="259.5,285.4922,249.5,289.4922,259.5,293.4922,255.5,289.4922" style="stroke:#181818;stroke-width:1.0;"/><line style="stroke:#181818;stroke-width:1.0;stroke-dasharray:2.0,2.0;" x1="253.5" x2="495.5" y1="289.4922" y2="289.4922"/><text fill="#000000" font-family="sans-serif" font-size="13" lengthAdjust="spacing" textLength="217" x="265.5" y="269.2935">contract + token creation params</text><text fill="#000000" font-family="sans-serif" font-size="13" lengthAdjust="spacing" textLength="75" x="265.5" y="284.4263">+ signature</text><polygon fill="#181818" points="848,314.625,858,318.625,848,322.625,852,318.625" style="stroke:#181818;stroke-width:1.0;"/><line style="stroke:#181818;stroke-width:1.0;" x1="248.5" x2="854" y1="318.625" y2="318.625"/><text fill="#000000" font-family="sans-serif" font-size="13" lengthAdjust="spacing" textLength="411" x="255.5" y="313.5591">Check if signature has been used (by contract hash + token uid)</text><polygon fill="#181818" points="259.5,343.7578,249.5,347.7578,259.5,351.7578,255.5,347.7578" style="stroke:#181818;stroke-width:1.0;"/><line style="stroke:#181818;stroke-width:1.0;stroke-dasharray:2.0,2.0;" x1="253.5" x2="859" y1="347.7578" y2="347.7578"/><text fill="#000000" font-family="sans-serif" font-size="13" lengthAdjust="spacing" textLength="202" x="265.5" y="342.6919">Signature has been used or not</text><path d="M10,362.7578 L239,362.7578 L239,369.8906 L229,379.8906 L10,379.8906 L10,362.7578 " fill="#EEEEEE" style="stroke:#000000;stroke-width:1.5;"/><rect fill="none" height="61.3984" style="stroke:#000000;stroke-width:1.5;" width="314" x="10" y="362.7578"/><text fill="#000000" font-family="sans-serif" font-size="13" font-weight="bold" lengthAdjust="spacing" textLength="184" x="25" y="375.8247">signature has been used</text><polygon fill="#181818" points="64.5,412.1563,54.5,416.1563,64.5,420.1563,60.5,416.1563" style="stroke:#181818;stroke-width:1.0;"/><line style="stroke:#181818;stroke-width:1.0;" x1="58.5" x2="237.5" y1="416.1563" y2="416.1563"/><text fill="#000000" font-family="sans-serif" font-size="13" lengthAdjust="spacing" textLength="69" x="70.5" y="395.9575">Redirect to</text><text fill="#000000" font-family="sans-serif" font-size="13" lengthAdjust="spacing" textLength="138" x="70.5" y="411.0903">standard collect page</text><polygon fill="#181818" points="226.5,448.2891,236.5,452.2891,226.5,456.2891,230.5,452.2891" style="stroke:#181818;stroke-width:1.0;"/><line style="stroke:#181818;stroke-width:1.0;" x1="53.5" x2="232.5" y1="452.2891" y2="452.2891"/><text fill="#000000" font-family="sans-serif" font-size="13" lengthAdjust="spacing" textLength="29" x="60.5" y="447.2231">mint</text><polygon fill="#181818" points="64.5,477.4219,54.5,481.4219,64.5,485.4219,60.5,481.4219" style="stroke:#181818;stroke-width:1.0;"/><line style="stroke:#181818;stroke-width:1.0;" x1="58.5" x2="242.5" y1="481.4219" y2="481.4219"/><text fill="#000000" font-family="sans-serif" font-size="13" lengthAdjust="spacing" textLength="122" x="70.5" y="476.356">Submit transaction</text><polygon fill="#181818" points="843,521.6875,853,525.6875,843,529.6875,847,525.6875" style="stroke:#181818;stroke-width:1.0;"/><line style="stroke:#181818;stroke-width:1.0;" x1="53.5" x2="849" y1="525.6875" y2="525.6875"/><text fill="#000000" font-family="sans-serif" font-size="13" lengthAdjust="spacing" textLength="246" x="60.5" y="505.4888">Submit premint transaction containing</text><text fill="#000000" font-family="sans-serif" font-size="13" lengthAdjust="spacing" textLength="341" x="60.5" y="520.6216">signature, contract creation &amp; token creation params</text><line style="stroke:#181818;stroke-width:1.0;" x1="865" x2="907" y1="569.9531" y2="569.9531"/><line style="stroke:#181818;stroke-width:1.0;" x1="907" x2="907" y1="569.9531" y2="582.9531"/><line style="stroke:#181818;stroke-width:1.0;" x1="866" x2="907" y1="582.9531" y2="582.9531"/><polygon fill="#181818" points="876,578.9531,866,582.9531,876,586.9531,872,582.9531" style="stroke:#181818;stroke-width:1.0;"/><text fill="#000000" font-family="sans-serif" font-size="13" lengthAdjust="spacing" textLength="144" x="872" y="549.7544">record signature used;</text><text fill="#000000" font-family="sans-serif" font-size="13" lengthAdjust="spacing" textLength="135" x="872" y="564.8872">revert if already used</text><path d="M784,597.9531 L986,597.9531 L986,605.0859 L976,615.0859 L784,615.0859 L784,597.9531 " fill="#EEEEEE" style="stroke:#000000;stroke-width:1.5;"/><rect fill="none" height="75.3984" style="stroke:#000000;stroke-width:1.5;" width="440.5" x="784" y="597.9531"/><text fill="#000000" font-family="sans-serif" font-size="13" font-weight="bold" lengthAdjust="spacing" textLength="157" x="799" y="611.02">contract doesnt exist</text><polygon fill="#181818" points="1016,632.2188,1026,636.2188,1016,640.2188,1020,636.2188" style="stroke:#181818;stroke-width:1.0;"/><line style="stroke:#181818;stroke-width:1.0;" x1="865" x2="1022" y1="636.2188" y2="636.2188"/><text fill="#000000" font-family="sans-serif" font-size="13" lengthAdjust="spacing" textLength="98" x="872" y="631.1528">create contract</text><polygon fill="#181818" points="1147,661.3516,1157,665.3516,1147,669.3516,1151,665.3516" style="stroke:#181818;stroke-width:1.0;"/><line style="stroke:#181818;stroke-width:1.0;" x1="1028" x2="1153" y1="665.3516" y2="665.3516"/><text fill="#000000" font-family="sans-serif" font-size="13" lengthAdjust="spacing" textLength="41" x="1035" y="660.2856">create</text><polygon fill="#181818" points="1147,697.4844,1157,701.4844,1147,705.4844,1151,701.4844" style="stroke:#181818;stroke-width:1.0;"/><line style="stroke:#181818;stroke-width:1.0;" x1="865" x2="1153" y1="701.4844" y2="701.4844"/><text fill="#000000" font-family="sans-serif" font-size="13" lengthAdjust="spacing" textLength="110" x="872" y="696.4185">create new token</text><polygon fill="#181818" points="1147,726.6172,1157,730.6172,1147,734.6172,1151,730.6172" style="stroke:#181818;stroke-width:1.0;"/><line style="stroke:#181818;stroke-width:1.0;" x1="865" x2="1153" y1="730.6172" y2="730.6172"/><text fill="#000000" font-family="sans-serif" font-size="13" lengthAdjust="spacing" textLength="198" x="872" y="725.5513">set new token sale parameters</text><polygon fill="#181818" points="1147,755.75,1157,759.75,1147,763.75,1151,759.75" style="stroke:#181818;stroke-width:1.0;"/><line style="stroke:#181818;stroke-width:1.0;" x1="860" x2="1153" y1="759.75" y2="759.75"/><text fill="#000000" font-family="sans-serif" font-size="13" lengthAdjust="spacing" textLength="151" x="867" y="754.6841">mint tokens to collector</text><polygon fill="#181818" points="64.5,784.8828,54.5,788.8828,64.5,792.8828,60.5,788.8828" style="stroke:#181818;stroke-width:1.0;"/><line style="stroke:#181818;stroke-width:1.0;stroke-dasharray:2.0,2.0;" x1="58.5" x2="1163" y1="788.8828" y2="788.8828"/><text fill="#000000" font-family="sans-serif" font-size="13" lengthAdjust="spacing" textLength="90" x="70.5" y="783.8169">Minted tokens</text><!--SRC=[bLKzRzim4DtvAsugMYGPCcHHWGAnZHGTYXhrweKchpOHcpJ8Krhz-nxrGT4MbRgQ19BltRjxJvHKv3mitV68yKsW9KCDh3sUZAL-VItt26BdQgkbRs1ZzbPIxV5v_Mq0fBNLuee3_T9PybBHiF7u-FJq8cEvfhILraII1GzV2f8g-756UmzdwUK9J82jLJqM3Z8Su0x8lQA5scZnhCYyIS82ZoXqomNpDYjuGL87s3KmNo87N12i5WF-v0A1HyNjGXYsjtP2Mo1TBU1XeYgX1XtAeoJZR3UKiBLtOvqhWJCp_J_AykWcrbUmFA1w1VDhnCPEOOUnpu0QFhutsqzYGZdRm6Qc0CV8EaxLL-_gyvmC8O2VSbSfZXNyH6tOHcA5dBf0CduPclMt9tXId2hEjBuXmt51_BFWfjwT39VpqWPkdkqG6kKxcIxLpVte2S_TJaxSkY2DDNOVUnlcT3-wanBneHmHSIqikmCAFXRryNGTJtIqARhpUMizlg6d62HvvAgwwMthN4qIjSF0RU4V4uWjpLszB5suZAgk7qniBRfmSC1V0zlpQGQNTreRYbab4maMVtSplWKJa4O017d4pX1aLBY5e8j2H8UOR9L-2uMmPPxc9ErdcGNtUpogUzASvc8iVm40]--></g></svg>