<?xml version="1.0" encoding="UTF-8" standalone="no"?><svg xmlns="http://www.w3.org/2000/svg" xmlns:xlink="http://www.w3.org/1999/xlink" contentStyleType="text/css" height="903px" preserveAspectRatio="none" style="width:1259px;height:903px;background:#FFFFFF;" version="1.1" viewBox="0 0 1259 903" width="1259px" zoomAndPan="magnify"><defs/><g><rect fill="#FFFFFF" height="368.9922" style="stroke:#181818;stroke-width:1.0;" width="10" x="274.5" y="142.6953"/><rect fill="#FFFFFF" height="220.0625" style="stroke:#181818;stroke-width:1.0;" width="10" x="884" y="555.9531"/><rect fill="#FFFFFF" height="109.5313" style="stroke:#181818;stroke-width:1.0;" width="10" x="1188" y="695.6172"/><rect fill="none" height="61.3984" style="stroke:#000000;stroke-width:1.5;" width="350" x="10" y="393.0234"/><rect fill="none" height="75.3984" style="stroke:#000000;stroke-width:1.5;" width="440.5" x="813" y="628.2188"/><line style="stroke:#181818;stroke-width:0.5;stroke-dasharray:5.0,5.0;" x1="53" x2="53" y1="81.2969" y2="823.1484"/><line style="stroke:#181818;stroke-width:0.5;stroke-dasharray:5.0,5.0;" x1="279" x2="279" y1="81.2969" y2="823.1484"/><line style="stroke:#181818;stroke-width:0.5;stroke-dasharray:5.0,5.0;" x1="525" x2="525" y1="81.2969" y2="823.1484"/><line style="stroke:#181818;stroke-width:0.5;stroke-dasharray:5.0,5.0;" x1="766" x2="766" y1="81.2969" y2="823.1484"/><line style="stroke:#181818;stroke-width:0.5;stroke-dasharray:5.0,5.0;" x1="889" x2="889" y1="81.2969" y2="823.1484"/><line style="stroke:#181818;stroke-width:0.5;stroke-dasharray:5.0,5.0;" x1="1056.5" x2="1056.5" y1="81.2969" y2="823.1484"/><line style="stroke:#181818;stroke-width:0.5;stroke-dasharray:5.0,5.0;" x1="1192.5" x2="1192.5" y1="81.2969" y2="823.1484"/><text fill="#000000" font-family="sans-serif" font-size="14" lengthAdjust="spacing" textLength="61" x="20" y="77.9951">Collector</text><ellipse cx="53.5" cy="13.5" fill="#E2E2F0" rx="8" ry="8" style="stroke:#181818;stroke-width:0.5;"/><path d="M53.5,21.5 L53.5,48.5 M40.5,29.5 L66.5,29.5 M53.5,48.5 L40.5,63.5 M53.5,48.5 L66.5,63.5 " fill="none" style="stroke:#181818;stroke-width:0.5;"/><text fill="#000000" font-family="sans-serif" font-size="14" lengthAdjust="spacing" textLength="61" x="20" y="835.1436">Collector</text><ellipse cx="53.5" cy="846.9453" fill="#E2E2F0" rx="8" ry="8" style="stroke:#181818;stroke-width:0.5;"/><path d="M53.5,854.9453 L53.5,881.9453 M40.5,862.9453 L66.5,862.9453 M53.5,881.9453 L40.5,896.9453 M53.5,881.9453 L66.5,896.9453 " fill="none" style="stroke:#181818;stroke-width:0.5;"/><text fill="#000000" font-family="sans-serif" font-size="14" lengthAdjust="spacing" textLength="135" x="209" y="77.9951">PremintCollectPage</text><ellipse cx="279.5" cy="49" fill="#E2E2F0" rx="12" ry="12" style="stroke:#181818;stroke-width:0.5;"/><line style="stroke:#181818;stroke-width:0.5;" x1="267.5" x2="291.5" y1="63" y2="63"/><text fill="#000000" font-family="sans-serif" font-size="14" lengthAdjust="spacing" textLength="135" x="209" y="835.1436">PremintCollectPage</text><ellipse cx="279.5" cy="854.4453" fill="#E2E2F0" rx="12" ry="12" style="stroke:#181818;stroke-width:0.5;"/><line style="stroke:#181818;stroke-width:0.5;" x1="267.5" x2="291.5" y1="868.4453" y2="868.4453"/><text fill="#000000" font-family="sans-serif" font-size="14" lengthAdjust="spacing" textLength="87" x="479" y="77.9951">SignatureAPI</text><path d="M505,37 L505,61 M505,49 L522,49 " fill="none" style="stroke:#181818;stroke-width:0.5;"/><ellipse cx="534" cy="49" fill="#E2E2F0" rx="12" ry="12" style="stroke:#181818;stroke-width:0.5;"/><text fill="#000000" font-family="sans-serif" font-size="14" lengthAdjust="spacing" textLength="87" x="479" y="835.1436">SignatureAPI</text><path d="M505,842.4453 L505,866.4453 M505,854.4453 L522,854.4453 " fill="none" style="stroke:#181818;stroke-width:0.5;"/><ellipse cx="534" cy="854.4453" fill="#E2E2F0" rx="12" ry="12" style="stroke:#181818;stroke-width:0.5;"/><text fill="#000000" font-family="sans-serif" font-size="14" lengthAdjust="spacing" textLength="87" x="720" y="77.9951">SignatureDB</text><ellipse cx="766.5" cy="49" fill="#E2E2F0" rx="12" ry="12" style="stroke:#181818;stroke-width:0.5;"/><line style="stroke:#181818;stroke-width:0.5;" x1="754.5" x2="778.5" y1="63" y2="63"/><text fill="#000000" font-family="sans-serif" font-size="14" lengthAdjust="spacing" textLength="87" x="720" y="835.1436">SignatureDB</text><ellipse cx="766.5" cy="854.4453" fill="#E2E2F0" rx="12" ry="12" style="stroke:#181818;stroke-width:0.5;"/><line style="stroke:#181818;stroke-width:0.5;" x1="754.5" x2="778.5" y1="868.4453" y2="868.4453"/><text fill="#000000" font-family="sans-serif" font-size="14" lengthAdjust="spacing" textLength="126" x="823" y="77.9951">PreminterContract</text><ellipse cx="889" cy="49" fill="#E2E2F0" rx="12" ry="12" style="stroke:#181818;stroke-width:0.5;"/><line style="stroke:#181818;stroke-width:0.5;" x1="877" x2="901" y1="63" y2="63"/><text fill="#000000" font-family="sans-serif" font-size="14" lengthAdjust="spacing" textLength="126" x="823" y="835.1436">PreminterContract</text><ellipse cx="889" cy="854.4453" fill="#E2E2F0" rx="12" ry="12" style="stroke:#181818;stroke-width:0.5;"/><line style="stroke:#181818;stroke-width:0.5;" x1="877" x2="901" y1="868.4453" y2="868.4453"/><text fill="#000000" font-family="sans-serif" font-size="14" lengthAdjust="spacing" textLength="145" x="981.5" y="77.9951">1155FactoryContract</text><ellipse cx="1057" cy="49" fill="#E2E2F0" rx="12" ry="12" style="stroke:#181818;stroke-width:0.5;"/><line style="stroke:#181818;stroke-width:0.5;" x1="1045" x2="1069" y1="63" y2="63"/><text fill="#000000" font-family="sans-serif" font-size="14" lengthAdjust="spacing" textLength="145" x="981.5" y="835.1436">1155FactoryContract</text><ellipse cx="1057" cy="854.4453" fill="#E2E2F0" rx="12" ry="12" style="stroke:#181818;stroke-width:0.5;"/><line style="stroke:#181818;stroke-width:0.5;" x1="1045" x2="1069" y1="868.4453" y2="868.4453"/><text fill="#000000" font-family="sans-serif" font-size="14" lengthAdjust="spacing" textLength="95" x="1142.5" y="77.9951">1155Contract</text><ellipse cx="1193" cy="49" fill="#E2E2F0" rx="12" ry="12" style="stroke:#181818;stroke-width:0.5;"/><line style="stroke:#181818;stroke-width:0.5;" x1="1181" x2="1205" y1="63" y2="63"/><text fill="#000000" font-family="sans-serif" font-size="14" lengthAdjust="spacing" textLength="95" x="1142.5" y="835.1436">1155Contract</text><ellipse cx="1193" cy="854.4453" fill="#E2E2F0" rx="12" ry="12" style="stroke:#181818;stroke-width:0.5;"/><line style="stroke:#181818;stroke-width:0.5;" x1="1181" x2="1205" y1="868.4453" y2="868.4453"/><rect fill="#FFFFFF" height="368.9922" style="stroke:#181818;stroke-width:1.0;" width="10" x="274.5" y="142.6953"/><rect fill="#FFFFFF" height="220.0625" style="stroke:#181818;stroke-width:1.0;" width="10" x="884" y="555.9531"/><rect fill="#FFFFFF" height="109.5313" style="stroke:#181818;stroke-width:1.0;" width="10" x="1188" y="695.6172"/><polygon fill="#181818" points="262.5,138.6953,272.5,142.6953,262.5,146.6953,266.5,142.6953" style="stroke:#181818;stroke-width:1.0;"/><line style="stroke:#181818;stroke-width:1.0;" x1="53.5" x2="268.5" y1="142.6953" y2="142.6953"/><text fill="#000000" font-family="sans-serif" font-size="13" lengthAdjust="spacing" textLength="98" x="60.5" y="107.3638">Open, param is</text><text fill="#000000" font-family="sans-serif" font-size="13" lengthAdjust="spacing" textLength="202" x="60.5" y="122.4966">deterministic collection address</text><text fill="#000000" font-family="sans-serif" font-size="13" lengthAdjust="spacing" textLength="74" x="60.5" y="137.6294">+ token uid</text><polygon fill="#181818" points="513.5,182.9609,523.5,186.9609,513.5,190.9609,517.5,186.9609" style="stroke:#181818;stroke-width:1.0;"/><line style="stroke:#181818;stroke-width:1.0;" x1="284.5" x2="519.5" y1="186.9609" y2="186.9609"/><text fill="#000000" font-family="sans-serif" font-size="13" lengthAdjust="spacing" textLength="173" x="291.5" y="166.7622">Fetch by collection address</text><text fill="#000000" font-family="sans-serif" font-size="13" lengthAdjust="spacing" textLength="74" x="291.5" y="181.895">+ token uid</text><polygon fill="#181818" points="754.5,227.2266,764.5,231.2266,754.5,235.2266,758.5,231.2266" style="stroke:#181818;stroke-width:1.0;"/><line style="stroke:#181818;stroke-width:1.0;" x1="525.5" x2="760.5" y1="231.2266" y2="231.2266"/><text fill="#000000" font-family="sans-serif" font-size="13" lengthAdjust="spacing" textLength="181" x="532.5" y="211.0278">Fetch most recent signature</text><text fill="#000000" font-family="sans-serif" font-size="13" lengthAdjust="spacing" textLength="170" x="532.5" y="226.1606">by contract hash token uid</text><polygon fill="#181818" points="536.5,271.4922,526.5,275.4922,536.5,279.4922,532.5,275.4922" style="stroke:#181818;stroke-width:1.0;"/><line style="stroke:#181818;stroke-width:1.0;stroke-dasharray:2.0,2.0;" x1="530.5" x2="765.5" y1="275.4922" y2="275.4922"/><text fill="#000000" font-family="sans-serif" font-size="13" lengthAdjust="spacing" textLength="217" x="542.5" y="255.2935">contract + token creation params</text><text fill="#000000" font-family="sans-serif" font-size="13" lengthAdjust="spacing" textLength="75" x="542.5" y="270.4263">+ signature</text><polygon fill="#181818" points="295.5,315.7578,285.5,319.7578,295.5,323.7578,291.5,319.7578" style="stroke:#181818;stroke-width:1.0;"/><line style="stroke:#181818;stroke-width:1.0;stroke-dasharray:2.0,2.0;" x1="289.5" x2="524.5" y1="319.7578" y2="319.7578"/><text fill="#000000" font-family="sans-serif" font-size="13" lengthAdjust="spacing" textLength="217" x="301.5" y="299.5591">contract + token creation params</text><text fill="#000000" font-family="sans-serif" font-size="13" lengthAdjust="spacing" textLength="75" x="301.5" y="314.6919">+ signature</text><polygon fill="#181818" points="877,344.8906,887,348.8906,877,352.8906,881,348.8906" style="stroke:#181818;stroke-width:1.0;"/><line style="stroke:#181818;stroke-width:1.0;" x1="284.5" x2="883" y1="348.8906" y2="348.8906"/><text fill="#000000" font-family="sans-serif" font-size="13" lengthAdjust="spacing" textLength="411" x="291.5" y="343.8247">Check if signature has been used (by contract hash + token uid)</text><polygon fill="#181818" points="295.5,374.0234,285.5,378.0234,295.5,382.0234,291.5,378.0234" style="stroke:#181818;stroke-width:1.0;"/><line style="stroke:#181818;stroke-width:1.0;stroke-dasharray:2.0,2.0;" x1="289.5" x2="888" y1="378.0234" y2="378.0234"/><text fill="#000000" font-family="sans-serif" font-size="13" lengthAdjust="spacing" textLength="202" x="301.5" y="372.9575">Signature has been used or not</text><path d="M10,393.0234 L239,393.0234 L239,400.1563 L229,410.1563 L10,410.1563 L10,393.0234 " fill="#EEEEEE" style="stroke:#000000;stroke-width:1.5;"/><rect fill="none" height="61.3984" style="stroke:#000000;stroke-width:1.5;" width="350" x="10" y="393.0234"/><text fill="#000000" font-family="sans-serif" font-size="13" font-weight="bold" lengthAdjust="spacing" textLength="184" x="25" y="406.0903">signature has been used</text><polygon fill="#181818" points="64.5,442.4219,54.5,446.4219,64.5,450.4219,60.5,446.4219" style="stroke:#181818;stroke-width:1.0;"/><line style="stroke:#181818;stroke-width:1.0;" x1="58.5" x2="273.5" y1="446.4219" y2="446.4219"/><text fill="#000000" font-family="sans-serif" font-size="13" lengthAdjust="spacing" textLength="69" x="70.5" y="426.2231">Redirect to</text><text fill="#000000" font-family="sans-serif" font-size="13" lengthAdjust="spacing" textLength="138" x="70.5" y="441.356">standard collect page</text><polygon fill="#181818" points="262.5,478.5547,272.5,482.5547,262.5,486.5547,266.5,482.5547" style="stroke:#181818;stroke-width:1.0;"/><line style="stroke:#181818;stroke-width:1.0;" x1="53.5" x2="268.5" y1="482.5547" y2="482.5547"/><text fill="#000000" font-family="sans-serif" font-size="13" lengthAdjust="spacing" textLength="29" x="60.5" y="477.4888">mint</text><polygon fill="#181818" points="64.5,507.6875,54.5,511.6875,64.5,515.6875,60.5,511.6875" style="stroke:#181818;stroke-width:1.0;"/><line style="stroke:#181818;stroke-width:1.0;" x1="58.5" x2="278.5" y1="511.6875" y2="511.6875"/><text fill="#000000" font-family="sans-serif" font-size="13" lengthAdjust="spacing" textLength="122" x="70.5" y="506.6216">Submit transaction</text><polygon fill="#181818" points="872,551.9531,882,555.9531,872,559.9531,876,555.9531" style="stroke:#181818;stroke-width:1.0;"/><line style="stroke:#181818;stroke-width:1.0;" x1="53.5" x2="878" y1="555.9531" y2="555.9531"/><text fill="#000000" font-family="sans-serif" font-size="13" lengthAdjust="spacing" textLength="246" x="60.5" y="535.7544">Submit premint transaction containing</text><text fill="#000000" font-family="sans-serif" font-size="13" lengthAdjust="spacing" textLength="341" x="60.5" y="550.8872">signature, contract creation &amp; token creation params</text><line style="stroke:#181818;stroke-width:1.0;" x1="894" x2="936" y1="600.2188" y2="600.2188"/><line style="stroke:#181818;stroke-width:1.0;" x1="936" x2="936" y1="600.2188" y2="613.2188"/><line style="stroke:#181818;stroke-width:1.0;" x1="895" x2="936" y1="613.2188" y2="613.2188"/><polygon fill="#181818" points="905,609.2188,895,613.2188,905,617.2188,901,613.2188" style="stroke:#181818;stroke-width:1.0;"/><text fill="#000000" font-family="sans-serif" font-size="13" lengthAdjust="spacing" textLength="144" x="901" y="580.02">record signature used;</text><text fill="#000000" font-family="sans-serif" font-size="13" lengthAdjust="spacing" textLength="135" x="901" y="595.1528">revert if already used</text><path d="M813,628.2188 L1015,628.2188 L1015,635.3516 L1005,645.3516 L813,645.3516 L813,628.2188 " fill="#EEEEEE" style="stroke:#000000;stroke-width:1.5;"/><rect fill="none" height="75.3984" style="stroke:#000000;stroke-width:1.5;" width="440.5" x="813" y="628.2188"/><text fill="#000000" font-family="sans-serif" font-size="13" font-weight="bold" lengthAdjust="spacing" textLength="157" x="828" y="641.2856">contract doesnt exist</text><polygon fill="#181818" points="1045,662.4844,1055,666.4844,1045,670.4844,1049,666.4844" style="stroke:#181818;stroke-width:1.0;"/><line style="stroke:#181818;stroke-width:1.0;" x1="894" x2="1051" y1="666.4844" y2="666.4844"/><text fill="#000000" font-family="sans-serif" font-size="13" lengthAdjust="spacing" textLength="98" x="901" y="661.4185">create contract</text><polygon fill="#181818" points="1176,691.6172,1186,695.6172,1176,699.6172,1180,695.6172" style="stroke:#181818;stroke-width:1.0;"/><line style="stroke:#181818;stroke-width:1.0;" x1="1057" x2="1182" y1="695.6172" y2="695.6172"/><text fill="#000000" font-family="sans-serif" font-size="13" lengthAdjust="spacing" textLength="41" x="1064" y="690.5513">create</text><polygon fill="#181818" points="1176,742.8828,1186,746.8828,1176,750.8828,1180,746.8828" style="stroke:#181818;stroke-width:1.0;"/><line style="stroke:#181818;stroke-width:1.0;" x1="894" x2="1182" y1="746.8828" y2="746.8828"/><text fill="#000000" font-family="sans-serif" font-size="13" lengthAdjust="spacing" textLength="110" x="901" y="726.6841">create new token</text><text fill="#000000" font-family="sans-serif" font-size="13" lengthAdjust="spacing" textLength="89" x="901" y="741.8169">with signature</text><polygon fill="#181818" points="1176,772.0156,1186,776.0156,1176,780.0156,1180,776.0156" style="stroke:#181818;stroke-width:1.0;"/><line style="stroke:#181818;stroke-width:1.0;" x1="889" x2="1182" y1="776.0156" y2="776.0156"/><text fill="#000000" font-family="sans-serif" font-size="13" lengthAdjust="spacing" textLength="151" x="896" y="770.9497">mint tokens to collector</text><polygon fill="#181818" points="64.5,801.1484,54.5,805.1484,64.5,809.1484,60.5,805.1484" style="stroke:#181818;stroke-width:1.0;"/><line style="stroke:#181818;stroke-width:1.0;stroke-dasharray:2.0,2.0;" x1="58.5" x2="1192" y1="805.1484" y2="805.1484"/><text fill="#000000" font-family="sans-serif" font-size="13" lengthAdjust="spacing" textLength="90" x="70.5" y="800.0825">Minted tokens</text><!--SRC=[bLInRjim4Dtv5JSLAPeC6RAeG87OHeeCHOrwrN8MhnOHcpH8Agd-laVAeccBIbfD0ibxz-wzHsBZZOMbsUyf_0dINlaUrfOEIllJ-Xft169hEYtHzh1HEus-i_IuVXuBqjfgSOL1TccqjzZuSUF-_k7X2KExlhILraIY1NVV2fGg-7aaVGj7j7W0vQ3MahWV7rFEgmQQuQmo6b1AIyxL-Wjuyq8QEYN58- -zegS2jYWem2JoqIju8j-qiEq_R9INNS2i5YFAmJWFbXeM0jouNUi8FkW1BRgs1BfQmDs4MweQUJIMC3ACSaM2gSyLmHcr_m-oBE0a51KiMsfUGFq-ruP9OKjXJaSIRYOYPDf-5XF8sG4sCmquODfmthvRqntdQ0W1_9MdIa6ju1T9nJPwPiXvT1x3dP5ZGbWfpXQdNVv3kiE2-B3XfjiU5BUpg1t630f9-4woItrpFqw0ns4d1uuk8DyklGkpZJhTdjr9YVXKZeYu9fQz3WKVY_nONSEAdcqAxdojjQLNiZu42VVSLVOdsmPN4qLfoF5Oz8VV2BOqT_MoTU6PgePvAA75wiB1iVwwC9vF6bo-TZ4Kiqmc53Iz3HhN-atvTdhptiCOd0tLBWIrIUz_8JkPHJb8l6LP3d-4e_84ciDSJFaN]--></g></svg>
