<?xml version="1.0" encoding="UTF-8" standalone="no"?><svg xmlns="http://www.w3.org/2000/svg" xmlns:xlink="http://www.w3.org/1999/xlink" contentStyleType="text/css" height="1075px" preserveAspectRatio="none" style="width:1128px;height:1075px;background:#FFFFFF;" version="1.1" viewBox="0 0 1128 1075" width="1128px" zoomAndPan="magnify"><defs/><g><text fill="#000000" font-family="sans-serif" font-size="14" font-weight="bold" lengthAdjust="spacing" textLength="451" x="340.25" y="27.9951">Creating a signature for a new erc1155 contract + token</text><rect fill="#FFFFFF" height="640.3203" style="stroke:#181818;stroke-width:1.0;" width="10" x="371.5" y="128.5938"/><rect fill="none" height="179.0625" style="stroke:#000000;stroke-width:1.5;" width="1112.5" x="10" y="135.5938"/><rect fill="none" height="148.7969" style="stroke:#000000;stroke-width:1.5;" width="1112.5" x="10" y="328.6563"/><rect fill="none" height="106.7969" style="stroke:#000000;stroke-width:1.5;" width="560.5" x="562" y="871.3125"/><line style="stroke:#181818;stroke-width:0.5;stroke-dasharray:5.0,5.0;" x1="48" x2="48" y1="118.5938" y2="995.1094"/><line style="stroke:#181818;stroke-width:0.5;stroke-dasharray:5.0,5.0;" x1="376" x2="376" y1="118.5938" y2="995.1094"/><line style="stroke:#181818;stroke-width:0.5;stroke-dasharray:5.0,5.0;" x1="618" x2="618" y1="118.5938" y2="995.1094"/><line style="stroke:#181818;stroke-width:0.5;stroke-dasharray:5.0,5.0;" x1="950.5" x2="950.5" y1="118.5938" y2="995.1094"/><line style="stroke:#181818;stroke-width:0.5;stroke-dasharray:5.0,5.0;" x1="1065.5" x2="1065.5" y1="118.5938" y2="995.1094"/><text fill="#000000" font-family="sans-serif" font-size="14" lengthAdjust="spacing" textLength="51" x="20" y="115.292">Creator</text><ellipse cx="48.5" cy="50.7969" fill="#E2E2F0" rx="8" ry="8" style="stroke:#181818;stroke-width:0.5;"/><path d="M48.5,58.7969 L48.5,85.7969 M35.5,66.7969 L61.5,66.7969 M48.5,85.7969 L35.5,100.7969 M48.5,85.7969 L61.5,100.7969 " fill="none" style="stroke:#181818;stroke-width:0.5;"/><text fill="#000000" font-family="sans-serif" font-size="14" lengthAdjust="spacing" textLength="51" x="20" y="1007.1045">Creator</text><ellipse cx="48.5" cy="1018.9063" fill="#E2E2F0" rx="8" ry="8" style="stroke:#181818;stroke-width:0.5;"/><path d="M48.5,1026.9063 L48.5,1053.9063 M35.5,1034.9063 L61.5,1034.9063 M48.5,1053.9063 L35.5,1068.9063 M48.5,1053.9063 L61.5,1068.9063 " fill="none" style="stroke:#181818;stroke-width:0.5;"/><text fill="#000000" font-family="sans-serif" font-size="14" lengthAdjust="spacing" textLength="81" x="333" y="115.292">CreatePage</text><ellipse cx="376.5" cy="86.2969" fill="#E2E2F0" rx="12" ry="12" style="stroke:#181818;stroke-width:0.5;"/><line style="stroke:#181818;stroke-width:0.5;" x1="364.5" x2="388.5" y1="100.2969" y2="100.2969"/><text fill="#000000" font-family="sans-serif" font-size="14" lengthAdjust="spacing" textLength="81" x="333" y="1007.1045">CreatePage</text><ellipse cx="376.5" cy="1026.4063" fill="#E2E2F0" rx="12" ry="12" style="stroke:#181818;stroke-width:0.5;"/><line style="stroke:#181818;stroke-width:0.5;" x1="364.5" x2="388.5" y1="1040.4063" y2="1040.4063"/><text fill="#000000" font-family="sans-serif" font-size="14" lengthAdjust="spacing" textLength="87" x="572" y="115.292">SignatureAPI</text><path d="M598,74.2969 L598,98.2969 M598,86.2969 L615,86.2969 " fill="none" style="stroke:#181818;stroke-width:0.5;"/><ellipse cx="627" cy="86.2969" fill="#E2E2F0" rx="12" ry="12" style="stroke:#181818;stroke-width:0.5;"/><text fill="#000000" font-family="sans-serif" font-size="14" lengthAdjust="spacing" textLength="87" x="572" y="1007.1045">SignatureAPI</text><path d="M598,1014.4063 L598,1038.4063 M598,1026.4063 L615,1026.4063 " fill="none" style="stroke:#181818;stroke-width:0.5;"/><ellipse cx="627" cy="1026.4063" fill="#E2E2F0" rx="12" ry="12" style="stroke:#181818;stroke-width:0.5;"/><text fill="#000000" font-family="sans-serif" font-size="14" lengthAdjust="spacing" textLength="112" x="891.5" y="115.292">PremintContract</text><path d="M930,74.2969 L930,98.2969 M930,86.2969 L947,86.2969 " fill="none" style="stroke:#181818;stroke-width:0.5;"/><ellipse cx="959" cy="86.2969" fill="#E2E2F0" rx="12" ry="12" style="stroke:#181818;stroke-width:0.5;"/><text fill="#000000" font-family="sans-serif" font-size="14" lengthAdjust="spacing" textLength="112" x="891.5" y="1007.1045">PremintContract</text><path d="M930,1014.4063 L930,1038.4063 M930,1026.4063 L947,1026.4063 " fill="none" style="stroke:#181818;stroke-width:0.5;"/><ellipse cx="959" cy="1026.4063" fill="#E2E2F0" rx="12" ry="12" style="stroke:#181818;stroke-width:0.5;"/><text fill="#000000" font-family="sans-serif" font-size="14" lengthAdjust="spacing" textLength="87" x="1019.5" y="115.292">SignatureDB</text><ellipse cx="1066" cy="86.2969" fill="#E2E2F0" rx="12" ry="12" style="stroke:#181818;stroke-width:0.5;"/><line style="stroke:#181818;stroke-width:0.5;" x1="1054" x2="1078" y1="100.2969" y2="100.2969"/><text fill="#000000" font-family="sans-serif" font-size="14" lengthAdjust="spacing" textLength="87" x="1019.5" y="1007.1045">SignatureDB</text><ellipse cx="1066" cy="1026.4063" fill="#E2E2F0" rx="12" ry="12" style="stroke:#181818;stroke-width:0.5;"/><line style="stroke:#181818;stroke-width:0.5;" x1="1054" x2="1078" y1="1040.4063" y2="1040.4063"/><rect fill="#FFFFFF" height="640.3203" style="stroke:#181818;stroke-width:1.0;" width="10" x="371.5" y="128.5938"/><path d="M10,135.5938 L337,135.5938 L337,142.7266 L327,152.7266 L10,152.7266 L10,135.5938 " fill="#EEEEEE" style="stroke:#000000;stroke-width:1.5;"/><rect fill="none" height="179.0625" style="stroke:#000000;stroke-width:1.5;" width="1112.5" x="10" y="135.5938"/><text fill="#000000" font-family="sans-serif" font-size="13" font-weight="bold" lengthAdjust="spacing" textLength="282" x="25" y="148.6606">Signature not created for contract yet</text><polygon fill="#181818" points="359.5,169.8594,369.5,173.8594,359.5,177.8594,363.5,173.8594" style="stroke:#181818;stroke-width:1.0;"/><line style="stroke:#181818;stroke-width:1.0;" x1="48.5" x2="365.5" y1="173.8594" y2="173.8594"/><text fill="#000000" font-family="sans-serif" font-size="13" lengthAdjust="spacing" textLength="226" x="55.5" y="168.7935">setup NEW contract name + image</text><polygon fill="#181818" points="606.5,229.2578,616.5,233.2578,606.5,237.2578,610.5,233.2578" style="stroke:#181818;stroke-width:1.0;"/><line style="stroke:#181818;stroke-width:1.0;" x1="381.5" x2="612.5" y1="233.2578" y2="233.2578"/><text fill="#000000" font-family="sans-serif" font-size="13" lengthAdjust="spacing" textLength="137" x="388.5" y="197.9263">validate that contract</text><text fill="#000000" font-family="sans-serif" font-size="13" lengthAdjust="spacing" textLength="139" x="388.5" y="213.0591">with same params for</text><text fill="#000000" font-family="sans-serif" font-size="13" lengthAdjust="spacing" textLength="128" x="388.5" y="228.1919">creator doesnt exist</text><polygon fill="#181818" points="1054,273.5234,1064,277.5234,1054,281.5234,1058,277.5234" style="stroke:#181818;stroke-width:1.0;"/><line style="stroke:#181818;stroke-width:1.0;" x1="618.5" x2="1060" y1="277.5234" y2="277.5234"/><text fill="#000000" font-family="sans-serif" font-size="13" lengthAdjust="spacing" textLength="176" x="625.5" y="257.3247">check if signature with hash</text><text fill="#000000" font-family="sans-serif" font-size="13" lengthAdjust="spacing" textLength="184" x="625.5" y="272.4575">for contract is already stored</text><polygon fill="#181818" points="392.5,302.6563,382.5,306.6563,392.5,310.6563,388.5,306.6563" style="stroke:#181818;stroke-width:1.0;"/><line style="stroke:#181818;stroke-width:1.0;stroke-dasharray:2.0,2.0;" x1="386.5" x2="617.5" y1="306.6563" y2="306.6563"/><text fill="#000000" font-family="sans-serif" font-size="13" lengthAdjust="spacing" textLength="108" x="398.5" y="301.5903">validation results</text><path d="M10,328.6563 L353,328.6563 L353,335.7891 L343,345.7891 L10,345.7891 L10,328.6563 " fill="#EEEEEE" style="stroke:#000000;stroke-width:1.5;"/><rect fill="none" height="148.7969" style="stroke:#000000;stroke-width:1.5;" width="1112.5" x="10" y="328.6563"/><text fill="#000000" font-family="sans-serif" font-size="13" font-weight="bold" lengthAdjust="spacing" textLength="298" x="25" y="341.7231">Signature has been created for contract</text><polygon fill="#181818" points="359.5,362.9219,369.5,366.9219,359.5,370.9219,363.5,366.9219" style="stroke:#181818;stroke-width:1.0;"/><line style="stroke:#181818;stroke-width:1.0;" x1="48.5" x2="365.5" y1="366.9219" y2="366.9219"/><text fill="#000000" font-family="sans-serif" font-size="13" lengthAdjust="spacing" textLength="285" x="55.5" y="361.856">load page by deterministic collection address</text><polygon fill="#181818" points="606.5,392.0547,616.5,396.0547,606.5,400.0547,610.5,396.0547" style="stroke:#181818;stroke-width:1.0;"/><line style="stroke:#181818;stroke-width:1.0;" x1="381.5" x2="612.5" y1="396.0547" y2="396.0547"/><text fill="#000000" font-family="sans-serif" font-size="13" lengthAdjust="spacing" textLength="200" x="388.5" y="390.9888">load collection creation params</text><polygon fill="#181818" points="1054,436.3203,1064,440.3203,1054,444.3203,1058,440.3203" style="stroke:#181818;stroke-width:1.0;"/><line style="stroke:#181818;stroke-width:1.0;" x1="618.5" x2="1060" y1="440.3203" y2="440.3203"/><text fill="#000000" font-family="sans-serif" font-size="13" lengthAdjust="spacing" textLength="205" x="625.5" y="420.1216">fetch collection creation params</text><text fill="#000000" font-family="sans-serif" font-size="13" lengthAdjust="spacing" textLength="50" x="625.5" y="435.2544">by hash</text><polygon fill="#181818" points="392.5,465.4531,382.5,469.4531,392.5,473.4531,388.5,469.4531" style="stroke:#181818;stroke-width:1.0;"/><line style="stroke:#181818;stroke-width:1.0;stroke-dasharray:2.0,2.0;" x1="386.5" x2="617.5" y1="469.4531" y2="469.4531"/><text fill="#000000" font-family="sans-serif" font-size="13" lengthAdjust="spacing" textLength="162" x="398.5" y="464.3872">contract creation params</text><polygon fill="#181818" points="359.5,501.5859,369.5,505.5859,359.5,509.5859,363.5,505.5859" style="stroke:#181818;stroke-width:1.0;"/><line style="stroke:#181818;stroke-width:1.0;" x1="48.5" x2="365.5" y1="505.5859" y2="505.5859"/><text fill="#000000" font-family="sans-serif" font-size="13" lengthAdjust="spacing" textLength="105" x="55.5" y="500.52">setup new token</text><polygon fill="#181818" points="938.5,530.7188,948.5,534.7188,938.5,538.7188,942.5,534.7188" style="stroke:#181818;stroke-width:1.0;"/><line style="stroke:#181818;stroke-width:1.0;" x1="381.5" x2="944.5" y1="534.7188" y2="534.7188"/><text fill="#000000" font-family="sans-serif" font-size="13" lengthAdjust="spacing" textLength="224" x="388.5" y="529.6528">get deterministic collection address</text><polygon fill="#181818" points="392.5,559.8516,382.5,563.8516,392.5,567.8516,388.5,563.8516" style="stroke:#181818;stroke-width:1.0;"/><line style="stroke:#181818;stroke-width:1.0;stroke-dasharray:2.0,2.0;" x1="386.5" x2="949.5" y1="563.8516" y2="563.8516"/><text fill="#000000" font-family="sans-serif" font-size="13" lengthAdjust="spacing" textLength="199" x="398.5" y="558.7856">deterministic collection address</text><polygon fill="#181818" points="606.5,588.9844,616.5,592.9844,606.5,596.9844,610.5,592.9844" style="stroke:#181818;stroke-width:1.0;"/><line style="stroke:#181818;stroke-width:1.0;" x1="381.5" x2="612.5" y1="592.9844" y2="592.9844"/><text fill="#000000" font-family="sans-serif" font-size="13" lengthAdjust="spacing" textLength="213" x="388.5" y="587.9185">get new uid for collection address</text><polygon fill="#181818" points="1054,633.25,1064,637.25,1054,641.25,1058,637.25" style="stroke:#181818;stroke-width:1.0;"/><line style="stroke:#181818;stroke-width:1.0;" x1="618.5" x2="1060" y1="637.25" y2="637.25"/><text fill="#000000" font-family="sans-serif" font-size="13" lengthAdjust="spacing" textLength="116" x="625.5" y="617.0513">get next token uid</text><text fill="#000000" font-family="sans-serif" font-size="13" lengthAdjust="spacing" textLength="182" x="625.5" y="632.1841">scoped to collection address</text><polygon fill="#181818" points="629.5,662.3828,619.5,666.3828,629.5,670.3828,625.5,666.3828" style="stroke:#181818;stroke-width:1.0;"/><line style="stroke:#181818;stroke-width:1.0;stroke-dasharray:2.0,2.0;" x1="623.5" x2="1065" y1="666.3828" y2="666.3828"/><text fill="#000000" font-family="sans-serif" font-size="13" lengthAdjust="spacing" textLength="91" x="635.5" y="661.3169">next token uid</text><polygon fill="#181818" points="392.5,691.5156,382.5,695.5156,392.5,699.5156,388.5,695.5156" style="stroke:#181818;stroke-width:1.0;"/><line style="stroke:#181818;stroke-width:1.0;stroke-dasharray:2.0,2.0;" x1="386.5" x2="617.5" y1="695.5156" y2="695.5156"/><text fill="#000000" font-family="sans-serif" font-size="13" lengthAdjust="spacing" textLength="91" x="398.5" y="690.4497">next token uid</text><polygon fill="#181818" points="359.5,720.6484,369.5,724.6484,359.5,728.6484,363.5,724.6484" style="stroke:#181818;stroke-width:1.0;"/><line style="stroke:#181818;stroke-width:1.0;" x1="48.5" x2="365.5" y1="724.6484" y2="724.6484"/><text fill="#000000" font-family="sans-serif" font-size="13" lengthAdjust="spacing" textLength="224" x="55.5" y="719.5825">Submit new token creation params</text><polygon fill="#181818" points="59.5,764.9141,49.5,768.9141,59.5,772.9141,55.5,768.9141" style="stroke:#181818;stroke-width:1.0;"/><line style="stroke:#181818;stroke-width:1.0;" x1="53.5" x2="375.5" y1="768.9141" y2="768.9141"/><text fill="#000000" font-family="sans-serif" font-size="13" lengthAdjust="spacing" textLength="129" x="65.5" y="748.7153">request signature of</text><text fill="#000000" font-family="sans-serif" font-size="13" lengthAdjust="spacing" textLength="295" x="69.5" y="763.8481">contract + token creation params + token uid</text><polygon fill="#181818" points="606.5,794.0469,616.5,798.0469,606.5,802.0469,610.5,798.0469" style="stroke:#181818;stroke-width:1.0;"/><line style="stroke:#181818;stroke-width:1.0;" x1="48.5" x2="612.5" y1="798.0469" y2="798.0469"/><text fill="#000000" font-family="sans-serif" font-size="13" lengthAdjust="spacing" textLength="368" x="55.5" y="792.981">Submit signature + contract + token params + token uid</text><polygon fill="#181818" points="938.5,823.1797,948.5,827.1797,938.5,831.1797,942.5,827.1797" style="stroke:#181818;stroke-width:1.0;"/><line style="stroke:#181818;stroke-width:1.0;" x1="618.5" x2="944.5" y1="827.1797" y2="827.1797"/><text fill="#000000" font-family="sans-serif" font-size="13" lengthAdjust="spacing" textLength="114" x="625.5" y="822.1138">validate signature</text><polygon fill="#181818" points="629.5,852.3125,619.5,856.3125,629.5,860.3125,625.5,856.3125" style="stroke:#181818;stroke-width:1.0;"/><line style="stroke:#181818;stroke-width:1.0;stroke-dasharray:2.0,2.0;" x1="623.5" x2="949.5" y1="856.3125" y2="856.3125"/><text fill="#000000" font-family="sans-serif" font-size="13" lengthAdjust="spacing" textLength="308" x="635.5" y="851.2466">validation results (true/false &amp; recovered signer)</text><path d="M562,871.3125 L735,871.3125 L735,878.4453 L725,888.4453 L562,888.4453 L562,871.3125 " fill="#EEEEEE" style="stroke:#000000;stroke-width:1.5;"/><rect fill="none" height="106.7969" style="stroke:#000000;stroke-width:1.5;" width="560.5" x="562" y="871.3125"/><text fill="#000000" font-family="sans-serif" font-size="13" font-weight="bold" lengthAdjust="spacing" textLength="128" x="577" y="884.3794">Signature is valid</text><polygon fill="#181818" points="1054,966.1094,1064,970.1094,1054,974.1094,1058,970.1094" style="stroke:#181818;stroke-width:1.0;"/><line style="stroke:#181818;stroke-width:1.0;" x1="618.5" x2="1060" y1="970.1094" y2="970.1094"/><text fill="#000000" font-family="sans-serif" font-size="13" lengthAdjust="spacing" textLength="112" x="625.5" y="904.5122">store signature +</text><text fill="#000000" font-family="sans-serif" font-size="13" lengthAdjust="spacing" textLength="124" x="625.5" y="919.645">contract creation +</text><text fill="#000000" font-family="sans-serif" font-size="13" lengthAdjust="spacing" textLength="160" x="625.5" y="934.7778">token creation params +</text><text fill="#000000" font-family="sans-serif" font-size="13" lengthAdjust="spacing" textLength="130" x="625.5" y="949.9106">collection address +</text><text fill="#000000" font-family="sans-serif" font-size="13" lengthAdjust="spacing" textLength="59" x="625.5" y="965.0435">token uid</text><!--SRC=[XLGzRzim4DtvAsugKWH5aI6BXW9rN1HT2WCPkcYXoRD5H2OTykJ4_xv7IjONRHdmO9vuxxrxnpioL2EyU9Hax1ua1BEtaXgFi7EUpnO_0BrwUdf-1kKiUQa87e7S6reX-C2tKhhp0YqPEhT7tCWzYgrhh9R-3AyNs9-RFqDqu_5WBBrqk1U0_l9w9OJuxLrp769W7O5A53ffx5MTaGG0__XWJlnzh0GkAk7RZr6yW834y7z__Hk0h3mWrsWEeyHqE-QEAodW96kZ8nLLaWQ4qduOgY14eAFqyX2YrDAgJeDs62m1VfeGDOyn9nphLG6gGlK6PZTgJGAlPAYOQ6A12I1hvj1d2Co3EWEVLT_fDyw2nz3K50HtGUUkCnji4UrLwyLjUsidDLl0tctFe97GSyS36SN9TOqgKKkjcJt07RCJrYWjIOb_Mell6Rb3KjL2VcbPOdJrdccztNC1hNMB3otEKpiyqqfder307gdpoveRVebPKYRqZjzYoUp87yKsvjBhB7tHxJR_azfg8qnfWt97VZha5j7MgrJ8LCuKIYpsPtRtHZzUc-t1qD2Gh9jJTpgKWkValS50et5qkz9cot4EryUZeKBZjIKrKZgjljCwK3xcV3bDrg3iaVNhgqU- -gQkxhpHpe07yWr-tyaw87pXg78dvEsJOD5_pTS9Bwe48-uDRLfZay9vYsRp5wEtN8_tiqqp94IVqjp-1m00]--></g></svg>
