<?xml version="1.0" encoding="UTF-8" standalone="no"?><svg xmlns="http://www.w3.org/2000/svg" xmlns:xlink="http://www.w3.org/1999/xlink" contentStyleType="text/css" height="762px" preserveAspectRatio="none" style="width:995px;height:762px;background:#FFFFFF;" version="1.1" viewBox="0 0 995 762" width="995px" zoomAndPan="magnify"><defs/><g><text fill="#000000" font-family="sans-serif" font-size="14" font-weight="bold" lengthAdjust="spacing" textLength="468" x="265.25" y="27.9951">Updating token parameters before token has been created</text><rect fill="#FFFFFF" height="44.2656" style="stroke:#181818;stroke-width:1.0;" width="10" x="311.5" y="149.7266"/><rect fill="#FFFFFF" height="205.0625" style="stroke:#181818;stroke-width:1.0;" width="10" x="410.5" y="311.6563"/><rect fill="#FFFFFF" height="449.3906" style="stroke:#181818;stroke-width:1.0;" width="10" x="641.5" y="223.125"/><rect fill="#FFFFFF" height="126.6641" style="stroke:#181818;stroke-width:1.0;" width="10" x="827.5" y="545.8516"/><rect fill="#FFFFFF" height="146.7969" style="stroke:#181818;stroke-width:1.0;" width="10" x="943" y="282.5234"/><line style="stroke:#181818;stroke-width:0.5;stroke-dasharray:5.0,5.0;" x1="38" x2="38" y1="118.5938" y2="681.5156"/><line style="stroke:#181818;stroke-width:0.5;stroke-dasharray:5.0,5.0;" x1="110" x2="110" y1="118.5938" y2="681.5156"/><line style="stroke:#181818;stroke-width:0.5;stroke-dasharray:5.0,5.0;" x1="316" x2="316" y1="118.5938" y2="681.5156"/><line style="stroke:#181818;stroke-width:0.5;stroke-dasharray:5.0,5.0;" x1="415" x2="415" y1="118.5938" y2="681.5156"/><line style="stroke:#181818;stroke-width:0.5;stroke-dasharray:5.0,5.0;" x1="646" x2="646" y1="118.5938" y2="681.5156"/><line style="stroke:#181818;stroke-width:0.5;stroke-dasharray:5.0,5.0;" x1="832.5" x2="832.5" y1="118.5938" y2="681.5156"/><line style="stroke:#181818;stroke-width:0.5;stroke-dasharray:5.0,5.0;" x1="947.5" x2="947.5" y1="118.5938" y2="681.5156"/><text fill="#000000" font-family="sans-serif" font-size="14" lengthAdjust="spacing" textLength="61" x="5" y="115.292">Collector</text><ellipse cx="38.5" cy="50.7969" fill="#E2E2F0" rx="8" ry="8" style="stroke:#181818;stroke-width:0.5;"/><path d="M38.5,58.7969 L38.5,85.7969 M25.5,66.7969 L51.5,66.7969 M38.5,85.7969 L25.5,100.7969 M38.5,85.7969 L51.5,100.7969 " fill="none" style="stroke:#181818;stroke-width:0.5;"/><text fill="#000000" font-family="sans-serif" font-size="14" lengthAdjust="spacing" textLength="61" x="5" y="693.5107">Collector</text><ellipse cx="38.5" cy="705.3125" fill="#E2E2F0" rx="8" ry="8" style="stroke:#181818;stroke-width:0.5;"/><path d="M38.5,713.3125 L38.5,740.3125 M25.5,721.3125 L51.5,721.3125 M38.5,740.3125 L25.5,755.3125 M38.5,740.3125 L51.5,755.3125 " fill="none" style="stroke:#181818;stroke-width:0.5;"/><text fill="#000000" font-family="sans-serif" font-size="14" lengthAdjust="spacing" textLength="51" x="82" y="115.292">Creator</text><ellipse cx="110.5" cy="50.7969" fill="#E2E2F0" rx="8" ry="8" style="stroke:#181818;stroke-width:0.5;"/><path d="M110.5,58.7969 L110.5,85.7969 M97.5,66.7969 L123.5,66.7969 M110.5,85.7969 L97.5,100.7969 M110.5,85.7969 L123.5,100.7969 " fill="none" style="stroke:#181818;stroke-width:0.5;"/><text fill="#000000" font-family="sans-serif" font-size="14" lengthAdjust="spacing" textLength="51" x="82" y="693.5107">Creator</text><ellipse cx="110.5" cy="705.3125" fill="#E2E2F0" rx="8" ry="8" style="stroke:#181818;stroke-width:0.5;"/><path d="M110.5,713.3125 L110.5,740.3125 M97.5,721.3125 L123.5,721.3125 M110.5,740.3125 L97.5,755.3125 M110.5,740.3125 L123.5,755.3125 " fill="none" style="stroke:#181818;stroke-width:0.5;"/><text fill="#000000" font-family="sans-serif" font-size="14" lengthAdjust="spacing" textLength="81" x="273" y="115.292">CreatePage</text><ellipse cx="316.5" cy="86.2969" fill="#E2E2F0" rx="12" ry="12" style="stroke:#181818;stroke-width:0.5;"/><line style="stroke:#181818;stroke-width:0.5;" x1="304.5" x2="328.5" y1="100.2969" y2="100.2969"/><text fill="#000000" font-family="sans-serif" font-size="14" lengthAdjust="spacing" textLength="81" x="273" y="693.5107">CreatePage</text><ellipse cx="316.5" cy="712.8125" fill="#E2E2F0" rx="12" ry="12" style="stroke:#181818;stroke-width:0.5;"/><line style="stroke:#181818;stroke-width:0.5;" x1="304.5" x2="328.5" y1="726.8125" y2="726.8125"/><text fill="#000000" font-family="sans-serif" font-size="14" lengthAdjust="spacing" textLength="85" x="370" y="115.292">UpdatePage</text><ellipse cx="415.5" cy="86.2969" fill="#E2E2F0" rx="12" ry="12" style="stroke:#181818;stroke-width:0.5;"/><line style="stroke:#181818;stroke-width:0.5;" x1="403.5" x2="427.5" y1="100.2969" y2="100.2969"/><text fill="#000000" font-family="sans-serif" font-size="14" lengthAdjust="spacing" textLength="85" x="370" y="693.5107">UpdatePage</text><ellipse cx="415.5" cy="712.8125" fill="#E2E2F0" rx="12" ry="12" style="stroke:#181818;stroke-width:0.5;"/><line style="stroke:#181818;stroke-width:0.5;" x1="403.5" x2="427.5" y1="726.8125" y2="726.8125"/><text fill="#000000" font-family="sans-serif" font-size="14" lengthAdjust="spacing" textLength="87" x="600" y="115.292">SignatureAPI</text><path d="M626,74.2969 L626,98.2969 M626,86.2969 L643,86.2969 " fill="none" style="stroke:#181818;stroke-width:0.5;"/><ellipse cx="655" cy="86.2969" fill="#E2E2F0" rx="12" ry="12" style="stroke:#181818;stroke-width:0.5;"/><text fill="#000000" font-family="sans-serif" font-size="14" lengthAdjust="spacing" textLength="87" x="600" y="693.5107">SignatureAPI</text><path d="M626,700.8125 L626,724.8125 M626,712.8125 L643,712.8125 " fill="none" style="stroke:#181818;stroke-width:0.5;"/><ellipse cx="655" cy="712.8125" fill="#E2E2F0" rx="12" ry="12" style="stroke:#181818;stroke-width:0.5;"/><text fill="#000000" font-family="sans-serif" font-size="14" lengthAdjust="spacing" textLength="112" x="773.5" y="115.292">PremintContract</text><ellipse cx="832.5" cy="86.2969" fill="#E2E2F0" rx="12" ry="12" style="stroke:#181818;stroke-width:0.5;"/><line style="stroke:#181818;stroke-width:0.5;" x1="820.5" x2="844.5" y1="100.2969" y2="100.2969"/><text fill="#000000" font-family="sans-serif" font-size="14" lengthAdjust="spacing" textLength="112" x="773.5" y="693.5107">PremintContract</text><ellipse cx="832.5" cy="712.8125" fill="#E2E2F0" rx="12" ry="12" style="stroke:#181818;stroke-width:0.5;"/><line style="stroke:#181818;stroke-width:0.5;" x1="820.5" x2="844.5" y1="726.8125" y2="726.8125"/><text fill="#000000" font-family="sans-serif" font-size="14" lengthAdjust="spacing" textLength="87" x="901.5" y="115.292">SignatureDB</text><ellipse cx="948" cy="86.2969" fill="#E2E2F0" rx="12" ry="12" style="stroke:#181818;stroke-width:0.5;"/><line style="stroke:#181818;stroke-width:0.5;" x1="936" x2="960" y1="100.2969" y2="100.2969"/><text fill="#000000" font-family="sans-serif" font-size="14" lengthAdjust="spacing" textLength="87" x="901.5" y="693.5107">SignatureDB</text><ellipse cx="948" cy="712.8125" fill="#E2E2F0" rx="12" ry="12" style="stroke:#181818;stroke-width:0.5;"/><line style="stroke:#181818;stroke-width:0.5;" x1="936" x2="960" y1="726.8125" y2="726.8125"/><rect fill="#FFFFFF" height="44.2656" style="stroke:#181818;stroke-width:1.0;" width="10" x="311.5" y="149.7266"/><rect fill="#FFFFFF" height="205.0625" style="stroke:#181818;stroke-width:1.0;" width="10" x="410.5" y="311.6563"/><rect fill="#FFFFFF" height="449.3906" style="stroke:#181818;stroke-width:1.0;" width="10" x="641.5" y="223.125"/><rect fill="#FFFFFF" height="126.6641" style="stroke:#181818;stroke-width:1.0;" width="10" x="827.5" y="545.8516"/><rect fill="#FFFFFF" height="146.7969" style="stroke:#181818;stroke-width:1.0;" width="10" x="943" y="282.5234"/><polygon fill="#181818" points="299.5,145.7266,309.5,149.7266,299.5,153.7266,303.5,149.7266" style="stroke:#181818;stroke-width:1.0;"/><line style="stroke:#181818;stroke-width:1.0;" x1="110.5" x2="305.5" y1="149.7266" y2="149.7266"/><text fill="#000000" font-family="sans-serif" font-size="13" lengthAdjust="spacing" textLength="182" x="117.5" y="144.6606">create new contract + token</text><polygon fill="#181818" points="121.5,189.9922,111.5,193.9922,121.5,197.9922,117.5,193.9922" style="stroke:#181818;stroke-width:1.0;"/><line style="stroke:#181818;stroke-width:1.0;" x1="115.5" x2="315.5" y1="193.9922" y2="193.9922"/><text fill="#000000" font-family="sans-serif" font-size="13" lengthAdjust="spacing" textLength="129" x="127.5" y="173.7935">request signature of</text><text fill="#000000" font-family="sans-serif" font-size="13" lengthAdjust="spacing" textLength="64" x="131.5" y="188.9263">data hash</text><polygon fill="#181818" points="629.5,219.125,639.5,223.125,629.5,227.125,633.5,223.125" style="stroke:#181818;stroke-width:1.0;"/><line style="stroke:#181818;stroke-width:1.0;" x1="110.5" x2="635.5" y1="223.125" y2="223.125"/><text fill="#000000" font-family="sans-serif" font-size="13" lengthAdjust="spacing" textLength="290" x="117.5" y="218.0591">Submit signature + contract + token params</text><polygon fill="#181818" points="931,278.5234,941,282.5234,931,286.5234,935,282.5234" style="stroke:#181818;stroke-width:1.0;"/><line style="stroke:#181818;stroke-width:1.0;" x1="651.5" x2="937" y1="282.5234" y2="282.5234"/><text fill="#000000" font-family="sans-serif" font-size="13" lengthAdjust="spacing" textLength="112" x="658.5" y="247.1919">store signature +</text><text fill="#000000" font-family="sans-serif" font-size="13" lengthAdjust="spacing" textLength="124" x="658.5" y="262.3247">contract creation +</text><text fill="#000000" font-family="sans-serif" font-size="13" lengthAdjust="spacing" textLength="145" x="658.5" y="277.4575">token creation params</text><polygon fill="#181818" points="398.5,307.6563,408.5,311.6563,398.5,315.6563,402.5,311.6563" style="stroke:#181818;stroke-width:1.0;"/><line style="stroke:#181818;stroke-width:1.0;" x1="110.5" x2="404.5" y1="311.6563" y2="311.6563"/><text fill="#000000" font-family="sans-serif" font-size="13" lengthAdjust="spacing" textLength="228" x="117.5" y="306.5903">load existing premint token by hash</text><polygon fill="#181818" points="629.5,351.9219,639.5,355.9219,629.5,359.9219,633.5,355.9219" style="stroke:#181818;stroke-width:1.0;"/><line style="stroke:#181818;stroke-width:1.0;" x1="420.5" x2="635.5" y1="355.9219" y2="355.9219"/><text fill="#000000" font-family="sans-serif" font-size="13" lengthAdjust="spacing" textLength="197" x="427.5" y="335.7231">fetch contract &amp; token params</text><text fill="#000000" font-family="sans-serif" font-size="13" lengthAdjust="spacing" textLength="50" x="427.5" y="350.856">by hash</text><polygon fill="#181818" points="931,381.0547,941,385.0547,931,389.0547,935,385.0547" style="stroke:#181818;stroke-width:1.0;"/><line style="stroke:#181818;stroke-width:1.0;" x1="651.5" x2="937" y1="385.0547" y2="385.0547"/><text fill="#000000" font-family="sans-serif" font-size="13" lengthAdjust="spacing" textLength="186" x="658.5" y="379.9888">get contract &amp; token params</text><polygon fill="#181818" points="662.5,425.3203,652.5,429.3203,662.5,433.3203,658.5,429.3203" style="stroke:#181818;stroke-width:1.0;"/><line style="stroke:#181818;stroke-width:1.0;stroke-dasharray:2.0,2.0;" x1="656.5" x2="947" y1="429.3203" y2="429.3203"/><text fill="#000000" font-family="sans-serif" font-size="13" lengthAdjust="spacing" textLength="204" x="668.5" y="409.1216">return contract &amp; token params</text><text fill="#000000" font-family="sans-serif" font-size="13" lengthAdjust="spacing" textLength="47" x="668.5" y="424.2544">of hash</text><polygon fill="#181818" points="431.5,454.4531,421.5,458.4531,431.5,462.4531,427.5,458.4531" style="stroke:#181818;stroke-width:1.0;"/><line style="stroke:#181818;stroke-width:1.0;stroke-dasharray:2.0,2.0;" x1="425.5" x2="640.5" y1="458.4531" y2="458.4531"/><text fill="#000000" font-family="sans-serif" font-size="13" lengthAdjust="spacing" textLength="161" x="437.5" y="453.3872">contract &amp; token params</text><polygon fill="#181818" points="398.5,483.5859,408.5,487.5859,398.5,491.5859,402.5,487.5859" style="stroke:#181818;stroke-width:1.0;"/><line style="stroke:#181818;stroke-width:1.0;" x1="110.5" x2="404.5" y1="487.5859" y2="487.5859"/><text fill="#000000" font-family="sans-serif" font-size="13" lengthAdjust="spacing" textLength="85" x="117.5" y="482.52">update token</text><polygon fill="#181818" points="121.5,512.7188,111.5,516.7188,121.5,520.7188,117.5,516.7188" style="stroke:#181818;stroke-width:1.0;"/><line style="stroke:#181818;stroke-width:1.0;" x1="115.5" x2="414.5" y1="516.7188" y2="516.7188"/><text fill="#000000" font-family="sans-serif" font-size="13" lengthAdjust="spacing" textLength="75" x="127.5" y="511.6528">sign update</text><polygon fill="#181818" points="815.5,541.8516,825.5,545.8516,815.5,549.8516,819.5,545.8516" style="stroke:#181818;stroke-width:1.0;"/><line style="stroke:#181818;stroke-width:1.0;" x1="110.5" x2="821.5" y1="545.8516" y2="545.8516"/><text fill="#000000" font-family="sans-serif" font-size="13" lengthAdjust="spacing" textLength="146" x="117.5" y="540.7856">fetch nonce for creator</text><polygon fill="#181818" points="121.5,570.9844,111.5,574.9844,121.5,578.9844,117.5,574.9844" style="stroke:#181818;stroke-width:1.0;"/><line style="stroke:#181818;stroke-width:1.0;stroke-dasharray:2.0,2.0;" x1="115.5" x2="826.5" y1="574.9844" y2="574.9844"/><text fill="#000000" font-family="sans-serif" font-size="13" lengthAdjust="spacing" textLength="39" x="127.5" y="569.9185">nonce</text><polygon fill="#181818" points="629.5,615.25,639.5,619.25,629.5,623.25,633.5,619.25" style="stroke:#181818;stroke-width:1.0;"/><line style="stroke:#181818;stroke-width:1.0;" x1="110.5" x2="635.5" y1="619.25" y2="619.25"/><text fill="#000000" font-family="sans-serif" font-size="13" lengthAdjust="spacing" textLength="323" x="117.5" y="599.0513">Submit update signature containing token hash id,</text><text fill="#000000" font-family="sans-serif" font-size="13" lengthAdjust="spacing" textLength="136" x="117.5" y="614.1841">token params, nonce</text><polygon fill="#181818" points="815.5,659.5156,825.5,663.5156,815.5,667.5156,819.5,663.5156" style="stroke:#181818;stroke-width:1.0;"/><line style="stroke:#181818;stroke-width:1.0;" x1="651.5" x2="821.5" y1="663.5156" y2="663.5156"/><text fill="#000000" font-family="sans-serif" font-size="13" lengthAdjust="spacing" textLength="149" x="658.5" y="643.3169">Verify update signature</text><text fill="#000000" font-family="sans-serif" font-size="13" lengthAdjust="spacing" textLength="152" x="658.5" y="658.4497">&amp; store pending update</text><!--SRC=[XLIxSeD03Epv2bLkRFy0HMPYkqddcKnIqHmWy4ri7Jb44lu-t0iE699E4lBkQgKpIxuZl3MbO4ariFf0WaPeyK16tKAEbTBewpTX2aDGQ1ICPPA8WfM6ixhVqKGXDv-738abzox5gwWnL2oVg-IgerBe7bvbJO8xZS_Nbz1trVYGn6T5h0VeK1vRBwSayMHmV8g8KYyH2B-Xy3-7lP_3o9HVvdCaRGf7AALJqFZPOSlG1avGLKOmw1V6ZrjIuYQQKnKFbi9hbpza3BTVwxF-jvFAcJLnCeE_d59esMmh1izeXBUMI4MswfZ6qYRbmk9fSodSbIW1VsHhJwTnk_8ZvBrpPmICLZw5QtigvE8sERAREP9HWFtJX1fv2o696k6uOjSuXBHDhwhLpcEZvgeMRcqfsdAtix7hNLWs7gTPj6-CDKLUn-YBrnJC9aK5ml3CtJMuL-o0bkzlaTiPHp4Mvz_3zsDD9sfy4PAcVn_ZCCZo46xK-NJm-ClDhuPwHoshViMJqSw_ZWQfD6pUjoJv1G00]--></g></svg>