<?xml version="1.0" encoding="UTF-8" standalone="no"?><svg xmlns="http://www.w3.org/2000/svg" xmlns:xlink="http://www.w3.org/1999/xlink" contentStyleType="text/css" height="650px" preserveAspectRatio="none" style="width:963px;height:650px;background:#FFFFFF;" version="1.1" viewBox="0 0 963 650" width="963px" zoomAndPan="magnify"><defs/><g><rect fill="#FFFFFF" height="116.5313" style="stroke:#181818;stroke-width:1.0;" width="10" x="195.5" y="127.5625"/><rect fill="#FFFFFF" height="234.0625" style="stroke:#181818;stroke-width:1.0;" width="10" x="588" y="288.3594"/><rect fill="#FFFFFF" height="123.5313" style="stroke:#181818;stroke-width:1.0;" width="10" x="892" y="428.0234"/><rect fill="none" height="75.3984" style="stroke:#000000;stroke-width:1.5;" width="440.5" x="517" y="360.625"/><line style="stroke:#181818;stroke-width:0.5;stroke-dasharray:5.0,5.0;" x1="38" x2="38" y1="81.2969" y2="569.5547"/><line style="stroke:#181818;stroke-width:0.5;stroke-dasharray:5.0,5.0;" x1="200.5" x2="200.5" y1="81.2969" y2="569.5547"/><line style="stroke:#181818;stroke-width:0.5;stroke-dasharray:5.0,5.0;" x1="470" x2="470" y1="81.2969" y2="569.5547"/><line style="stroke:#181818;stroke-width:0.5;stroke-dasharray:5.0,5.0;" x1="593" x2="593" y1="81.2969" y2="569.5547"/><line style="stroke:#181818;stroke-width:0.5;stroke-dasharray:5.0,5.0;" x1="760.5" x2="760.5" y1="81.2969" y2="569.5547"/><line style="stroke:#181818;stroke-width:0.5;stroke-dasharray:5.0,5.0;" x1="896.5" x2="896.5" y1="81.2969" y2="569.5547"/><text fill="#000000" font-family="sans-serif" font-size="14" lengthAdjust="spacing" textLength="61" x="5" y="77.9951">Collector</text><ellipse cx="38.5" cy="13.5" fill="#E2E2F0" rx="8" ry="8" style="stroke:#181818;stroke-width:0.5;"/><path d="M38.5,21.5 L38.5,48.5 M25.5,29.5 L51.5,29.5 M38.5,48.5 L25.5,63.5 M38.5,48.5 L51.5,63.5 " fill="none" style="stroke:#181818;stroke-width:0.5;"/><text fill="#000000" font-family="sans-serif" font-size="14" lengthAdjust="spacing" textLength="61" x="5" y="581.5498">Collector</text><ellipse cx="38.5" cy="593.3516" fill="#E2E2F0" rx="8" ry="8" style="stroke:#181818;stroke-width:0.5;"/><path d="M38.5,601.3516 L38.5,628.3516 M25.5,609.3516 L51.5,609.3516 M38.5,628.3516 L25.5,643.3516 M38.5,628.3516 L51.5,643.3516 " fill="none" style="stroke:#181818;stroke-width:0.5;"/><text fill="#000000" font-family="sans-serif" font-size="14" lengthAdjust="spacing" textLength="82" x="156.5" y="77.9951">CollectPage</text><ellipse cx="200.5" cy="49" fill="#E2E2F0" rx="12" ry="12" style="stroke:#181818;stroke-width:0.5;"/><line style="stroke:#181818;stroke-width:0.5;" x1="188.5" x2="212.5" y1="63" y2="63"/><text fill="#000000" font-family="sans-serif" font-size="14" lengthAdjust="spacing" textLength="82" x="156.5" y="581.5498">CollectPage</text><ellipse cx="200.5" cy="600.8516" fill="#E2E2F0" rx="12" ry="12" style="stroke:#181818;stroke-width:0.5;"/><line style="stroke:#181818;stroke-width:0.5;" x1="188.5" x2="212.5" y1="614.8516" y2="614.8516"/><text fill="#000000" font-family="sans-serif" font-size="14" lengthAdjust="spacing" textLength="87" x="424" y="77.9951">SignatureAPI</text><path d="M450,37 L450,61 M450,49 L467,49 " fill="none" style="stroke:#181818;stroke-width:0.5;"/><ellipse cx="479" cy="49" fill="#E2E2F0" rx="12" ry="12" style="stroke:#181818;stroke-width:0.5;"/><text fill="#000000" font-family="sans-serif" font-size="14" lengthAdjust="spacing" textLength="87" x="424" y="581.5498">SignatureAPI</text><path d="M450,588.8516 L450,612.8516 M450,600.8516 L467,600.8516 " fill="none" style="stroke:#181818;stroke-width:0.5;"/><ellipse cx="479" cy="600.8516" fill="#E2E2F0" rx="12" ry="12" style="stroke:#181818;stroke-width:0.5;"/><text fill="#000000" font-family="sans-serif" font-size="14" lengthAdjust="spacing" textLength="126" x="527" y="77.9951">PreminterContract</text><ellipse cx="593" cy="49" fill="#E2E2F0" rx="12" ry="12" style="stroke:#181818;stroke-width:0.5;"/><line style="stroke:#181818;stroke-width:0.5;" x1="581" x2="605" y1="63" y2="63"/><text fill="#000000" font-family="sans-serif" font-size="14" lengthAdjust="spacing" textLength="126" x="527" y="581.5498">PreminterContract</text><ellipse cx="593" cy="600.8516" fill="#E2E2F0" rx="12" ry="12" style="stroke:#181818;stroke-width:0.5;"/><line style="stroke:#181818;stroke-width:0.5;" x1="581" x2="605" y1="614.8516" y2="614.8516"/><text fill="#000000" font-family="sans-serif" font-size="14" lengthAdjust="spacing" textLength="145" x="685.5" y="77.9951">1155FactoryContract</text><ellipse cx="761" cy="49" fill="#E2E2F0" rx="12" ry="12" style="stroke:#181818;stroke-width:0.5;"/><line style="stroke:#181818;stroke-width:0.5;" x1="749" x2="773" y1="63" y2="63"/><text fill="#000000" font-family="sans-serif" font-size="14" lengthAdjust="spacing" textLength="145" x="685.5" y="581.5498">1155FactoryContract</text><ellipse cx="761" cy="600.8516" fill="#E2E2F0" rx="12" ry="12" style="stroke:#181818;stroke-width:0.5;"/><line style="stroke:#181818;stroke-width:0.5;" x1="749" x2="773" y1="614.8516" y2="614.8516"/><text fill="#000000" font-family="sans-serif" font-size="14" lengthAdjust="spacing" textLength="95" x="846.5" y="77.9951">1155Contract</text><ellipse cx="897" cy="49" fill="#E2E2F0" rx="12" ry="12" style="stroke:#181818;stroke-width:0.5;"/><line style="stroke:#181818;stroke-width:0.5;" x1="885" x2="909" y1="63" y2="63"/><text fill="#000000" font-family="sans-serif" font-size="14" lengthAdjust="spacing" textLength="95" x="846.5" y="581.5498">1155Contract</text><ellipse cx="897" cy="600.8516" fill="#E2E2F0" rx="12" ry="12" style="stroke:#181818;stroke-width:0.5;"/><line style="stroke:#181818;stroke-width:0.5;" x1="885" x2="909" y1="614.8516" y2="614.8516"/><rect fill="#FFFFFF" height="116.5313" style="stroke:#181818;stroke-width:1.0;" width="10" x="195.5" y="127.5625"/><rect fill="#FFFFFF" height="234.0625" style="stroke:#181818;stroke-width:1.0;" width="10" x="588" y="288.3594"/><rect fill="#FFFFFF" height="123.5313" style="stroke:#181818;stroke-width:1.0;" width="10" x="892" y="428.0234"/><polygon fill="#181818" points="183.5,123.5625,193.5,127.5625,183.5,131.5625,187.5,127.5625" style="stroke:#181818;stroke-width:1.0;"/><line style="stroke:#181818;stroke-width:1.0;" x1="38.5" x2="189.5" y1="127.5625" y2="127.5625"/><text fill="#000000" font-family="sans-serif" font-size="13" lengthAdjust="spacing" textLength="116" x="45.5" y="107.3638">Open, params are</text><text fill="#000000" font-family="sans-serif" font-size="13" lengthAdjust="spacing" textLength="138" x="45.5" y="122.4966">contract id + token id</text><polygon fill="#181818" points="458.5,152.6953,468.5,156.6953,458.5,160.6953,462.5,156.6953" style="stroke:#181818;stroke-width:1.0;"/><line style="stroke:#181818;stroke-width:1.0;" x1="205.5" x2="464.5" y1="156.6953" y2="156.6953"/><text fill="#000000" font-family="sans-serif" font-size="13" lengthAdjust="spacing" textLength="196" x="212.5" y="151.6294">Fetch by contract id + token id</text><polygon fill="#181818" points="216.5,181.8281,206.5,185.8281,216.5,189.8281,212.5,185.8281" style="stroke:#181818;stroke-width:1.0;"/><line style="stroke:#181818;stroke-width:1.0;" x1="210.5" x2="469.5" y1="185.8281" y2="185.8281"/><text fill="#000000" font-family="sans-serif" font-size="13" lengthAdjust="spacing" textLength="241" x="222.5" y="180.7622">contract creation params + signature</text><polygon fill="#181818" points="183.5,210.9609,193.5,214.9609,183.5,218.9609,187.5,214.9609" style="stroke:#181818;stroke-width:1.0;"/><line style="stroke:#181818;stroke-width:1.0;" x1="38.5" x2="189.5" y1="214.9609" y2="214.9609"/><text fill="#000000" font-family="sans-serif" font-size="13" lengthAdjust="spacing" textLength="29" x="45.5" y="209.895">mint</text><polygon fill="#181818" points="49.5,240.0938,39.5,244.0938,49.5,248.0938,45.5,244.0938" style="stroke:#181818;stroke-width:1.0;"/><line style="stroke:#181818;stroke-width:1.0;" x1="43.5" x2="199.5" y1="244.0938" y2="244.0938"/><text fill="#000000" font-family="sans-serif" font-size="13" lengthAdjust="spacing" textLength="122" x="55.5" y="239.0278">Submit transaction</text><polygon fill="#181818" points="576,284.3594,586,288.3594,576,292.3594,580,288.3594" style="stroke:#181818;stroke-width:1.0;"/><line style="stroke:#181818;stroke-width:1.0;" x1="38.5" x2="582" y1="288.3594" y2="288.3594"/><text fill="#000000" font-family="sans-serif" font-size="13" lengthAdjust="spacing" textLength="246" x="45.5" y="268.1606">Submit premint transaction containing</text><text fill="#000000" font-family="sans-serif" font-size="13" lengthAdjust="spacing" textLength="341" x="45.5" y="283.2935">signature, contract creation &amp; token creation params</text><line style="stroke:#181818;stroke-width:1.0;" x1="598" x2="640" y1="332.625" y2="332.625"/><line style="stroke:#181818;stroke-width:1.0;" x1="640" x2="640" y1="332.625" y2="345.625"/><line style="stroke:#181818;stroke-width:1.0;" x1="599" x2="640" y1="345.625" y2="345.625"/><polygon fill="#181818" points="609,341.625,599,345.625,609,349.625,605,345.625" style="stroke:#181818;stroke-width:1.0;"/><text fill="#000000" font-family="sans-serif" font-size="13" lengthAdjust="spacing" textLength="144" x="605" y="312.4263">record signature used;</text><text fill="#000000" font-family="sans-serif" font-size="13" lengthAdjust="spacing" textLength="135" x="605" y="327.5591">revert if already used</text><path d="M517,360.625 L719,360.625 L719,367.7578 L709,377.7578 L517,377.7578 L517,360.625 " fill="#EEEEEE" style="stroke:#000000;stroke-width:1.5;"/><rect fill="none" height="75.3984" style="stroke:#000000;stroke-width:1.5;" width="440.5" x="517" y="360.625"/><text fill="#000000" font-family="sans-serif" font-size="13" font-weight="bold" lengthAdjust="spacing" textLength="157" x="532" y="373.6919">contract doesnt exist</text><polygon fill="#181818" points="749,394.8906,759,398.8906,749,402.8906,753,398.8906" style="stroke:#181818;stroke-width:1.0;"/><line style="stroke:#181818;stroke-width:1.0;" x1="598" x2="755" y1="398.8906" y2="398.8906"/><text fill="#000000" font-family="sans-serif" font-size="13" lengthAdjust="spacing" textLength="98" x="605" y="393.8247">create contract</text><polygon fill="#181818" points="880,424.0234,890,428.0234,880,432.0234,884,428.0234" style="stroke:#181818;stroke-width:1.0;"/><line style="stroke:#181818;stroke-width:1.0;" x1="761" x2="886" y1="428.0234" y2="428.0234"/><text fill="#000000" font-family="sans-serif" font-size="13" lengthAdjust="spacing" textLength="41" x="768" y="422.9575">create</text><polygon fill="#181818" points="880,460.1563,890,464.1563,880,468.1563,884,464.1563" style="stroke:#181818;stroke-width:1.0;"/><line style="stroke:#181818;stroke-width:1.0;" x1="598" x2="886" y1="464.1563" y2="464.1563"/><text fill="#000000" font-family="sans-serif" font-size="13" lengthAdjust="spacing" textLength="110" x="605" y="459.0903">create new token</text><polygon fill="#181818" points="880,489.2891,890,493.2891,880,497.2891,884,493.2891" style="stroke:#181818;stroke-width:1.0;"/><line style="stroke:#181818;stroke-width:1.0;" x1="598" x2="886" y1="493.2891" y2="493.2891"/><text fill="#000000" font-family="sans-serif" font-size="13" lengthAdjust="spacing" textLength="198" x="605" y="488.2231">set new token sale parameters</text><polygon fill="#181818" points="880,518.4219,890,522.4219,880,526.4219,884,522.4219" style="stroke:#181818;stroke-width:1.0;"/><line style="stroke:#181818;stroke-width:1.0;" x1="593" x2="886" y1="522.4219" y2="522.4219"/><text fill="#000000" font-family="sans-serif" font-size="13" lengthAdjust="spacing" textLength="151" x="600" y="517.356">mint tokens to collector</text><polygon fill="#181818" points="49.5,547.5547,39.5,551.5547,49.5,555.5547,45.5,551.5547" style="stroke:#181818;stroke-width:1.0;"/><line style="stroke:#181818;stroke-width:1.0;stroke-dasharray:2.0,2.0;" x1="43.5" x2="896" y1="551.5547" y2="551.5547"/><text fill="#000000" font-family="sans-serif" font-size="13" lengthAdjust="spacing" textLength="90" x="55.5" y="546.4888">Minted tokens</text><!--SRC=[ZLF1Ri8m3BtdAtpQ1JZimAMJ9Y4afXsc8N7bOXgFHIjEbRXi_VkbBGs15eHKAL7iz_oUxM8kri7I5WKrDqKiHkh-OOrx0hMp5MjqDMpCdb4gHulrUv-vTdGmBEIMbiLXBdtW-Na-Ns53Me-5ufkAnM7scXREuBCadaA93WyUq15iEJ_1m6YOWDWVud1LYrpC4OLIl4fD1EfKVGOhalmRTZNSO4op1y8Y9dU4OYpt8YVWUzmTNqt3hjN5x0msrUvW1485zg58e5UQy8x3hiHW4f6fx28fOsi13HlUXwv6qTCHQq-dfbnvLL7HS0K6BpVqESgjq-UUGUL9lspPqP5ScCWNO16gwheDAFNcR5MU9MfBFjYYF-D50OGFOBJqo2vcdH-AR2rw9B77NmFR_DY3ovKc3c9lAXb8OFhjUlm8nfES0U2ne6uW553-4O9k5Hgq3qVmt__xwPODPvgImEnoOp-QL7qYJMaksl8F]--></g></svg>