<?xml version="1.0" encoding="UTF-8" standalone="no"?><svg xmlns="http://www.w3.org/2000/svg" xmlns:xlink="http://www.w3.org/1999/xlink" contentStyleType="text/css" height="777px" preserveAspectRatio="none" style="width:738px;height:777px;background:#FFFFFF;" version="1.1" viewBox="0 0 738 777" width="738px" zoomAndPan="magnify"><defs/><g><text fill="#000000" font-family="sans-serif" font-size="14" font-weight="bold" lengthAdjust="spacing" textLength="211" x="262" y="32.9951">Creating a token signature</text><ellipse cx="407.25" cy="57.2969" fill="#222222" rx="10" ry="10" style="stroke:#222222;stroke-width:1.0;"/><polygon fill="#F1F1F1" points="378.25,87.2969,436.25,87.2969,448.25,99.2969,436.25,111.2969,378.25,111.2969,366.25,99.2969,378.25,87.2969" style="stroke:#181818;stroke-width:0.5;"/><text fill="#000000" font-family="sans-serif" font-size="11" lengthAdjust="spacing" textLength="58" x="378.25" y="103.105">new token</text><text fill="#000000" font-family="sans-serif" font-size="11" lengthAdjust="spacing" textLength="20" x="346.25" y="96.7026">yes</text><text fill="#000000" font-family="sans-serif" font-size="11" lengthAdjust="spacing" textLength="14" x="448.25" y="96.7026">no</text><polygon fill="#F1F1F1" points="181,121.2969,254,121.2969,266,133.2969,254,145.2969,181,145.2969,169,133.2969,181,121.2969" style="stroke:#181818;stroke-width:0.5;"/><text fill="#000000" font-family="sans-serif" font-size="11" lengthAdjust="spacing" textLength="73" x="181" y="137.105">new contract</text><text fill="#000000" font-family="sans-serif" font-size="11" lengthAdjust="spacing" textLength="20" x="149" y="130.7026">yes</text><text fill="#000000" font-family="sans-serif" font-size="11" lengthAdjust="spacing" textLength="14" x="266" y="130.7026">no</text><rect fill="#F1F1F1" height="47.9375" rx="12.5" ry="12.5" style="stroke:#181818;stroke-width:0.5;" width="180" x="11" y="155.2969"/><text fill="#000000" font-family="sans-serif" font-size="12" lengthAdjust="spacing" textLength="122" x="21" y="176.4355">Ask creator for new</text><text fill="#000000" font-family="sans-serif" font-size="12" lengthAdjust="spacing" textLength="160" x="21" y="190.4043">contract creation params</text><rect fill="#F1F1F1" height="47.9375" rx="12.5" ry="12.5" style="stroke:#181818;stroke-width:0.5;" width="176" x="13" y="287.2148"/><text fill="#000000" font-family="sans-serif" font-size="12" lengthAdjust="spacing" textLength="156" x="23" y="308.3535">switch ui to create token</text><text fill="#000000" font-family="sans-serif" font-size="12" lengthAdjust="spacing" textLength="125" x="23" y="322.3223">on existing contract</text><polygon fill="#F1F1F1" points="47.5,237.2031,154.5,237.2031,166.5,250.0078,154.5,262.8125,47.5,262.8125,35.5,250.0078,47.5,237.2031" style="stroke:#181818;stroke-width:0.5;"/><text fill="#000000" font-family="sans-serif" font-size="11" lengthAdjust="spacing" textLength="20" x="105" y="273.0229">yes</text><text fill="#000000" font-family="sans-serif" font-size="11" lengthAdjust="spacing" textLength="84" x="47.5" y="247.4136">contract exists</text><text fill="#000000" font-family="sans-serif" font-size="11" lengthAdjust="spacing" textLength="107" x="47.5" y="260.2183">with same params</text><text fill="#000000" font-family="sans-serif" font-size="11" lengthAdjust="spacing" textLength="14" x="166.5" y="247.4136">no</text><polygon fill="#F1F1F1" points="101,355.1523,113,367.1523,101,379.1523,89,367.1523,101,355.1523" style="stroke:#181818;stroke-width:0.5;"/><rect fill="#F1F1F1" height="61.9063" rx="12.5" ry="12.5" style="stroke:#181818;stroke-width:0.5;" width="206" x="231" y="155.2969"/><text fill="#000000" font-family="sans-serif" font-size="12" lengthAdjust="spacing" textLength="79" x="241" y="176.4355">load existing</text><text fill="#000000" font-family="sans-serif" font-size="12" lengthAdjust="spacing" textLength="186" x="241" y="190.4043">contract creation parameters</text><text fill="#000000" font-family="sans-serif" font-size="12" lengthAdjust="spacing" textLength="133" x="241" y="204.373">by collection address</text><polygon fill="#F1F1F1" points="217.5,385.1523,229.5,397.1523,217.5,409.1523,205.5,397.1523,217.5,385.1523" style="stroke:#181818;stroke-width:0.5;"/><rect fill="#F1F1F1" height="47.9375" rx="12.5" ry="12.5" style="stroke:#181818;stroke-width:0.5;" width="149" x="143" y="429.1523"/><text fill="#000000" font-family="sans-serif" font-size="12" lengthAdjust="spacing" textLength="74" x="153" y="450.291">Get new uid</text><text fill="#000000" font-family="sans-serif" font-size="12" lengthAdjust="spacing" textLength="129" x="153" y="464.2598">from backend server</text><rect fill="#F1F1F1" height="61.9063" rx="12.5" ry="12.5" style="stroke:#181818;stroke-width:0.5;" width="260" x="467" y="121.2969"/><text fill="#000000" font-family="sans-serif" font-size="12" lengthAdjust="spacing" textLength="79" x="477" y="142.4355">load existing</text><text fill="#000000" font-family="sans-serif" font-size="12" lengthAdjust="spacing" textLength="240" x="477" y="156.4043">contract + token creation parameters</text><text fill="#000000" font-family="sans-serif" font-size="12" lengthAdjust="spacing" textLength="170" x="477" y="170.373">by collection address + uid</text><polygon fill="#F1F1F1" points="407.25,483.0898,419.25,495.0898,407.25,507.0898,395.25,495.0898,407.25,483.0898" style="stroke:#181818;stroke-width:0.5;"/><rect fill="#F1F1F1" height="47.9375" rx="12.5" ry="12.5" style="stroke:#181818;stroke-width:0.5;" width="163" x="325.75" y="527.0898"/><text fill="#000000" font-family="sans-serif" font-size="12" lengthAdjust="spacing" textLength="122" x="335.75" y="548.2285">Ask creator for new</text><text fill="#000000" font-family="sans-serif" font-size="12" lengthAdjust="spacing" textLength="143" x="335.75" y="562.1973">token creation params</text><rect fill="#F1F1F1" height="47.9375" rx="12.5" ry="12.5" style="stroke:#181818;stroke-width:0.5;" width="277" x="268.75" y="595.0273"/><text fill="#000000" font-family="sans-serif" font-size="12" lengthAdjust="spacing" textLength="149" x="278.75" y="616.166">Request signature with:</text><text fill="#000000" font-family="sans-serif" font-size="12" lengthAdjust="spacing" textLength="257" x="278.75" y="630.1348">collection address + token params + uid</text><rect fill="#F1F1F1" height="61.9063" rx="12.5" ry="12.5" style="stroke:#181818;stroke-width:0.5;" width="300" x="257.25" y="662.9648"/><text fill="#000000" font-family="sans-serif" font-size="12" lengthAdjust="spacing" textLength="165" x="267.25" y="684.1035">Submit to backend server:</text><text fill="#000000" font-family="sans-serif" font-size="12" lengthAdjust="spacing" textLength="280" x="267.25" y="698.0723">collection + token params + uid + signature</text><text fill="#000000" font-family="sans-serif" font-size="12" lengthAdjust="spacing" textLength="4" x="267.25" y="712.041"> </text><ellipse cx="407.25" cy="755.8711" fill="none" rx="11" ry="11" style="stroke:#222222;stroke-width:1.0;"/><ellipse cx="407.25" cy="755.8711" fill="#222222" rx="6" ry="6" style="stroke:#111111;stroke-width:1.0;"/><line style="stroke:#181818;stroke-width:1.0;" x1="101" x2="101" y1="262.8125" y2="287.2148"/><polygon fill="#181818" points="97,277.2148,101,287.2148,105,277.2148,101,281.2148" style="stroke:#181818;stroke-width:1.0;"/><line style="stroke:#181818;stroke-width:1.0;" x1="166.5" x2="199" y1="250.0078" y2="250.0078"/><polygon fill="#181818" points="195,300.7813,199,310.7813,203,300.7813,199,304.7813" style="stroke:#181818;stroke-width:1.0;"/><line style="stroke:#181818;stroke-width:1.0;" x1="199" x2="199" y1="250.0078" y2="367.1523"/><line style="stroke:#181818;stroke-width:1.0;" x1="199" x2="113" y1="367.1523" y2="367.1523"/><polygon fill="#181818" points="123,363.1523,113,367.1523,123,371.1523,119,367.1523" style="stroke:#181818;stroke-width:1.0;"/><line style="stroke:#181818;stroke-width:1.0;" x1="101" x2="101" y1="335.1523" y2="355.1523"/><polygon fill="#181818" points="97,345.1523,101,355.1523,105,345.1523,101,349.1523" style="stroke:#181818;stroke-width:1.0;"/><line style="stroke:#181818;stroke-width:1.0;" x1="101" x2="101" y1="203.2344" y2="237.2031"/><polygon fill="#181818" points="97,227.2031,101,237.2031,105,227.2031,101,231.2031" style="stroke:#181818;stroke-width:1.0;"/><line style="stroke:#181818;stroke-width:1.0;" x1="169" x2="101" y1="133.2969" y2="133.2969"/><line style="stroke:#181818;stroke-width:1.0;" x1="101" x2="101" y1="133.2969" y2="155.2969"/><polygon fill="#181818" points="97,145.2969,101,155.2969,105,145.2969,101,149.2969" style="stroke:#181818;stroke-width:1.0;"/><line style="stroke:#181818;stroke-width:1.0;" x1="266" x2="334" y1="133.2969" y2="133.2969"/><line style="stroke:#181818;stroke-width:1.0;" x1="334" x2="334" y1="133.2969" y2="155.2969"/><polygon fill="#181818" points="330,145.2969,334,155.2969,338,145.2969,334,149.2969" style="stroke:#181818;stroke-width:1.0;"/><line style="stroke:#181818;stroke-width:1.0;" x1="101" x2="101" y1="379.1523" y2="397.1523"/><line style="stroke:#181818;stroke-width:1.0;" x1="101" x2="205.5" y1="397.1523" y2="397.1523"/><polygon fill="#181818" points="195.5,393.1523,205.5,397.1523,195.5,401.1523,199.5,397.1523" style="stroke:#181818;stroke-width:1.0;"/><line style="stroke:#181818;stroke-width:1.0;" x1="334" x2="334" y1="217.2031" y2="397.1523"/><line style="stroke:#181818;stroke-width:1.0;" x1="334" x2="229.5" y1="397.1523" y2="397.1523"/><polygon fill="#181818" points="239.5,393.1523,229.5,397.1523,239.5,401.1523,235.5,397.1523" style="stroke:#181818;stroke-width:1.0;"/><line style="stroke:#181818;stroke-width:1.0;" x1="217.5" x2="217.5" y1="409.1523" y2="429.1523"/><polygon fill="#181818" points="213.5,419.1523,217.5,429.1523,221.5,419.1523,217.5,423.1523" style="stroke:#181818;stroke-width:1.0;"/><line style="stroke:#181818;stroke-width:1.0;" x1="366.25" x2="217.5" y1="99.2969" y2="99.2969"/><line style="stroke:#181818;stroke-width:1.0;" x1="217.5" x2="217.5" y1="99.2969" y2="121.2969"/><polygon fill="#181818" points="213.5,111.2969,217.5,121.2969,221.5,111.2969,217.5,115.2969" style="stroke:#181818;stroke-width:1.0;"/><line style="stroke:#181818;stroke-width:1.0;" x1="448.25" x2="597" y1="99.2969" y2="99.2969"/><line style="stroke:#181818;stroke-width:1.0;" x1="597" x2="597" y1="99.2969" y2="121.2969"/><polygon fill="#181818" points="593,111.2969,597,121.2969,601,111.2969,597,115.2969" style="stroke:#181818;stroke-width:1.0;"/><line style="stroke:#181818;stroke-width:1.0;" x1="217.5" x2="217.5" y1="477.0898" y2="495.0898"/><line style="stroke:#181818;stroke-width:1.0;" x1="217.5" x2="395.25" y1="495.0898" y2="495.0898"/><polygon fill="#181818" points="385.25,491.0898,395.25,495.0898,385.25,499.0898,389.25,495.0898" style="stroke:#181818;stroke-width:1.0;"/><line style="stroke:#181818;stroke-width:1.0;" x1="597" x2="597" y1="183.2031" y2="495.0898"/><line style="stroke:#181818;stroke-width:1.0;" x1="597" x2="419.25" y1="495.0898" y2="495.0898"/><polygon fill="#181818" points="429.25,491.0898,419.25,495.0898,429.25,499.0898,425.25,495.0898" style="stroke:#181818;stroke-width:1.0;"/><line style="stroke:#181818;stroke-width:1.0;" x1="407.25" x2="407.25" y1="67.2969" y2="87.2969"/><polygon fill="#181818" points="403.25,77.2969,407.25,87.2969,411.25,77.2969,407.25,81.2969" style="stroke:#181818;stroke-width:1.0;"/><line style="stroke:#181818;stroke-width:1.0;" x1="407.25" x2="407.25" y1="507.0898" y2="527.0898"/><polygon fill="#181818" points="403.25,517.0898,407.25,527.0898,411.25,517.0898,407.25,521.0898" style="stroke:#181818;stroke-width:1.0;"/><line style="stroke:#181818;stroke-width:1.0;" x1="407.25" x2="407.25" y1="575.0273" y2="595.0273"/><polygon fill="#181818" points="403.25,585.0273,407.25,595.0273,411.25,585.0273,407.25,589.0273" style="stroke:#181818;stroke-width:1.0;"/><line style="stroke:#181818;stroke-width:1.0;" x1="407.25" x2="407.25" y1="642.9648" y2="662.9648"/><polygon fill="#181818" points="403.25,652.9648,407.25,662.9648,411.25,652.9648,407.25,656.9648" style="stroke:#181818;stroke-width:1.0;"/><line style="stroke:#181818;stroke-width:1.0;" x1="407.25" x2="407.25" y1="724.8711" y2="744.8711"/><polygon fill="#181818" points="403.25,734.8711,407.25,744.8711,411.25,734.8711,407.25,738.8711" style="stroke:#181818;stroke-width:1.0;"/><!--SRC=[ZPAnSeCm38PtFuN6vFe6CFKwT6zN5cEBu0l8gIMQvkqhuq2RbDnrC8Frw_z-8KkG0U4bePL01x0WyOW470vaPKfe38jDOapeO4TuBlKzIA-gtGLvRm2MceiaoJgvAmDKptm4bo4nGQT7rGqjyb89aU1aansvddkowQh0hy323Ps3zC1snAlq3qbPh2BNmnGqQx76aheXHSnEUTJ5kz1mODGXOd51yg4pzxVL4ArV3HxcHy6aKTkB8eO1tLontYVaURJ5l7f5oJz2a_g6kXH7QAtJd1uOqoUcslpcFwG_NNVs_nJQeaordvDiBsVBK-DNR_Wn8SlF2u6yaohdsS0KbzAyKAltgHs3vEtSpdjhijMitvNRK9qVPpoPRm00]--></g></svg>
