<?xml version="1.0" encoding="UTF-8" standalone="no"?><svg xmlns="http://www.w3.org/2000/svg" xmlns:xlink="http://www.w3.org/1999/xlink" contentStyleType="text/css" height="607px" preserveAspectRatio="none" style="width:904px;height:607px;background:#FFFFFF;" version="1.1" viewBox="0 0 904 607" width="904px" zoomAndPan="magnify"><defs/><g><rect fill="#FFFFFF" height="292.4609" style="stroke:#181818;stroke-width:1.0;" width="10" x="220.5" y="112.4297"/><line style="stroke:#181818;stroke-width:0.5;stroke-dasharray:5.0,5.0;" x1="33" x2="33" y1="81.2969" y2="526.5547"/><line style="stroke:#181818;stroke-width:0.5;stroke-dasharray:5.0,5.0;" x1="225" x2="225" y1="81.2969" y2="526.5547"/><line style="stroke:#181818;stroke-width:0.5;stroke-dasharray:5.0,5.0;" x1="393.5" x2="393.5" y1="81.2969" y2="526.5547"/><line style="stroke:#181818;stroke-width:0.5;stroke-dasharray:5.0,5.0;" x1="641" x2="641" y1="81.2969" y2="526.5547"/><line style="stroke:#181818;stroke-width:0.5;stroke-dasharray:5.0,5.0;" x1="856" x2="856" y1="81.2969" y2="526.5547"/><text fill="#000000" font-family="sans-serif" font-size="14" lengthAdjust="spacing" textLength="51" x="5" y="77.9951">Creator</text><ellipse cx="33.5" cy="13.5" fill="#E2E2F0" rx="8" ry="8" style="stroke:#181818;stroke-width:0.5;"/><path d="M33.5,21.5 L33.5,48.5 M20.5,29.5 L46.5,29.5 M33.5,48.5 L20.5,63.5 M33.5,48.5 L46.5,63.5 " fill="none" style="stroke:#181818;stroke-width:0.5;"/><text fill="#000000" font-family="sans-serif" font-size="14" lengthAdjust="spacing" textLength="51" x="5" y="538.5498">Creator</text><ellipse cx="33.5" cy="550.3516" fill="#E2E2F0" rx="8" ry="8" style="stroke:#181818;stroke-width:0.5;"/><path d="M33.5,558.3516 L33.5,585.3516 M20.5,566.3516 L46.5,566.3516 M33.5,585.3516 L20.5,600.3516 M33.5,585.3516 L46.5,600.3516 " fill="none" style="stroke:#181818;stroke-width:0.5;"/><text fill="#000000" font-family="sans-serif" font-size="14" lengthAdjust="spacing" textLength="81" x="182" y="77.9951">CreatePage</text><ellipse cx="225.5" cy="49" fill="#E2E2F0" rx="12" ry="12" style="stroke:#181818;stroke-width:0.5;"/><line style="stroke:#181818;stroke-width:0.5;" x1="213.5" x2="237.5" y1="63" y2="63"/><text fill="#000000" font-family="sans-serif" font-size="14" lengthAdjust="spacing" textLength="81" x="182" y="538.5498">CreatePage</text><ellipse cx="225.5" cy="557.8516" fill="#E2E2F0" rx="12" ry="12" style="stroke:#181818;stroke-width:0.5;"/><line style="stroke:#181818;stroke-width:0.5;" x1="213.5" x2="237.5" y1="571.8516" y2="571.8516"/><text fill="#000000" font-family="sans-serif" font-size="14" lengthAdjust="spacing" textLength="126" x="327.5" y="77.9951">PreminterContract</text><ellipse cx="393.5" cy="49" fill="#E2E2F0" rx="12" ry="12" style="stroke:#181818;stroke-width:0.5;"/><line style="stroke:#181818;stroke-width:0.5;" x1="381.5" x2="405.5" y1="63" y2="63"/><text fill="#000000" font-family="sans-serif" font-size="14" lengthAdjust="spacing" textLength="126" x="327.5" y="538.5498">PreminterContract</text><ellipse cx="393.5" cy="557.8516" fill="#E2E2F0" rx="12" ry="12" style="stroke:#181818;stroke-width:0.5;"/><line style="stroke:#181818;stroke-width:0.5;" x1="381.5" x2="405.5" y1="571.8516" y2="571.8516"/><text fill="#000000" font-family="sans-serif" font-size="14" lengthAdjust="spacing" textLength="87" x="595" y="77.9951">SignatureAPI</text><path d="M621,37 L621,61 M621,49 L638,49 " fill="none" style="stroke:#181818;stroke-width:0.5;"/><ellipse cx="650" cy="49" fill="#E2E2F0" rx="12" ry="12" style="stroke:#181818;stroke-width:0.5;"/><text fill="#000000" font-family="sans-serif" font-size="14" lengthAdjust="spacing" textLength="87" x="595" y="538.5498">SignatureAPI</text><path d="M621,545.8516 L621,569.8516 M621,557.8516 L638,557.8516 " fill="none" style="stroke:#181818;stroke-width:0.5;"/><ellipse cx="650" cy="557.8516" fill="#E2E2F0" rx="12" ry="12" style="stroke:#181818;stroke-width:0.5;"/><text fill="#000000" font-family="sans-serif" font-size="14" lengthAdjust="spacing" textLength="87" x="810" y="77.9951">SignatureDB</text><ellipse cx="856.5" cy="49" fill="#E2E2F0" rx="12" ry="12" style="stroke:#181818;stroke-width:0.5;"/><line style="stroke:#181818;stroke-width:0.5;" x1="844.5" x2="868.5" y1="63" y2="63"/><text fill="#000000" font-family="sans-serif" font-size="14" lengthAdjust="spacing" textLength="87" x="810" y="538.5498">SignatureDB</text><ellipse cx="856.5" cy="557.8516" fill="#E2E2F0" rx="12" ry="12" style="stroke:#181818;stroke-width:0.5;"/><line style="stroke:#181818;stroke-width:0.5;" x1="844.5" x2="868.5" y1="571.8516" y2="571.8516"/><rect fill="#FFFFFF" height="292.4609" style="stroke:#181818;stroke-width:1.0;" width="10" x="220.5" y="112.4297"/><polygon fill="#181818" points="208.5,108.4297,218.5,112.4297,208.5,116.4297,212.5,112.4297" style="stroke:#181818;stroke-width:1.0;"/><line style="stroke:#181818;stroke-width:1.0;" x1="33.5" x2="214.5" y1="112.4297" y2="112.4297"/><text fill="#000000" font-family="sans-serif" font-size="13" lengthAdjust="spacing" textLength="168" x="40.5" y="107.3638">setup contract and tokens</text><polygon fill="#181818" points="629.5,137.5625,639.5,141.5625,629.5,145.5625,633.5,141.5625" style="stroke:#181818;stroke-width:1.0;"/><line style="stroke:#181818;stroke-width:1.0;" x1="230.5" x2="635.5" y1="141.5625" y2="141.5625"/><text fill="#000000" font-family="sans-serif" font-size="13" lengthAdjust="spacing" textLength="373" x="237.5" y="136.4966">validate that contract &amp; token creation params are unique</text><polygon fill="#181818" points="404.5,181.8281,394.5,185.8281,404.5,189.8281,400.5,185.8281" style="stroke:#181818;stroke-width:1.0;"/><line style="stroke:#181818;stroke-width:1.0;" x1="398.5" x2="640.5" y1="185.8281" y2="185.8281"/><text fill="#000000" font-family="sans-serif" font-size="13" lengthAdjust="spacing" textLength="224" x="410.5" y="165.6294">get hashed ids for creation params</text><text fill="#000000" font-family="sans-serif" font-size="13" lengthAdjust="spacing" textLength="4" x="410.5" y="180.7622"> </text><polygon fill="#181818" points="629.5,210.9609,639.5,214.9609,629.5,218.9609,633.5,214.9609" style="stroke:#181818;stroke-width:1.0;"/><line style="stroke:#181818;stroke-width:1.0;stroke-dasharray:2.0,2.0;" x1="393.5" x2="635.5" y1="214.9609" y2="214.9609"/><text fill="#000000" font-family="sans-serif" font-size="13" lengthAdjust="spacing" textLength="69" x="400.5" y="209.895">hashed ids</text><polygon fill="#181818" points="844.5,240.0938,854.5,244.0938,844.5,248.0938,848.5,244.0938" style="stroke:#181818;stroke-width:1.0;"/><line style="stroke:#181818;stroke-width:1.0;" x1="641.5" x2="850.5" y1="244.0938" y2="244.0938"/><text fill="#000000" font-family="sans-serif" font-size="13" lengthAdjust="spacing" textLength="191" x="648.5" y="239.0278">check if ids are already stored</text><polygon fill="#181818" points="241.5,269.2266,231.5,273.2266,241.5,277.2266,237.5,273.2266" style="stroke:#181818;stroke-width:1.0;"/><line style="stroke:#181818;stroke-width:1.0;stroke-dasharray:2.0,2.0;" x1="235.5" x2="640.5" y1="273.2266" y2="273.2266"/><text fill="#000000" font-family="sans-serif" font-size="13" lengthAdjust="spacing" textLength="108" x="247.5" y="268.1606">validation results</text><polygon fill="#181818" points="208.5,298.3594,218.5,302.3594,208.5,306.3594,212.5,302.3594" style="stroke:#181818;stroke-width:1.0;"/><line style="stroke:#181818;stroke-width:1.0;" x1="33.5" x2="214.5" y1="302.3594" y2="302.3594"/><text fill="#000000" font-family="sans-serif" font-size="13" lengthAdjust="spacing" textLength="44" x="40.5" y="297.2935">submit</text><polygon fill="#181818" points="381.5,327.4922,391.5,331.4922,381.5,335.4922,385.5,331.4922" style="stroke:#181818;stroke-width:1.0;"/><line style="stroke:#181818;stroke-width:1.0;" x1="230.5" x2="387.5" y1="331.4922" y2="331.4922"/><text fill="#000000" font-family="sans-serif" font-size="13" lengthAdjust="spacing" textLength="139" x="237.5" y="326.4263">get premintHashData</text><polygon fill="#181818" points="241.5,356.625,231.5,360.625,241.5,364.625,237.5,360.625" style="stroke:#181818;stroke-width:1.0;"/><line style="stroke:#181818;stroke-width:1.0;stroke-dasharray:2.0,2.0;" x1="235.5" x2="392.5" y1="360.625" y2="360.625"/><text fill="#000000" font-family="sans-serif" font-size="13" lengthAdjust="spacing" textLength="134" x="247.5" y="355.5591">data hash for signing</text><polygon fill="#181818" points="44.5,400.8906,34.5,404.8906,44.5,408.8906,40.5,404.8906" style="stroke:#181818;stroke-width:1.0;"/><line style="stroke:#181818;stroke-width:1.0;" x1="38.5" x2="224.5" y1="404.8906" y2="404.8906"/><text fill="#000000" font-family="sans-serif" font-size="13" lengthAdjust="spacing" textLength="129" x="50.5" y="384.6919">request signature of</text><text fill="#000000" font-family="sans-serif" font-size="13" lengthAdjust="spacing" textLength="64" x="54.5" y="399.8247">data hash</text><polygon fill="#181818" points="629.5,445.1563,639.5,449.1563,629.5,453.1563,633.5,449.1563" style="stroke:#181818;stroke-width:1.0;"/><line style="stroke:#181818;stroke-width:1.0;" x1="33.5" x2="635.5" y1="449.1563" y2="449.1563"/><text fill="#000000" font-family="sans-serif" font-size="13" lengthAdjust="spacing" textLength="175" x="40.5" y="428.9575">Submit signed data hash +</text><text fill="#000000" font-family="sans-serif" font-size="13" lengthAdjust="spacing" textLength="162" x="40.5" y="444.0903">contract creation params</text><polygon fill="#181818" points="844.5,504.5547,854.5,508.5547,844.5,512.5547,848.5,508.5547" style="stroke:#181818;stroke-width:1.0;"/><line style="stroke:#181818;stroke-width:1.0;" x1="641.5" x2="850.5" y1="508.5547" y2="508.5547"/><text fill="#000000" font-family="sans-serif" font-size="13" lengthAdjust="spacing" textLength="162" x="648.5" y="473.2231">store signed data hash +</text><text fill="#000000" font-family="sans-serif" font-size="13" lengthAdjust="spacing" textLength="162" x="648.5" y="488.356">contract creation params</text><text fill="#000000" font-family="sans-serif" font-size="13" lengthAdjust="spacing" textLength="4" x="648.5" y="503.4888"> </text><!--SRC=[bPB1ReCm38RlUGgVTfdw0XmcRUrXko7rsejB34G5qoLEfRxzJA25WPYq4oIoF___xs0XdOUz9zIl8HOdz-58ELRqkCazjOw5_BvZyLY8ENUHBVex75t5AD7JU_xrA7_U7JwC6U6mUvk1CmWayGh5o0Da2z9TY8FHexjftLp7zDjpvZCpk67ZR5ylDSf4V1buKFIjhcEueiSs07g2oEuxafbpUkxAPWOL2TGOQhBWR81IZIo09pQhFjYjL4wGrTXPN1aKDHKNS6KQrsl5HkVPEmGDaUoYUH7g64KlpbE8ZOJD-EEvTRB8TSF_TRZ-L0S75DomEwUh1aoEKs119Jkk5iD6OPagrLq4IMN96NJbYIU6iRJv90PZlvC-9ci9fu5FKbvF_7mSYnt-lPAK_Bzu-YRC3m00]--></g></svg>