<?xml version="1.0" encoding="UTF-8" standalone="no"?><svg xmlns="http://www.w3.org/2000/svg" xmlns:xlink="http://www.w3.org/1999/xlink" contentStyleType="text/css" height="475px" preserveAspectRatio="none" style="width:606px;height:475px;background:#FFFFFF;" version="1.1" viewBox="0 0 606 475" width="606px" zoomAndPan="magnify"><defs/><g><rect fill="#FFFFFF" height="205.0625" style="stroke:#181818;stroke-width:1.0;" width="10" x="220.5" y="112.4297"/><line style="stroke:#181818;stroke-width:0.5;stroke-dasharray:5.0,5.0;" x1="33" x2="33" y1="81.2969" y2="394.8906"/><line style="stroke:#181818;stroke-width:0.5;stroke-dasharray:5.0,5.0;" x1="225" x2="225" y1="81.2969" y2="394.8906"/><line style="stroke:#181818;stroke-width:0.5;stroke-dasharray:5.0,5.0;" x1="436.5" x2="436.5" y1="81.2969" y2="394.8906"/><line style="stroke:#181818;stroke-width:0.5;stroke-dasharray:5.0,5.0;" x1="558.5" x2="558.5" y1="81.2969" y2="394.8906"/><text fill="#000000" font-family="sans-serif" font-size="14" lengthAdjust="spacing" textLength="51" x="5" y="77.9951">Creator</text><ellipse cx="33.5" cy="13.5" fill="#E2E2F0" rx="8" ry="8" style="stroke:#181818;stroke-width:0.5;"/><path d="M33.5,21.5 L33.5,48.5 M20.5,29.5 L46.5,29.5 M33.5,48.5 L20.5,63.5 M33.5,48.5 L46.5,63.5 " fill="none" style="stroke:#181818;stroke-width:0.5;"/><text fill="#000000" font-family="sans-serif" font-size="14" lengthAdjust="spacing" textLength="51" x="5" y="406.8857">Creator</text><ellipse cx="33.5" cy="418.6875" fill="#E2E2F0" rx="8" ry="8" style="stroke:#181818;stroke-width:0.5;"/><path d="M33.5,426.6875 L33.5,453.6875 M20.5,434.6875 L46.5,434.6875 M33.5,453.6875 L20.5,468.6875 M33.5,453.6875 L46.5,468.6875 " fill="none" style="stroke:#181818;stroke-width:0.5;"/><text fill="#000000" font-family="sans-serif" font-size="14" lengthAdjust="spacing" textLength="81" x="182" y="77.9951">CreatePage</text><ellipse cx="225.5" cy="49" fill="#E2E2F0" rx="12" ry="12" style="stroke:#181818;stroke-width:0.5;"/><line style="stroke:#181818;stroke-width:0.5;" x1="213.5" x2="237.5" y1="63" y2="63"/><text fill="#000000" font-family="sans-serif" font-size="14" lengthAdjust="spacing" textLength="81" x="182" y="406.8857">CreatePage</text><ellipse cx="225.5" cy="426.1875" fill="#E2E2F0" rx="12" ry="12" style="stroke:#181818;stroke-width:0.5;"/><line style="stroke:#181818;stroke-width:0.5;" x1="213.5" x2="237.5" y1="440.1875" y2="440.1875"/><text fill="#000000" font-family="sans-serif" font-size="14" lengthAdjust="spacing" textLength="126" x="370.5" y="77.9951">PreminterContract</text><ellipse cx="436.5" cy="49" fill="#E2E2F0" rx="12" ry="12" style="stroke:#181818;stroke-width:0.5;"/><line style="stroke:#181818;stroke-width:0.5;" x1="424.5" x2="448.5" y1="63" y2="63"/><text fill="#000000" font-family="sans-serif" font-size="14" lengthAdjust="spacing" textLength="126" x="370.5" y="406.8857">PreminterContract</text><ellipse cx="436.5" cy="426.1875" fill="#E2E2F0" rx="12" ry="12" style="stroke:#181818;stroke-width:0.5;"/><line style="stroke:#181818;stroke-width:0.5;" x1="424.5" x2="448.5" y1="440.1875" y2="440.1875"/><text fill="#000000" font-family="sans-serif" font-size="14" lengthAdjust="spacing" textLength="87" x="512.5" y="77.9951">SignatureAPI</text><path d="M538.5,37 L538.5,61 M538.5,49 L555.5,49 " fill="none" style="stroke:#181818;stroke-width:0.5;"/><ellipse cx="567.5" cy="49" fill="#E2E2F0" rx="12" ry="12" style="stroke:#181818;stroke-width:0.5;"/><text fill="#000000" font-family="sans-serif" font-size="14" lengthAdjust="spacing" textLength="87" x="512.5" y="406.8857">SignatureAPI</text><path d="M538.5,414.1875 L538.5,438.1875 M538.5,426.1875 L555.5,426.1875 " fill="none" style="stroke:#181818;stroke-width:0.5;"/><ellipse cx="567.5" cy="426.1875" fill="#E2E2F0" rx="12" ry="12" style="stroke:#181818;stroke-width:0.5;"/><rect fill="#FFFFFF" height="205.0625" style="stroke:#181818;stroke-width:1.0;" width="10" x="220.5" y="112.4297"/><polygon fill="#181818" points="208.5,108.4297,218.5,112.4297,208.5,116.4297,212.5,112.4297" style="stroke:#181818;stroke-width:1.0;"/><line style="stroke:#181818;stroke-width:1.0;" x1="33.5" x2="214.5" y1="112.4297" y2="112.4297"/><text fill="#000000" font-family="sans-serif" font-size="13" lengthAdjust="spacing" textLength="168" x="40.5" y="107.3638">setup contract and tokens</text><polygon fill="#181818" points="424.5,137.5625,434.5,141.5625,424.5,145.5625,428.5,141.5625" style="stroke:#181818;stroke-width:1.0;"/><line style="stroke:#181818;stroke-width:1.0;" x1="230.5" x2="430.5" y1="141.5625" y2="141.5625"/><text fill="#000000" font-family="sans-serif" font-size="13" lengthAdjust="spacing" textLength="182" x="237.5" y="136.4966">get premintHashDataAndIds</text><polygon fill="#181818" points="241.5,181.8281,231.5,185.8281,241.5,189.8281,237.5,185.8281" style="stroke:#181818;stroke-width:1.0;"/><line style="stroke:#181818;stroke-width:1.0;stroke-dasharray:2.0,2.0;" x1="235.5" x2="435.5" y1="185.8281" y2="185.8281"/><text fill="#000000" font-family="sans-serif" font-size="13" lengthAdjust="spacing" textLength="130" x="247.5" y="165.6294">contract + token ids</text><text fill="#000000" font-family="sans-serif" font-size="13" lengthAdjust="spacing" textLength="134" x="247.5" y="180.7622">data hash for signing</text><polygon fill="#181818" points="547,210.9609,557,214.9609,547,218.9609,551,214.9609" style="stroke:#181818;stroke-width:1.0;"/><line style="stroke:#181818;stroke-width:1.0;" x1="230.5" x2="553" y1="214.9609" y2="214.9609"/><text fill="#000000" font-family="sans-serif" font-size="13" lengthAdjust="spacing" textLength="286" x="237.5" y="209.895">validate that contract &amp; token ids are unique</text><polygon fill="#181818" points="241.5,240.0938,231.5,244.0938,241.5,248.0938,237.5,244.0938" style="stroke:#181818;stroke-width:1.0;"/><line style="stroke:#181818;stroke-width:1.0;stroke-dasharray:2.0,2.0;" x1="235.5" x2="558" y1="244.0938" y2="244.0938"/><text fill="#000000" font-family="sans-serif" font-size="13" lengthAdjust="spacing" textLength="108" x="247.5" y="239.0278">validation results</text><polygon fill="#181818" points="208.5,269.2266,218.5,273.2266,208.5,277.2266,212.5,273.2266" style="stroke:#181818;stroke-width:1.0;"/><line style="stroke:#181818;stroke-width:1.0;" x1="33.5" x2="214.5" y1="273.2266" y2="273.2266"/><text fill="#000000" font-family="sans-serif" font-size="13" lengthAdjust="spacing" textLength="44" x="40.5" y="268.1606">submit</text><polygon fill="#181818" points="44.5,313.4922,34.5,317.4922,44.5,321.4922,40.5,317.4922" style="stroke:#181818;stroke-width:1.0;"/><line style="stroke:#181818;stroke-width:1.0;" x1="38.5" x2="224.5" y1="317.4922" y2="317.4922"/><text fill="#000000" font-family="sans-serif" font-size="13" lengthAdjust="spacing" textLength="129" x="50.5" y="297.2935">request signature of</text><text fill="#000000" font-family="sans-serif" font-size="13" lengthAdjust="spacing" textLength="64" x="54.5" y="312.4263">data hash</text><polygon fill="#181818" points="547,372.8906,557,376.8906,547,380.8906,551,376.8906" style="stroke:#181818;stroke-width:1.0;"/><line style="stroke:#181818;stroke-width:1.0;" x1="33.5" x2="553" y1="376.8906" y2="376.8906"/><text fill="#000000" font-family="sans-serif" font-size="13" lengthAdjust="spacing" textLength="175" x="40.5" y="341.5591">Submit signed data hash +</text><text fill="#000000" font-family="sans-serif" font-size="13" lengthAdjust="spacing" textLength="162" x="40.5" y="356.6919">contract creation params</text><text fill="#000000" font-family="sans-serif" font-size="13" lengthAdjust="spacing" textLength="33" x="40.5" y="371.8247">+ ids</text><!--SRC=[TP0zRiCm38Ltde9J5oCNy50WI8TcCv3L2sCnjj2OSYKgG6uV-QUsQoEJH89yxtkaIft7asTABx2erUTOSa4r_tKApwqLPNzoefugXQkBOiW_yM9h8OsUZyKPO5B2m-TA9SV06ZkifcKaCQZkXoL0AkqZpQrDbs-li_FEiMR5Rcn_KsY-IEaevcm2x8Rni46P8R8H0Qq9POgYX4tImbkY3ocJbNe3iawQuuFkrlJWsf0kgX-BAf9dZ69_8yDwTuSqILadw3d4kuQtTupNrkg6QvhDqtAo2ZhW3sReRgNWd0qClpttwFK_ucLm6-JOB3AObJBdhVhbdhmZJsswPDP71tW1]--></g></svg>